%TF.GenerationSoftware,KiCad,Pcbnew,8.0.5*%
%TF.CreationDate,2024-11-20T12:06:12-07:00*%
%TF.ProjectId,CMPE2750,434d5045-3237-4353-902e-6b696361645f,rev?*%
%TF.SameCoordinates,Original*%
%TF.FileFunction,Paste,Bot*%
%TF.FilePolarity,Positive*%
%FSLAX46Y46*%
G04 Gerber Fmt 4.6, Leading zero omitted, Abs format (unit mm)*
G04 Created by KiCad (PCBNEW 8.0.5) date 2024-11-20 12:06:12*
%MOMM*%
%LPD*%
G01*
G04 APERTURE LIST*
G04 Aperture macros list*
%AMRoundRect*
0 Rectangle with rounded corners*
0 $1 Rounding radius*
0 $2 $3 $4 $5 $6 $7 $8 $9 X,Y pos of 4 corners*
0 Add a 4 corners polygon primitive as box body*
4,1,4,$2,$3,$4,$5,$6,$7,$8,$9,$2,$3,0*
0 Add four circle primitives for the rounded corners*
1,1,$1+$1,$2,$3*
1,1,$1+$1,$4,$5*
1,1,$1+$1,$6,$7*
1,1,$1+$1,$8,$9*
0 Add four rect primitives between the rounded corners*
20,1,$1+$1,$2,$3,$4,$5,0*
20,1,$1+$1,$4,$5,$6,$7,0*
20,1,$1+$1,$6,$7,$8,$9,0*
20,1,$1+$1,$8,$9,$2,$3,0*%
G04 Aperture macros list end*
%ADD10RoundRect,0.135000X0.135000X0.185000X-0.135000X0.185000X-0.135000X-0.185000X0.135000X-0.185000X0*%
%ADD11RoundRect,0.150000X-0.587500X-0.150000X0.587500X-0.150000X0.587500X0.150000X-0.587500X0.150000X0*%
%ADD12RoundRect,0.135000X0.185000X-0.135000X0.185000X0.135000X-0.185000X0.135000X-0.185000X-0.135000X0*%
%ADD13RoundRect,0.200000X0.275000X-0.200000X0.275000X0.200000X-0.275000X0.200000X-0.275000X-0.200000X0*%
%ADD14RoundRect,0.135000X-0.135000X-0.185000X0.135000X-0.185000X0.135000X0.185000X-0.135000X0.185000X0*%
%ADD15RoundRect,0.200000X-0.200000X-0.275000X0.200000X-0.275000X0.200000X0.275000X-0.200000X0.275000X0*%
%ADD16RoundRect,0.225000X-0.250000X0.225000X-0.250000X-0.225000X0.250000X-0.225000X0.250000X0.225000X0*%
%ADD17RoundRect,0.150000X-0.825000X-0.150000X0.825000X-0.150000X0.825000X0.150000X-0.825000X0.150000X0*%
%ADD18RoundRect,0.250000X0.475000X-0.250000X0.475000X0.250000X-0.475000X0.250000X-0.475000X-0.250000X0*%
%ADD19RoundRect,0.140000X0.140000X0.170000X-0.140000X0.170000X-0.140000X-0.170000X0.140000X-0.170000X0*%
%ADD20RoundRect,0.200000X0.200000X0.275000X-0.200000X0.275000X-0.200000X-0.275000X0.200000X-0.275000X0*%
%ADD21RoundRect,0.140000X-0.170000X0.140000X-0.170000X-0.140000X0.170000X-0.140000X0.170000X0.140000X0*%
%ADD22RoundRect,0.200000X-0.275000X0.200000X-0.275000X-0.200000X0.275000X-0.200000X0.275000X0.200000X0*%
G04 APERTURE END LIST*
D10*
%TO.C,R61*%
X131760000Y-76375000D03*
X130740000Y-76375000D03*
%TD*%
%TO.C,R142*%
X131760000Y-86125000D03*
X130740000Y-86125000D03*
%TD*%
D11*
%TO.C,Q15*%
X94330000Y-62820000D03*
X94330000Y-60920000D03*
X96205000Y-61870000D03*
%TD*%
%TO.C,Q29*%
X103705000Y-104070000D03*
X103705000Y-102170000D03*
X105580000Y-103120000D03*
%TD*%
D10*
%TO.C,R138*%
X131897500Y-93500000D03*
X130877500Y-93500000D03*
%TD*%
D12*
%TO.C,R149*%
X162920000Y-129020000D03*
X162920000Y-128000000D03*
%TD*%
D10*
%TO.C,R115*%
X131760000Y-77625000D03*
X130740000Y-77625000D03*
%TD*%
D13*
%TO.C,R183*%
X165470000Y-120650000D03*
X165470000Y-119000000D03*
%TD*%
D10*
%TO.C,R129*%
X113662500Y-83120000D03*
X112642500Y-83120000D03*
%TD*%
%TO.C,R132*%
X88162500Y-103120000D03*
X87142500Y-103120000D03*
%TD*%
%TO.C,R120*%
X131760000Y-72500000D03*
X130740000Y-72500000D03*
%TD*%
D14*
%TO.C,R164*%
X132430000Y-112760000D03*
X133450000Y-112760000D03*
%TD*%
D10*
%TO.C,R121*%
X131760000Y-71250000D03*
X130740000Y-71250000D03*
%TD*%
%TO.C,R108*%
X89912500Y-61870000D03*
X88892500Y-61870000D03*
%TD*%
D13*
%TO.C,R107*%
X64142500Y-79770000D03*
X64142500Y-78120000D03*
%TD*%
D11*
%TO.C,Q56*%
X143450000Y-111160000D03*
X143450000Y-109260000D03*
X145325000Y-110210000D03*
%TD*%
D13*
%TO.C,R170*%
X142610000Y-120650000D03*
X142610000Y-119000000D03*
%TD*%
%TO.C,R101*%
X91392500Y-62520000D03*
X91392500Y-60870000D03*
%TD*%
D12*
%TO.C,R148*%
X160380000Y-129020000D03*
X160380000Y-128000000D03*
%TD*%
D13*
%TO.C,R184*%
X168010000Y-120650000D03*
X168010000Y-119000000D03*
%TD*%
D14*
%TO.C,R166*%
X137690000Y-112760000D03*
X138710000Y-112760000D03*
%TD*%
D13*
%TO.C,R105*%
X115142500Y-70770000D03*
X115142500Y-69120000D03*
%TD*%
%TO.C,R124*%
X80142500Y-103770000D03*
X80142500Y-102120000D03*
%TD*%
D14*
%TO.C,R181*%
X159190000Y-112760000D03*
X160210000Y-112760000D03*
%TD*%
D11*
%TO.C,Q28*%
X62205000Y-84070000D03*
X62205000Y-82170000D03*
X64080000Y-83120000D03*
%TD*%
D13*
%TO.C,R123*%
X94142500Y-103770000D03*
X94142500Y-102120000D03*
%TD*%
D11*
%TO.C,Q17*%
X62205000Y-67070000D03*
X62205000Y-65170000D03*
X64080000Y-66120000D03*
%TD*%
D12*
%TO.C,R156*%
X147680000Y-129020000D03*
X147680000Y-128000000D03*
%TD*%
D10*
%TO.C,R118*%
X131760000Y-70000000D03*
X130740000Y-70000000D03*
%TD*%
D12*
%TO.C,R152*%
X142600000Y-129020000D03*
X142600000Y-128000000D03*
%TD*%
D13*
%TO.C,R177*%
X162930000Y-120650000D03*
X162930000Y-119000000D03*
%TD*%
D10*
%TO.C,R130*%
X62662500Y-92120000D03*
X61642500Y-92120000D03*
%TD*%
D13*
%TO.C,R178*%
X155310000Y-120650000D03*
X155310000Y-119000000D03*
%TD*%
D11*
%TO.C,Q10*%
X67830000Y-62870000D03*
X67830000Y-60970000D03*
X69705000Y-61920000D03*
%TD*%
%TO.C,Q35*%
X65205000Y-104070000D03*
X65205000Y-102170000D03*
X67080000Y-103120000D03*
%TD*%
D13*
%TO.C,R106*%
X64142500Y-75770000D03*
X64142500Y-74120000D03*
%TD*%
%TO.C,R126*%
X89642500Y-103770000D03*
X89642500Y-102120000D03*
%TD*%
%TO.C,R162*%
X140070000Y-120650000D03*
X140070000Y-119000000D03*
%TD*%
D15*
%TO.C,R40*%
X193400000Y-79595000D03*
X195050000Y-79595000D03*
%TD*%
D12*
%TO.C,R157*%
X150220000Y-129020000D03*
X150220000Y-128000000D03*
%TD*%
D11*
%TO.C,Q13*%
X113205000Y-75020000D03*
X113205000Y-73120000D03*
X115080000Y-74070000D03*
%TD*%
D16*
%TO.C,C21*%
X184475000Y-79295000D03*
X184475000Y-80845000D03*
%TD*%
D13*
%TO.C,R160*%
X134990000Y-120650000D03*
X134990000Y-119000000D03*
%TD*%
%TO.C,R185*%
X170550000Y-120650000D03*
X170550000Y-119000000D03*
%TD*%
D10*
%TO.C,R88*%
X131897500Y-91000000D03*
X130877500Y-91000000D03*
%TD*%
%TO.C,R133*%
X92662500Y-103120000D03*
X91642500Y-103120000D03*
%TD*%
D17*
%TO.C,U14*%
X186525000Y-82905000D03*
X186525000Y-81635000D03*
X186525000Y-80365000D03*
X186525000Y-79095000D03*
X191475000Y-79095000D03*
X191475000Y-80365000D03*
X191475000Y-81635000D03*
X191475000Y-82905000D03*
%TD*%
D13*
%TO.C,R128*%
X64142500Y-96770000D03*
X64142500Y-95120000D03*
%TD*%
D11*
%TO.C,Q57*%
X149200000Y-111160000D03*
X149200000Y-109260000D03*
X151075000Y-110210000D03*
%TD*%
D13*
%TO.C,R102*%
X81080000Y-62520000D03*
X81080000Y-60870000D03*
%TD*%
D10*
%TO.C,R119*%
X131760000Y-68750000D03*
X130740000Y-68750000D03*
%TD*%
%TO.C,R110*%
X84662500Y-61870000D03*
X83642500Y-61870000D03*
%TD*%
%TO.C,R111*%
X113662500Y-66120000D03*
X112642500Y-66120000D03*
%TD*%
%TO.C,R114*%
X62662500Y-79120000D03*
X61642500Y-79120000D03*
%TD*%
D14*
%TO.C,R190*%
X170190000Y-112760000D03*
X171210000Y-112760000D03*
%TD*%
%TO.C,R180*%
X153940000Y-112760000D03*
X154960000Y-112760000D03*
%TD*%
D12*
%TO.C,R150*%
X140060000Y-129020000D03*
X140060000Y-128000000D03*
%TD*%
D10*
%TO.C,R62*%
X129610000Y-75125000D03*
X128590000Y-75125000D03*
%TD*%
D11*
%TO.C,Q14*%
X62205000Y-72120000D03*
X62205000Y-70220000D03*
X64080000Y-71170000D03*
%TD*%
D13*
%TO.C,R122*%
X115142500Y-83770000D03*
X115142500Y-82120000D03*
%TD*%
D11*
%TO.C,Q12*%
X73205000Y-63020000D03*
X73205000Y-61120000D03*
X75080000Y-62070000D03*
%TD*%
D10*
%TO.C,R139*%
X131760000Y-84875000D03*
X130740000Y-84875000D03*
%TD*%
D12*
%TO.C,R146*%
X134980000Y-129020000D03*
X134980000Y-128000000D03*
%TD*%
D11*
%TO.C,Q61*%
X159700000Y-111210000D03*
X159700000Y-109310000D03*
X161575000Y-110260000D03*
%TD*%
D10*
%TO.C,R89*%
X129747500Y-89750000D03*
X128727500Y-89750000D03*
%TD*%
D13*
%TO.C,R161*%
X137530000Y-120650000D03*
X137530000Y-119000000D03*
%TD*%
D12*
%TO.C,R151*%
X165460000Y-129020000D03*
X165460000Y-128000000D03*
%TD*%
D14*
%TO.C,R42*%
X182215000Y-81095000D03*
X183235000Y-81095000D03*
%TD*%
D10*
%TO.C,R137*%
X131897500Y-94750000D03*
X130877500Y-94750000D03*
%TD*%
%TO.C,R136*%
X131897500Y-92250000D03*
X130877500Y-92250000D03*
%TD*%
D14*
%TO.C,R188*%
X165190000Y-112760000D03*
X166210000Y-112760000D03*
%TD*%
D11*
%TO.C,Q60*%
X154325000Y-111160000D03*
X154325000Y-109260000D03*
X156200000Y-110210000D03*
%TD*%
%TO.C,Q64*%
X165575000Y-111260000D03*
X165575000Y-109360000D03*
X167450000Y-110310000D03*
%TD*%
D10*
%TO.C,R113*%
X62662500Y-75120000D03*
X61642500Y-75120000D03*
%TD*%
D13*
%TO.C,R175*%
X160390000Y-120650000D03*
X160390000Y-119000000D03*
%TD*%
D12*
%TO.C,R153*%
X168000000Y-129020000D03*
X168000000Y-128000000D03*
%TD*%
D10*
%TO.C,R134*%
X78662500Y-103120000D03*
X77642500Y-103120000D03*
%TD*%
D13*
%TO.C,R127*%
X85017500Y-103770000D03*
X85017500Y-102120000D03*
%TD*%
%TO.C,R103*%
X86142500Y-62520000D03*
X86142500Y-60870000D03*
%TD*%
D10*
%TO.C,R116*%
X131760000Y-80125000D03*
X130740000Y-80125000D03*
%TD*%
D12*
%TO.C,R145*%
X157840000Y-129020000D03*
X157840000Y-128000000D03*
%TD*%
D18*
%TO.C,C17*%
X193725000Y-83045000D03*
X193725000Y-81145000D03*
%TD*%
D11*
%TO.C,Q54*%
X138137500Y-111210000D03*
X138137500Y-109310000D03*
X140012500Y-110260000D03*
%TD*%
%TO.C,Q31*%
X98205000Y-104070000D03*
X98205000Y-102170000D03*
X100080000Y-103120000D03*
%TD*%
D10*
%TO.C,R109*%
X79600000Y-61870000D03*
X78580000Y-61870000D03*
%TD*%
D19*
%TO.C,C30*%
X192225000Y-84345000D03*
X191265000Y-84345000D03*
%TD*%
D13*
%TO.C,R168*%
X145150000Y-120650000D03*
X145150000Y-119000000D03*
%TD*%
D14*
%TO.C,R173*%
X148690000Y-112760000D03*
X149710000Y-112760000D03*
%TD*%
D10*
%TO.C,R141*%
X131760000Y-87375000D03*
X130740000Y-87375000D03*
%TD*%
D20*
%TO.C,R41*%
X182475000Y-82345000D03*
X180825000Y-82345000D03*
%TD*%
D13*
%TO.C,R125*%
X64142500Y-92770000D03*
X64142500Y-91120000D03*
%TD*%
D12*
%TO.C,R155*%
X170540000Y-129020000D03*
X170540000Y-128000000D03*
%TD*%
D18*
%TO.C,C16*%
X184225000Y-84245000D03*
X184225000Y-82345000D03*
%TD*%
D10*
%TO.C,R86*%
X129610000Y-82375000D03*
X128590000Y-82375000D03*
%TD*%
D11*
%TO.C,Q36*%
X113205000Y-98570000D03*
X113205000Y-96670000D03*
X115080000Y-97620000D03*
%TD*%
D12*
%TO.C,R143*%
X155300000Y-129020000D03*
X155300000Y-128000000D03*
%TD*%
D11*
%TO.C,Q11*%
X113205000Y-80120000D03*
X113205000Y-78220000D03*
X115080000Y-79170000D03*
%TD*%
%TO.C,Q66*%
X170700000Y-111210000D03*
X170700000Y-109310000D03*
X172575000Y-110260000D03*
%TD*%
%TO.C,Q16*%
X100892500Y-62820000D03*
X100892500Y-60920000D03*
X102767500Y-61870000D03*
%TD*%
D10*
%TO.C,R135*%
X83537500Y-103120000D03*
X82517500Y-103120000D03*
%TD*%
D11*
%TO.C,Q18*%
X107205000Y-62870000D03*
X107205000Y-60970000D03*
X109080000Y-61920000D03*
%TD*%
D10*
%TO.C,R59*%
X129610000Y-67500000D03*
X128590000Y-67500000D03*
%TD*%
%TO.C,R112*%
X113662500Y-70120000D03*
X112642500Y-70120000D03*
%TD*%
D13*
%TO.C,R167*%
X147690000Y-120650000D03*
X147690000Y-119000000D03*
%TD*%
D10*
%TO.C,R117*%
X131760000Y-78875000D03*
X130740000Y-78875000D03*
%TD*%
D13*
%TO.C,R186*%
X173090000Y-120650000D03*
X173090000Y-119000000D03*
%TD*%
%TO.C,R176*%
X157850000Y-120650000D03*
X157850000Y-119000000D03*
%TD*%
%TO.C,R159*%
X132450000Y-120650000D03*
X132450000Y-119000000D03*
%TD*%
D12*
%TO.C,R147*%
X137520000Y-129020000D03*
X137520000Y-128000000D03*
%TD*%
D21*
%TO.C,C20*%
X193225000Y-77345000D03*
X193225000Y-78305000D03*
%TD*%
D14*
%TO.C,R172*%
X142950000Y-112760000D03*
X143970000Y-112760000D03*
%TD*%
D12*
%TO.C,R144*%
X132440000Y-129020000D03*
X132440000Y-128000000D03*
%TD*%
D11*
%TO.C,Q30*%
X62205000Y-89070000D03*
X62205000Y-87170000D03*
X64080000Y-88120000D03*
%TD*%
D12*
%TO.C,R158*%
X173080000Y-129020000D03*
X173080000Y-128000000D03*
%TD*%
D11*
%TO.C,Q32*%
X71705000Y-104070000D03*
X71705000Y-102170000D03*
X73580000Y-103120000D03*
%TD*%
D22*
%TO.C,R39*%
X195725000Y-81195000D03*
X195725000Y-82845000D03*
%TD*%
D11*
%TO.C,Q52*%
X133012500Y-111260000D03*
X133012500Y-109360000D03*
X134887500Y-110310000D03*
%TD*%
D13*
%TO.C,R169*%
X150230000Y-120650000D03*
X150230000Y-119000000D03*
%TD*%
D10*
%TO.C,R131*%
X62662500Y-96120000D03*
X61642500Y-96120000D03*
%TD*%
%TO.C,R140*%
X131760000Y-83625000D03*
X130740000Y-83625000D03*
%TD*%
D11*
%TO.C,Q33*%
X113205000Y-87945000D03*
X113205000Y-86045000D03*
X115080000Y-86995000D03*
%TD*%
%TO.C,Q34*%
X113205000Y-93120000D03*
X113205000Y-91220000D03*
X115080000Y-92170000D03*
%TD*%
D13*
%TO.C,R104*%
X115142500Y-66770000D03*
X115142500Y-65120000D03*
%TD*%
D12*
%TO.C,R154*%
X145140000Y-129020000D03*
X145140000Y-128000000D03*
%TD*%
M02*
