%TF.GenerationSoftware,KiCad,Pcbnew,8.0.5*%
%TF.CreationDate,2024-11-21T16:51:07-07:00*%
%TF.ProjectId,CMPE2750,434d5045-3237-4353-902e-6b696361645f,rev?*%
%TF.SameCoordinates,Original*%
%TF.FileFunction,Drillmap*%
%TF.FilePolarity,Positive*%
%FSLAX45Y45*%
G04 Gerber Fmt 4.5, Leading zero omitted, Abs format (unit mm)*
G04 Created by KiCad (PCBNEW 8.0.5) date 2024-11-21 16:51:07*
%MOMM*%
%LPD*%
G01*
G04 APERTURE LIST*
%ADD10C,0.050000*%
%ADD11C,0.200000*%
%ADD12C,0.100000*%
%ADD13C,0.109220*%
G04 APERTURE END LIST*
D10*
X5382000Y-4600000D02*
X20118000Y-4600000D01*
X20118000Y-14140000D01*
X5382000Y-14140000D01*
X5382000Y-4600000D01*
D11*
D12*
X6060000Y-9285000D02*
X6090000Y-9315000D01*
X6090000Y-9285000D02*
X6060000Y-9315000D01*
X6060000Y-9685000D02*
X6090000Y-9715000D01*
X6090000Y-9685000D02*
X6060000Y-9715000D01*
X6085000Y-7585000D02*
X6115000Y-7615000D01*
X6115000Y-7585000D02*
X6085000Y-7615000D01*
X6085000Y-7985000D02*
X6115000Y-8015000D01*
X6115000Y-7985000D02*
X6085000Y-8015000D01*
X6149250Y-7497000D02*
X6179250Y-7527000D01*
X6179250Y-7497000D02*
X6149250Y-7527000D01*
X6149250Y-7897000D02*
X6179250Y-7927000D01*
X6179250Y-7897000D02*
X6149250Y-7927000D01*
X6149250Y-9197000D02*
X6179250Y-9227000D01*
X6179250Y-9197000D02*
X6149250Y-9227000D01*
X6149250Y-9597000D02*
X6179250Y-9627000D01*
X6179250Y-9597000D02*
X6149250Y-9627000D01*
X6205500Y-6502000D02*
X6235500Y-6532000D01*
X6235500Y-6502000D02*
X6205500Y-6532000D01*
X6205500Y-7007000D02*
X6235500Y-7037000D01*
X6235500Y-7007000D02*
X6205500Y-7037000D01*
X6205500Y-8202000D02*
X6235500Y-8232000D01*
X6235500Y-8202000D02*
X6205500Y-8232000D01*
X6205500Y-8702000D02*
X6235500Y-8732000D01*
X6235500Y-8702000D02*
X6205500Y-8732000D01*
X6251250Y-7497000D02*
X6281250Y-7527000D01*
X6281250Y-7497000D02*
X6251250Y-7527000D01*
X6251250Y-7897000D02*
X6281250Y-7927000D01*
X6281250Y-7897000D02*
X6251250Y-7927000D01*
X6285000Y-8535000D02*
X6315000Y-8565000D01*
X6315000Y-8535000D02*
X6285000Y-8565000D01*
X6393000Y-6597000D02*
X6423000Y-6627000D01*
X6423000Y-6597000D02*
X6393000Y-6627000D01*
X6393000Y-7102000D02*
X6423000Y-7132000D01*
X6423000Y-7102000D02*
X6393000Y-7132000D01*
X6393000Y-8297000D02*
X6423000Y-8327000D01*
X6423000Y-8297000D02*
X6393000Y-8327000D01*
X6393000Y-8797000D02*
X6423000Y-8827000D01*
X6423000Y-8797000D02*
X6393000Y-8827000D01*
X6410000Y-6910000D02*
X6440000Y-6940000D01*
X6440000Y-6910000D02*
X6410000Y-6940000D01*
X6410000Y-8110000D02*
X6440000Y-8140000D01*
X6440000Y-8110000D02*
X6410000Y-8140000D01*
X6410000Y-8610000D02*
X6440000Y-8640000D01*
X6440000Y-8610000D02*
X6410000Y-8640000D01*
X6505500Y-10202000D02*
X6535500Y-10232000D01*
X6535500Y-10202000D02*
X6505500Y-10232000D01*
X6510000Y-7435000D02*
X6540000Y-7465000D01*
X6540000Y-7435000D02*
X6510000Y-7465000D01*
X6510000Y-7835000D02*
X6540000Y-7865000D01*
X6540000Y-7835000D02*
X6510000Y-7865000D01*
X6510000Y-9135000D02*
X6540000Y-9165000D01*
X6540000Y-9135000D02*
X6510000Y-9165000D01*
X6510000Y-9535000D02*
X6540000Y-9565000D01*
X6540000Y-9535000D02*
X6510000Y-9565000D01*
X6555500Y-6446000D02*
X6585500Y-6476000D01*
X6585500Y-6446000D02*
X6555500Y-6476000D01*
X6555500Y-6548000D02*
X6585500Y-6578000D01*
X6585500Y-6548000D02*
X6555500Y-6578000D01*
X6555500Y-6773000D02*
X6585500Y-6803000D01*
X6585500Y-6773000D02*
X6555500Y-6803000D01*
X6555500Y-6951000D02*
X6585500Y-6981000D01*
X6585500Y-6951000D02*
X6555500Y-6981000D01*
X6555500Y-7053000D02*
X6585500Y-7083000D01*
X6585500Y-7053000D02*
X6555500Y-7083000D01*
X6555500Y-7176000D02*
X6585500Y-7206000D01*
X6585500Y-7176000D02*
X6555500Y-7206000D01*
X6555500Y-7278000D02*
X6585500Y-7308000D01*
X6585500Y-7278000D02*
X6555500Y-7308000D01*
X6555500Y-8146000D02*
X6585500Y-8176000D01*
X6585500Y-8146000D02*
X6555500Y-8176000D01*
X6555500Y-8248000D02*
X6585500Y-8278000D01*
X6585500Y-8248000D02*
X6555500Y-8278000D01*
X6555500Y-8473000D02*
X6585500Y-8503000D01*
X6585500Y-8473000D02*
X6555500Y-8503000D01*
X6555500Y-8646000D02*
X6585500Y-8676000D01*
X6585500Y-8646000D02*
X6555500Y-8676000D01*
X6555500Y-8748000D02*
X6585500Y-8778000D01*
X6585500Y-8748000D02*
X6555500Y-8778000D01*
X6555500Y-8973000D02*
X6585500Y-9003000D01*
X6585500Y-8973000D02*
X6555500Y-9003000D01*
X6685000Y-10110000D02*
X6715000Y-10140000D01*
X6715000Y-10110000D02*
X6685000Y-10140000D01*
X6693000Y-10297000D02*
X6723000Y-10327000D01*
X6723000Y-10297000D02*
X6693000Y-10327000D01*
X6735000Y-7236000D02*
X6765000Y-7266000D01*
X6765000Y-7236000D02*
X6735000Y-7266000D01*
X6768000Y-6082000D02*
X6798000Y-6112000D01*
X6798000Y-6082000D02*
X6768000Y-6112000D01*
X6855500Y-10146000D02*
X6885500Y-10176000D01*
X6885500Y-10146000D02*
X6855500Y-10176000D01*
X6855500Y-10248000D02*
X6885500Y-10278000D01*
X6885500Y-10248000D02*
X6855500Y-10278000D01*
X6855500Y-10473000D02*
X6885500Y-10503000D01*
X6885500Y-10473000D02*
X6855500Y-10503000D01*
X6860000Y-9810000D02*
X6890000Y-9840000D01*
X6890000Y-9810000D02*
X6860000Y-9840000D01*
X6951132Y-10635000D02*
X6981132Y-10665000D01*
X6981132Y-10635000D02*
X6951132Y-10665000D01*
X6955500Y-6177000D02*
X6985500Y-6207000D01*
X6985500Y-6177000D02*
X6955500Y-6207000D01*
X6960000Y-5985000D02*
X6990000Y-6015000D01*
X6990000Y-5985000D02*
X6960000Y-6015000D01*
X7097500Y-10672500D02*
X7127500Y-10702500D01*
X7127500Y-10672500D02*
X7097500Y-10702500D01*
X7118000Y-6026000D02*
X7148000Y-6056000D01*
X7148000Y-6026000D02*
X7118000Y-6056000D01*
X7118000Y-6128000D02*
X7148000Y-6158000D01*
X7148000Y-6128000D02*
X7118000Y-6158000D01*
X7118000Y-6251000D02*
X7148000Y-6281000D01*
X7148000Y-6251000D02*
X7118000Y-6281000D01*
X7118000Y-6353000D02*
X7148000Y-6383000D01*
X7148000Y-6353000D02*
X7118000Y-6383000D01*
X7153558Y-10941442D02*
X7183558Y-10971442D01*
X7183558Y-10941442D02*
X7153558Y-10971442D01*
X7155500Y-10202000D02*
X7185500Y-10232000D01*
X7185500Y-10202000D02*
X7155500Y-10232000D01*
X7305500Y-6097000D02*
X7335500Y-6127000D01*
X7335500Y-6097000D02*
X7305500Y-6127000D01*
X7335000Y-10110000D02*
X7365000Y-10140000D01*
X7365000Y-10110000D02*
X7335000Y-10140000D01*
X7343000Y-10297000D02*
X7373000Y-10327000D01*
X7373000Y-10297000D02*
X7343000Y-10327000D01*
X7485000Y-6010000D02*
X7515000Y-6040000D01*
X7515000Y-6010000D02*
X7485000Y-6040000D01*
X7493000Y-6192000D02*
X7523000Y-6222000D01*
X7523000Y-6192000D02*
X7493000Y-6222000D01*
X7505500Y-10146000D02*
X7535500Y-10176000D01*
X7535500Y-10146000D02*
X7505500Y-10176000D01*
X7505500Y-10248000D02*
X7535500Y-10278000D01*
X7535500Y-10248000D02*
X7505500Y-10278000D01*
X7505500Y-10371000D02*
X7535500Y-10401000D01*
X7535500Y-10371000D02*
X7505500Y-10401000D01*
X7505500Y-10473000D02*
X7535500Y-10503000D01*
X7535500Y-10473000D02*
X7505500Y-10503000D01*
X7655500Y-6041000D02*
X7685500Y-6071000D01*
X7685500Y-6041000D02*
X7655500Y-6071000D01*
X7655500Y-6143000D02*
X7685500Y-6173000D01*
X7685500Y-6143000D02*
X7655500Y-6173000D01*
X7655500Y-6266000D02*
X7685500Y-6296000D01*
X7685500Y-6266000D02*
X7655500Y-6296000D01*
X7655500Y-6368000D02*
X7685500Y-6398000D01*
X7685500Y-6368000D02*
X7655500Y-6398000D01*
X7704273Y-7300000D02*
X7734273Y-7330000D01*
X7734273Y-7300000D02*
X7704273Y-7330000D01*
X7749250Y-10297000D02*
X7779250Y-10327000D01*
X7779250Y-10297000D02*
X7749250Y-10327000D01*
X7810000Y-10485000D02*
X7840000Y-10515000D01*
X7840000Y-10485000D02*
X7810000Y-10515000D01*
X7843000Y-6172000D02*
X7873000Y-6202000D01*
X7873000Y-6172000D02*
X7843000Y-6202000D01*
X7885000Y-6360000D02*
X7915000Y-6390000D01*
X7915000Y-6360000D02*
X7885000Y-6390000D01*
X8110000Y-10235000D02*
X8140000Y-10265000D01*
X8140000Y-10235000D02*
X8110000Y-10265000D01*
X8185000Y-6110000D02*
X8215000Y-6140000D01*
X8215000Y-6110000D02*
X8185000Y-6140000D01*
X8236750Y-10297000D02*
X8266750Y-10327000D01*
X8266750Y-10297000D02*
X8236750Y-10327000D01*
X8285000Y-10485000D02*
X8315000Y-10515000D01*
X8315000Y-10485000D02*
X8285000Y-10515000D01*
X8349250Y-6172000D02*
X8379250Y-6202000D01*
X8379250Y-6172000D02*
X8349250Y-6202000D01*
X8385000Y-6360000D02*
X8415000Y-6390000D01*
X8415000Y-6360000D02*
X8385000Y-6390000D01*
X8585000Y-10235000D02*
X8615000Y-10265000D01*
X8615000Y-10235000D02*
X8585000Y-10265000D01*
X8699250Y-10297000D02*
X8729250Y-10327000D01*
X8729250Y-10297000D02*
X8699250Y-10327000D01*
X8710000Y-6110000D02*
X8740000Y-6140000D01*
X8740000Y-6110000D02*
X8710000Y-6140000D01*
X8735000Y-10485000D02*
X8765000Y-10515000D01*
X8765000Y-10485000D02*
X8735000Y-10515000D01*
X8874250Y-6172000D02*
X8904250Y-6202000D01*
X8904250Y-6172000D02*
X8874250Y-6202000D01*
X8910000Y-6360000D02*
X8940000Y-6390000D01*
X8940000Y-6360000D02*
X8910000Y-6390000D01*
X9008000Y-7300000D02*
X9038000Y-7330000D01*
X9038000Y-7300000D02*
X9008000Y-7330000D01*
X9060000Y-10235000D02*
X9090000Y-10265000D01*
X9090000Y-10235000D02*
X9060000Y-10265000D01*
X9149250Y-10297000D02*
X9179250Y-10327000D01*
X9179250Y-10297000D02*
X9149250Y-10327000D01*
X9185000Y-10485000D02*
X9215000Y-10515000D01*
X9215000Y-10485000D02*
X9185000Y-10515000D01*
X9235000Y-6110000D02*
X9265000Y-6140000D01*
X9265000Y-6110000D02*
X9235000Y-6140000D01*
X9260000Y-6310000D02*
X9290000Y-6340000D01*
X9290000Y-6310000D02*
X9260000Y-6340000D01*
X9310000Y-9987000D02*
X9340000Y-10017000D01*
X9340000Y-9987000D02*
X9310000Y-10017000D01*
X9408000Y-7060000D02*
X9438000Y-7090000D01*
X9438000Y-7060000D02*
X9408000Y-7090000D01*
X9418000Y-6077000D02*
X9448000Y-6107000D01*
X9448000Y-6077000D02*
X9418000Y-6107000D01*
X9510000Y-10235000D02*
X9540000Y-10265000D01*
X9540000Y-10235000D02*
X9510000Y-10265000D01*
X9605500Y-6172000D02*
X9635500Y-6202000D01*
X9635500Y-6172000D02*
X9605500Y-6202000D01*
X9610000Y-5985000D02*
X9640000Y-6015000D01*
X9640000Y-5985000D02*
X9610000Y-6015000D01*
X9735000Y-6885000D02*
X9765000Y-6915000D01*
X9765000Y-6885000D02*
X9735000Y-6915000D01*
X9768000Y-6021000D02*
X9798000Y-6051000D01*
X9798000Y-6021000D02*
X9768000Y-6051000D01*
X9768000Y-6123000D02*
X9798000Y-6153000D01*
X9798000Y-6123000D02*
X9768000Y-6153000D01*
X9768000Y-6246000D02*
X9798000Y-6276000D01*
X9798000Y-6246000D02*
X9768000Y-6276000D01*
X9768000Y-6348000D02*
X9798000Y-6378000D01*
X9798000Y-6348000D02*
X9768000Y-6378000D01*
X9805500Y-10202000D02*
X9835500Y-10232000D01*
X9835500Y-10202000D02*
X9805500Y-10232000D01*
X9985000Y-10085000D02*
X10015000Y-10115000D01*
X10015000Y-10085000D02*
X9985000Y-10115000D01*
X9993000Y-10297000D02*
X10023000Y-10327000D01*
X10023000Y-10297000D02*
X9993000Y-10327000D01*
X10074250Y-6077000D02*
X10104250Y-6107000D01*
X10104250Y-6077000D02*
X10074250Y-6107000D01*
X10155500Y-10146000D02*
X10185500Y-10176000D01*
X10185500Y-10146000D02*
X10155500Y-10176000D01*
X10155500Y-10248000D02*
X10185500Y-10278000D01*
X10185500Y-10248000D02*
X10155500Y-10278000D01*
X10155500Y-10371000D02*
X10185500Y-10401000D01*
X10185500Y-10371000D02*
X10155500Y-10401000D01*
X10155500Y-10473000D02*
X10185500Y-10503000D01*
X10185500Y-10473000D02*
X10155500Y-10503000D01*
X10260000Y-5985000D02*
X10290000Y-6015000D01*
X10290000Y-5985000D02*
X10260000Y-6015000D01*
X10261750Y-6172000D02*
X10291750Y-6202000D01*
X10291750Y-6172000D02*
X10261750Y-6202000D01*
X10355500Y-10202000D02*
X10385500Y-10232000D01*
X10385500Y-10202000D02*
X10355500Y-10232000D01*
X10424250Y-6021000D02*
X10454250Y-6051000D01*
X10454250Y-6021000D02*
X10424250Y-6051000D01*
X10424250Y-6123000D02*
X10454250Y-6153000D01*
X10454250Y-6123000D02*
X10424250Y-6153000D01*
X10424250Y-6348000D02*
X10454250Y-6378000D01*
X10454250Y-6348000D02*
X10424250Y-6378000D01*
X10535000Y-10085000D02*
X10565000Y-10115000D01*
X10565000Y-10085000D02*
X10535000Y-10115000D01*
X10543000Y-10297000D02*
X10573000Y-10327000D01*
X10573000Y-10297000D02*
X10543000Y-10327000D01*
X10705500Y-6082000D02*
X10735500Y-6112000D01*
X10735500Y-6082000D02*
X10705500Y-6112000D01*
X10705500Y-10146000D02*
X10735500Y-10176000D01*
X10735500Y-10146000D02*
X10705500Y-10176000D01*
X10705500Y-10248000D02*
X10735500Y-10278000D01*
X10735500Y-10248000D02*
X10705500Y-10278000D01*
X10705500Y-10371000D02*
X10735500Y-10401000D01*
X10735500Y-10371000D02*
X10705500Y-10401000D01*
X10705500Y-10473000D02*
X10735500Y-10503000D01*
X10735500Y-10473000D02*
X10705500Y-10503000D01*
X10893000Y-6177000D02*
X10923000Y-6207000D01*
X10923000Y-6177000D02*
X10893000Y-6207000D01*
X10910000Y-5960000D02*
X10940000Y-5990000D01*
X10940000Y-5960000D02*
X10910000Y-5990000D01*
X10910000Y-7560000D02*
X10940000Y-7590000D01*
X10940000Y-7560000D02*
X10910000Y-7590000D01*
X11010000Y-8660000D02*
X11040000Y-8690000D01*
X11040000Y-8660000D02*
X11010000Y-8690000D01*
X11055500Y-6026000D02*
X11085500Y-6056000D01*
X11085500Y-6026000D02*
X11055500Y-6056000D01*
X11055500Y-6128000D02*
X11085500Y-6158000D01*
X11085500Y-6128000D02*
X11055500Y-6158000D01*
X11055500Y-6251000D02*
X11085500Y-6281000D01*
X11085500Y-6251000D02*
X11055500Y-6281000D01*
X11055500Y-6353000D02*
X11085500Y-6383000D01*
X11085500Y-6353000D02*
X11055500Y-6383000D01*
X11060000Y-7735000D02*
X11090000Y-7765000D01*
X11090000Y-7735000D02*
X11060000Y-7765000D01*
X11135000Y-6985000D02*
X11165000Y-7015000D01*
X11165000Y-6985000D02*
X11135000Y-7015000D01*
X11160000Y-6685000D02*
X11190000Y-6715000D01*
X11190000Y-6685000D02*
X11160000Y-6715000D01*
X11160000Y-9185000D02*
X11190000Y-9215000D01*
X11190000Y-9185000D02*
X11160000Y-9215000D01*
X11160000Y-9810000D02*
X11190000Y-9840000D01*
X11190000Y-9810000D02*
X11160000Y-9840000D01*
X11172774Y-7822226D02*
X11202774Y-7852226D01*
X11202774Y-7822226D02*
X11172774Y-7852226D01*
X11185000Y-8385000D02*
X11215000Y-8415000D01*
X11215000Y-8385000D02*
X11185000Y-8415000D01*
X11249250Y-6597000D02*
X11279250Y-6627000D01*
X11279250Y-6597000D02*
X11249250Y-6627000D01*
X11249250Y-6997000D02*
X11279250Y-7027000D01*
X11279250Y-6997000D02*
X11249250Y-7027000D01*
X11249250Y-8297000D02*
X11279250Y-8327000D01*
X11279250Y-8297000D02*
X11249250Y-8327000D01*
X11305500Y-7297000D02*
X11335500Y-7327000D01*
X11335500Y-7297000D02*
X11305500Y-7327000D01*
X11305500Y-7807000D02*
X11335500Y-7837000D01*
X11335500Y-7807000D02*
X11305500Y-7837000D01*
X11305500Y-8589500D02*
X11335500Y-8619500D01*
X11335500Y-8589500D02*
X11305500Y-8619500D01*
X11305500Y-9107000D02*
X11335500Y-9137000D01*
X11335500Y-9107000D02*
X11305500Y-9137000D01*
X11305500Y-9652000D02*
X11335500Y-9682000D01*
X11335500Y-9652000D02*
X11305500Y-9682000D01*
X11485000Y-7210000D02*
X11515000Y-7240000D01*
X11515000Y-7210000D02*
X11485000Y-7240000D01*
X11485000Y-7710000D02*
X11515000Y-7740000D01*
X11515000Y-7710000D02*
X11485000Y-7740000D01*
X11485000Y-8510000D02*
X11515000Y-8540000D01*
X11515000Y-8510000D02*
X11485000Y-8540000D01*
X11485000Y-9010000D02*
X11515000Y-9040000D01*
X11515000Y-9010000D02*
X11485000Y-9040000D01*
X11485000Y-9560000D02*
X11515000Y-9590000D01*
X11515000Y-9560000D02*
X11485000Y-9590000D01*
X11493000Y-7392000D02*
X11523000Y-7422000D01*
X11523000Y-7392000D02*
X11493000Y-7422000D01*
X11493000Y-7902000D02*
X11523000Y-7932000D01*
X11523000Y-7902000D02*
X11493000Y-7932000D01*
X11493000Y-8684500D02*
X11523000Y-8714500D01*
X11523000Y-8684500D02*
X11493000Y-8714500D01*
X11493000Y-9202000D02*
X11523000Y-9232000D01*
X11523000Y-9202000D02*
X11493000Y-9232000D01*
X11493000Y-9747000D02*
X11523000Y-9777000D01*
X11523000Y-9747000D02*
X11493000Y-9777000D01*
X11610000Y-6535000D02*
X11640000Y-6565000D01*
X11640000Y-6535000D02*
X11610000Y-6565000D01*
X11610000Y-6935000D02*
X11640000Y-6965000D01*
X11640000Y-6935000D02*
X11610000Y-6965000D01*
X11610000Y-8235000D02*
X11640000Y-8265000D01*
X11640000Y-8235000D02*
X11610000Y-8265000D01*
X11655500Y-7241000D02*
X11685500Y-7271000D01*
X11685500Y-7241000D02*
X11655500Y-7271000D01*
X11655500Y-7343000D02*
X11685500Y-7373000D01*
X11685500Y-7343000D02*
X11655500Y-7373000D01*
X11655500Y-7568000D02*
X11685500Y-7598000D01*
X11685500Y-7568000D02*
X11655500Y-7598000D01*
X11655500Y-7751000D02*
X11685500Y-7781000D01*
X11685500Y-7751000D02*
X11655500Y-7781000D01*
X11655500Y-7853000D02*
X11685500Y-7883000D01*
X11685500Y-7853000D02*
X11655500Y-7883000D01*
X11655500Y-7976000D02*
X11685500Y-8006000D01*
X11685500Y-7976000D02*
X11655500Y-8006000D01*
X11655500Y-8078000D02*
X11685500Y-8108000D01*
X11685500Y-8078000D02*
X11655500Y-8108000D01*
X11655500Y-8533500D02*
X11685500Y-8563500D01*
X11685500Y-8533500D02*
X11655500Y-8563500D01*
X11655500Y-8860500D02*
X11685500Y-8890500D01*
X11685500Y-8860500D02*
X11655500Y-8890500D01*
X11655500Y-9051000D02*
X11685500Y-9081000D01*
X11685500Y-9051000D02*
X11655500Y-9081000D01*
X11655500Y-9153000D02*
X11685500Y-9183000D01*
X11685500Y-9153000D02*
X11655500Y-9183000D01*
X11655500Y-9378000D02*
X11685500Y-9408000D01*
X11685500Y-9378000D02*
X11655500Y-9408000D01*
X11655500Y-9596000D02*
X11685500Y-9626000D01*
X11685500Y-9596000D02*
X11655500Y-9626000D01*
X11655500Y-9698000D02*
X11685500Y-9728000D01*
X11685500Y-9698000D02*
X11655500Y-9728000D01*
X11655500Y-9923000D02*
X11685500Y-9953000D01*
X11685500Y-9923000D02*
X11655500Y-9953000D01*
X12110000Y-5010000D02*
X12140000Y-5040000D01*
X12140000Y-5010000D02*
X12110000Y-5040000D01*
X12190500Y-6197000D02*
X12220500Y-6227000D01*
X12220500Y-6197000D02*
X12190500Y-6227000D01*
X12260000Y-7235000D02*
X12290000Y-7265000D01*
X12290000Y-7235000D02*
X12260000Y-7265000D01*
X12285000Y-6535000D02*
X12315000Y-6565000D01*
X12315000Y-6535000D02*
X12285000Y-6565000D01*
X12310000Y-7135000D02*
X12340000Y-7165000D01*
X12340000Y-7135000D02*
X12310000Y-7165000D01*
X12485000Y-6910000D02*
X12515000Y-6940000D01*
X12515000Y-6910000D02*
X12485000Y-6940000D01*
X12610000Y-6910000D02*
X12640000Y-6940000D01*
X12640000Y-6910000D02*
X12610000Y-6940000D01*
X12634000Y-7185000D02*
X12664000Y-7215000D01*
X12664000Y-7185000D02*
X12634000Y-7215000D01*
X12634000Y-7947500D02*
X12664000Y-7977500D01*
X12664000Y-7947500D02*
X12634000Y-7977500D01*
X12634000Y-8672500D02*
X12664000Y-8702500D01*
X12664000Y-8672500D02*
X12634000Y-8702500D01*
X12647750Y-9410000D02*
X12677750Y-9440000D01*
X12677750Y-9410000D02*
X12647750Y-9440000D01*
X12685000Y-8210000D02*
X12715000Y-8240000D01*
X12715000Y-8210000D02*
X12685000Y-8240000D01*
X12736000Y-7947500D02*
X12766000Y-7977500D01*
X12766000Y-7947500D02*
X12736000Y-7977500D01*
X12736000Y-8072500D02*
X12766000Y-8102500D01*
X12766000Y-8072500D02*
X12736000Y-8102500D01*
X12736000Y-8672500D02*
X12766000Y-8702500D01*
X12766000Y-8672500D02*
X12736000Y-8702500D01*
X12736000Y-8797500D02*
X12766000Y-8827500D01*
X12766000Y-8797500D02*
X12736000Y-8827500D01*
X12844000Y-6735000D02*
X12874000Y-6765000D01*
X12874000Y-6735000D02*
X12844000Y-6765000D01*
X12844000Y-7497500D02*
X12874000Y-7527500D01*
X12874000Y-7497500D02*
X12844000Y-7527500D01*
X12844000Y-8222500D02*
X12874000Y-8252500D01*
X12874000Y-8222500D02*
X12844000Y-8252500D01*
X12857750Y-8960000D02*
X12887750Y-8990000D01*
X12887750Y-8960000D02*
X12857750Y-8990000D01*
X12860000Y-5610000D02*
X12890000Y-5640000D01*
X12890000Y-5610000D02*
X12860000Y-5640000D01*
X12946000Y-6735000D02*
X12976000Y-6765000D01*
X12976000Y-6735000D02*
X12946000Y-6765000D01*
X12946000Y-7497500D02*
X12976000Y-7527500D01*
X12976000Y-7497500D02*
X12946000Y-7527500D01*
X12946000Y-8222500D02*
X12976000Y-8252500D01*
X12976000Y-8222500D02*
X12946000Y-8252500D01*
X12959750Y-8960000D02*
X12989750Y-8990000D01*
X12989750Y-8960000D02*
X12959750Y-8990000D01*
X12960000Y-5610000D02*
X12990000Y-5640000D01*
X12990000Y-5610000D02*
X12960000Y-5640000D01*
X13035000Y-11385000D02*
X13065000Y-11415000D01*
X13065000Y-11385000D02*
X13035000Y-11415000D01*
X13059000Y-6860000D02*
X13089000Y-6890000D01*
X13089000Y-6860000D02*
X13059000Y-6890000D01*
X13059000Y-6985000D02*
X13089000Y-7015000D01*
X13089000Y-6985000D02*
X13059000Y-7015000D01*
X13059000Y-7110000D02*
X13089000Y-7140000D01*
X13089000Y-7110000D02*
X13059000Y-7140000D01*
X13059000Y-7235000D02*
X13089000Y-7265000D01*
X13089000Y-7235000D02*
X13059000Y-7265000D01*
X13059000Y-7622500D02*
X13089000Y-7652500D01*
X13089000Y-7622500D02*
X13059000Y-7652500D01*
X13059000Y-7747500D02*
X13089000Y-7777500D01*
X13089000Y-7747500D02*
X13059000Y-7777500D01*
X13059000Y-7872500D02*
X13089000Y-7902500D01*
X13089000Y-7872500D02*
X13059000Y-7902500D01*
X13059000Y-7997500D02*
X13089000Y-8027500D01*
X13089000Y-7997500D02*
X13059000Y-8027500D01*
X13059000Y-8347500D02*
X13089000Y-8377500D01*
X13089000Y-8347500D02*
X13059000Y-8377500D01*
X13059000Y-8472500D02*
X13089000Y-8502500D01*
X13089000Y-8472500D02*
X13059000Y-8502500D01*
X13059000Y-8597500D02*
X13089000Y-8627500D01*
X13089000Y-8597500D02*
X13059000Y-8627500D01*
X13059000Y-8722500D02*
X13089000Y-8752500D01*
X13089000Y-8722500D02*
X13059000Y-8752500D01*
X13072750Y-9085000D02*
X13102750Y-9115000D01*
X13102750Y-9085000D02*
X13072750Y-9115000D01*
X13072750Y-9210000D02*
X13102750Y-9240000D01*
X13102750Y-9210000D02*
X13072750Y-9240000D01*
X13072750Y-9335000D02*
X13102750Y-9365000D01*
X13102750Y-9335000D02*
X13072750Y-9365000D01*
X13072750Y-9460000D02*
X13102750Y-9490000D01*
X13102750Y-9460000D02*
X13072750Y-9490000D01*
X13077500Y-5710000D02*
X13107500Y-5740000D01*
X13107500Y-5710000D02*
X13077500Y-5740000D01*
X13110000Y-8110000D02*
X13140000Y-8140000D01*
X13140000Y-8110000D02*
X13110000Y-8140000D01*
X13161000Y-7235000D02*
X13191000Y-7265000D01*
X13191000Y-7235000D02*
X13161000Y-7265000D01*
X13161000Y-7997500D02*
X13191000Y-8027500D01*
X13191000Y-7997500D02*
X13161000Y-8027500D01*
X13161000Y-8722500D02*
X13191000Y-8752500D01*
X13191000Y-8722500D02*
X13161000Y-8752500D01*
X13174750Y-9460000D02*
X13204750Y-9490000D01*
X13204750Y-9460000D02*
X13174750Y-9490000D01*
X13229000Y-12785000D02*
X13259000Y-12815000D01*
X13259000Y-12785000D02*
X13229000Y-12815000D01*
X13230000Y-12050000D02*
X13260000Y-12080000D01*
X13260000Y-12050000D02*
X13230000Y-12080000D01*
X13258750Y-7558750D02*
X13288750Y-7588750D01*
X13288750Y-7558750D02*
X13258750Y-7588750D01*
X13271477Y-7796477D02*
X13301477Y-7826477D01*
X13301477Y-7796477D02*
X13271477Y-7826477D01*
X13276100Y-7932054D02*
X13306100Y-7962054D01*
X13306100Y-7932054D02*
X13276100Y-7962054D01*
X13285000Y-8735000D02*
X13315000Y-8765000D01*
X13315000Y-8735000D02*
X13285000Y-8765000D01*
X13285000Y-9385000D02*
X13315000Y-9415000D01*
X13315000Y-9385000D02*
X13285000Y-9415000D01*
X13285000Y-10785000D02*
X13315000Y-10815000D01*
X13315000Y-10785000D02*
X13285000Y-10815000D01*
X13307500Y-7635000D02*
X13337500Y-7665000D01*
X13337500Y-7635000D02*
X13307500Y-7665000D01*
X13335000Y-6885000D02*
X13365000Y-6915000D01*
X13365000Y-6885000D02*
X13335000Y-6915000D01*
X13335000Y-7000147D02*
X13365000Y-7030147D01*
X13365000Y-7000147D02*
X13335000Y-7030147D01*
X13336100Y-8504047D02*
X13366100Y-8534047D01*
X13366100Y-8504047D02*
X13336100Y-8534047D01*
X13345000Y-8885000D02*
X13375000Y-8915000D01*
X13375000Y-8885000D02*
X13345000Y-8915000D01*
X13345000Y-9510000D02*
X13375000Y-9540000D01*
X13375000Y-9510000D02*
X13345000Y-9540000D01*
X13350576Y-7962000D02*
X13380576Y-7992000D01*
X13380576Y-7962000D02*
X13350576Y-7992000D01*
X13375000Y-11385000D02*
X13405000Y-11415000D01*
X13405000Y-11385000D02*
X13375000Y-11415000D01*
X13435000Y-7485000D02*
X13465000Y-7515000D01*
X13465000Y-7485000D02*
X13435000Y-7515000D01*
X13435000Y-8185000D02*
X13465000Y-8215000D01*
X13465000Y-8185000D02*
X13435000Y-8215000D01*
X13439000Y-8935000D02*
X13469000Y-8965000D01*
X13469000Y-8935000D02*
X13439000Y-8965000D01*
X13460000Y-5635000D02*
X13490000Y-5665000D01*
X13490000Y-5635000D02*
X13460000Y-5665000D01*
X13460000Y-5894140D02*
X13490000Y-5924140D01*
X13490000Y-5894140D02*
X13460000Y-5924140D01*
X13483000Y-12785000D02*
X13513000Y-12815000D01*
X13513000Y-12785000D02*
X13483000Y-12815000D01*
X13484000Y-12050000D02*
X13514000Y-12080000D01*
X13514000Y-12050000D02*
X13484000Y-12080000D01*
X13485000Y-10785000D02*
X13515000Y-10815000D01*
X13515000Y-10785000D02*
X13485000Y-10815000D01*
X13485000Y-11585000D02*
X13515000Y-11615000D01*
X13515000Y-11585000D02*
X13485000Y-11615000D01*
X13531000Y-7485000D02*
X13561000Y-7515000D01*
X13561000Y-7485000D02*
X13531000Y-7515000D01*
X13531000Y-8185000D02*
X13561000Y-8215000D01*
X13561000Y-8185000D02*
X13531000Y-8215000D01*
X13533750Y-11261000D02*
X13563750Y-11291000D01*
X13563750Y-11261000D02*
X13533750Y-11291000D01*
X13535000Y-8935000D02*
X13565000Y-8965000D01*
X13565000Y-8935000D02*
X13535000Y-8965000D01*
X13583000Y-6735000D02*
X13613000Y-6765000D01*
X13613000Y-6735000D02*
X13583000Y-6765000D01*
X13605073Y-7830073D02*
X13635073Y-7860073D01*
X13635073Y-7830073D02*
X13605073Y-7860073D01*
X13610000Y-9460000D02*
X13640000Y-9490000D01*
X13640000Y-9460000D02*
X13610000Y-9490000D01*
X13634500Y-8384500D02*
X13664500Y-8414500D01*
X13664500Y-8384500D02*
X13634500Y-8414500D01*
X13635000Y-7559000D02*
X13665000Y-7589000D01*
X13665000Y-7559000D02*
X13635000Y-7589000D01*
X13635000Y-7661000D02*
X13665000Y-7691000D01*
X13665000Y-7661000D02*
X13635000Y-7691000D01*
X13635000Y-8486000D02*
X13665000Y-8516000D01*
X13665000Y-8486000D02*
X13635000Y-8516000D01*
X13635000Y-8585000D02*
X13665000Y-8615000D01*
X13665000Y-8585000D02*
X13635000Y-8615000D01*
X13635000Y-9310000D02*
X13665000Y-9340000D01*
X13665000Y-9310000D02*
X13635000Y-9340000D01*
X13667853Y-6735000D02*
X13697853Y-6765000D01*
X13697853Y-6735000D02*
X13667853Y-6765000D01*
X13735000Y-10760000D02*
X13765000Y-10790000D01*
X13765000Y-10760000D02*
X13735000Y-10790000D01*
X13736000Y-9135000D02*
X13766000Y-9165000D01*
X13766000Y-9135000D02*
X13736000Y-9165000D01*
X13737000Y-12785000D02*
X13767000Y-12815000D01*
X13767000Y-12785000D02*
X13737000Y-12815000D01*
X13738000Y-12050000D02*
X13768000Y-12080000D01*
X13768000Y-12050000D02*
X13738000Y-12080000D01*
X13760000Y-5710000D02*
X13790000Y-5740000D01*
X13790000Y-5710000D02*
X13760000Y-5740000D01*
X13761000Y-6860000D02*
X13791000Y-6890000D01*
X13791000Y-6860000D02*
X13761000Y-6890000D01*
X13849000Y-11410000D02*
X13879000Y-11440000D01*
X13879000Y-11410000D02*
X13849000Y-11440000D01*
X13860000Y-6636500D02*
X13890000Y-6666500D01*
X13890000Y-6636500D02*
X13860000Y-6666500D01*
X13885000Y-5610000D02*
X13915000Y-5640000D01*
X13915000Y-5610000D02*
X13885000Y-5640000D01*
X13920000Y-7335000D02*
X13950000Y-7365000D01*
X13950000Y-7335000D02*
X13920000Y-7365000D01*
X13985000Y-6785000D02*
X14015000Y-6815000D01*
X14015000Y-6785000D02*
X13985000Y-6815000D01*
X13985000Y-10760000D02*
X14015000Y-10790000D01*
X14015000Y-10760000D02*
X13985000Y-10790000D01*
X13985000Y-11585000D02*
X14015000Y-11615000D01*
X14015000Y-11585000D02*
X13985000Y-11615000D01*
X13991000Y-12785000D02*
X14021000Y-12815000D01*
X14021000Y-12785000D02*
X13991000Y-12815000D01*
X13992000Y-12050000D02*
X14022000Y-12080000D01*
X14022000Y-12050000D02*
X13992000Y-12080000D01*
X14035000Y-5610000D02*
X14065000Y-5640000D01*
X14065000Y-5610000D02*
X14035000Y-5640000D01*
X14035000Y-9135000D02*
X14065000Y-9165000D01*
X14065000Y-9135000D02*
X14035000Y-9165000D01*
X14055000Y-11261000D02*
X14085000Y-11291000D01*
X14085000Y-11261000D02*
X14055000Y-11291000D01*
X14160000Y-9210000D02*
X14190000Y-9240000D01*
X14190000Y-9210000D02*
X14160000Y-9240000D01*
X14245000Y-12785000D02*
X14275000Y-12815000D01*
X14275000Y-12785000D02*
X14245000Y-12815000D01*
X14246000Y-12050000D02*
X14276000Y-12080000D01*
X14276000Y-12050000D02*
X14246000Y-12080000D01*
X14357000Y-11385000D02*
X14387000Y-11415000D01*
X14387000Y-11385000D02*
X14357000Y-11415000D01*
X14410000Y-7735000D02*
X14440000Y-7765000D01*
X14440000Y-7735000D02*
X14410000Y-7765000D01*
X14410000Y-8435000D02*
X14440000Y-8465000D01*
X14440000Y-8435000D02*
X14410000Y-8465000D01*
X14417000Y-10710000D02*
X14447000Y-10740000D01*
X14447000Y-10710000D02*
X14417000Y-10740000D01*
X14485000Y-8685000D02*
X14515000Y-8715000D01*
X14515000Y-8685000D02*
X14485000Y-8715000D01*
X14485000Y-11585000D02*
X14515000Y-11615000D01*
X14515000Y-11585000D02*
X14485000Y-11615000D01*
X14499000Y-12785000D02*
X14529000Y-12815000D01*
X14529000Y-12785000D02*
X14499000Y-12815000D01*
X14500000Y-12050000D02*
X14530000Y-12080000D01*
X14530000Y-12050000D02*
X14500000Y-12080000D01*
X14560000Y-10710000D02*
X14590000Y-10740000D01*
X14590000Y-10710000D02*
X14560000Y-10740000D01*
X14581000Y-11261000D02*
X14611000Y-11291000D01*
X14611000Y-11261000D02*
X14581000Y-11291000D01*
X14582210Y-9636507D02*
X14612210Y-9666507D01*
X14612210Y-9636507D02*
X14582210Y-9666507D01*
X14685000Y-8913750D02*
X14715000Y-8943750D01*
X14715000Y-8913750D02*
X14685000Y-8943750D01*
X14710000Y-8460000D02*
X14740000Y-8490000D01*
X14740000Y-8460000D02*
X14710000Y-8490000D01*
X14750660Y-5697440D02*
X14780660Y-5727440D01*
X14780660Y-5697440D02*
X14750660Y-5727440D01*
X14753000Y-12785000D02*
X14783000Y-12815000D01*
X14783000Y-12785000D02*
X14753000Y-12815000D01*
X14754000Y-12050000D02*
X14784000Y-12080000D01*
X14784000Y-12050000D02*
X14754000Y-12080000D01*
X14780073Y-9430074D02*
X14810073Y-9460074D01*
X14810073Y-9430074D02*
X14780073Y-9460074D01*
X14785000Y-8260000D02*
X14815000Y-8290000D01*
X14815000Y-8260000D02*
X14785000Y-8290000D01*
X14805000Y-9580000D02*
X14835000Y-9610000D01*
X14835000Y-9580000D02*
X14805000Y-9610000D01*
X14835000Y-7336000D02*
X14865000Y-7366000D01*
X14865000Y-7336000D02*
X14835000Y-7366000D01*
X14854000Y-11261000D02*
X14884000Y-11291000D01*
X14884000Y-11261000D02*
X14854000Y-11291000D01*
X14877660Y-5697440D02*
X14907660Y-5727440D01*
X14907660Y-5697440D02*
X14877660Y-5727440D01*
X14877660Y-6103840D02*
X14907660Y-6133840D01*
X14907660Y-6103840D02*
X14877660Y-6133840D01*
X14889000Y-7710000D02*
X14919000Y-7740000D01*
X14919000Y-7710000D02*
X14889000Y-7740000D01*
X14914000Y-10760000D02*
X14944000Y-10790000D01*
X14944000Y-10760000D02*
X14914000Y-10790000D01*
X14985000Y-7710000D02*
X15015000Y-7740000D01*
X15015000Y-7710000D02*
X14985000Y-7740000D01*
X14985000Y-11585000D02*
X15015000Y-11615000D01*
X15015000Y-11585000D02*
X14985000Y-11615000D01*
X15007000Y-12785000D02*
X15037000Y-12815000D01*
X15037000Y-12785000D02*
X15007000Y-12815000D01*
X15008000Y-12050000D02*
X15038000Y-12080000D01*
X15038000Y-12050000D02*
X15008000Y-12080000D01*
X15035000Y-9260000D02*
X15065000Y-9290000D01*
X15065000Y-9260000D02*
X15035000Y-9290000D01*
X15043044Y-8537336D02*
X15073044Y-8567336D01*
X15073044Y-8537336D02*
X15043044Y-8567336D01*
X15050332Y-8406282D02*
X15080332Y-8436282D01*
X15080332Y-8406282D02*
X15050332Y-8436282D01*
X15085000Y-7610000D02*
X15115000Y-7640000D01*
X15115000Y-7610000D02*
X15085000Y-7640000D01*
X15085000Y-10785000D02*
X15115000Y-10815000D01*
X15115000Y-10785000D02*
X15085000Y-10815000D01*
X15086694Y-8083306D02*
X15116694Y-8113306D01*
X15116694Y-8083306D02*
X15086694Y-8113306D01*
X15125000Y-8251906D02*
X15155000Y-8281906D01*
X15155000Y-8251906D02*
X15125000Y-8281906D01*
X15125000Y-8435000D02*
X15155000Y-8465000D01*
X15155000Y-8435000D02*
X15125000Y-8465000D01*
X15131660Y-5697440D02*
X15161660Y-5727440D01*
X15161660Y-5697440D02*
X15131660Y-5727440D01*
X15139000Y-9085000D02*
X15169000Y-9115000D01*
X15169000Y-9085000D02*
X15139000Y-9115000D01*
X15156000Y-11261000D02*
X15186000Y-11291000D01*
X15186000Y-11261000D02*
X15156000Y-11291000D01*
X15181000Y-7610000D02*
X15211000Y-7640000D01*
X15211000Y-7610000D02*
X15181000Y-7640000D01*
X15185000Y-8010000D02*
X15215000Y-8040000D01*
X15215000Y-8010000D02*
X15185000Y-8040000D01*
X15235000Y-9085000D02*
X15265000Y-9115000D01*
X15265000Y-9085000D02*
X15235000Y-9115000D01*
X15235733Y-9885733D02*
X15265733Y-9915733D01*
X15265733Y-9885733D02*
X15235733Y-9915733D01*
X15245000Y-7937838D02*
X15275000Y-7967838D01*
X15275000Y-7937838D02*
X15245000Y-7967838D01*
X15258660Y-5697440D02*
X15288660Y-5727440D01*
X15288660Y-5697440D02*
X15258660Y-5727440D01*
X15274000Y-7410000D02*
X15304000Y-7440000D01*
X15304000Y-7410000D02*
X15274000Y-7440000D01*
X15305000Y-8060000D02*
X15335000Y-8090000D01*
X15335000Y-8060000D02*
X15305000Y-8090000D01*
X15310000Y-5010000D02*
X15340000Y-5040000D01*
X15340000Y-5010000D02*
X15310000Y-5040000D01*
X15310000Y-7635000D02*
X15340000Y-7665000D01*
X15340000Y-7635000D02*
X15310000Y-7665000D01*
X15365000Y-7960000D02*
X15395000Y-7990000D01*
X15395000Y-7960000D02*
X15365000Y-7990000D01*
X15372926Y-9923160D02*
X15402926Y-9953160D01*
X15402926Y-9923160D02*
X15372926Y-9953160D01*
X15379000Y-11261000D02*
X15409000Y-11291000D01*
X15409000Y-11261000D02*
X15379000Y-11291000D01*
X15385660Y-5697440D02*
X15415660Y-5727440D01*
X15415660Y-5697440D02*
X15385660Y-5727440D01*
X15400000Y-9035000D02*
X15430000Y-9065000D01*
X15430000Y-9035000D02*
X15400000Y-9065000D01*
X15403160Y-9803160D02*
X15433160Y-9833160D01*
X15433160Y-9803160D02*
X15403160Y-9833160D01*
X15425000Y-8022610D02*
X15455000Y-8052610D01*
X15455000Y-8022610D02*
X15425000Y-8052610D01*
X15435000Y-6485000D02*
X15465000Y-6515000D01*
X15465000Y-6485000D02*
X15435000Y-6515000D01*
X15435000Y-7485000D02*
X15465000Y-7515000D01*
X15465000Y-7485000D02*
X15435000Y-7515000D01*
X15460000Y-10735000D02*
X15490000Y-10765000D01*
X15490000Y-10735000D02*
X15460000Y-10765000D01*
X15485000Y-7960000D02*
X15515000Y-7990000D01*
X15515000Y-7960000D02*
X15485000Y-7990000D01*
X15515000Y-12785000D02*
X15545000Y-12815000D01*
X15545000Y-12785000D02*
X15515000Y-12815000D01*
X15516000Y-12050000D02*
X15546000Y-12080000D01*
X15546000Y-12050000D02*
X15516000Y-12080000D01*
X15545586Y-9745586D02*
X15575586Y-9775586D01*
X15575586Y-9745586D02*
X15545586Y-9775586D01*
X15560000Y-7910000D02*
X15590000Y-7940000D01*
X15590000Y-7910000D02*
X15560000Y-7940000D01*
X15610000Y-10735000D02*
X15640000Y-10765000D01*
X15640000Y-10735000D02*
X15610000Y-10765000D01*
X15635000Y-7485000D02*
X15665000Y-7515000D01*
X15665000Y-7485000D02*
X15635000Y-7515000D01*
X15681000Y-11261000D02*
X15711000Y-11291000D01*
X15711000Y-11261000D02*
X15681000Y-11291000D01*
X15710000Y-6260000D02*
X15740000Y-6290000D01*
X15740000Y-6260000D02*
X15710000Y-6290000D01*
X15735000Y-8635000D02*
X15765000Y-8665000D01*
X15765000Y-8635000D02*
X15735000Y-8665000D01*
X15769000Y-12785000D02*
X15799000Y-12815000D01*
X15799000Y-12785000D02*
X15769000Y-12815000D01*
X15770000Y-12050000D02*
X15800000Y-12080000D01*
X15800000Y-12050000D02*
X15770000Y-12080000D01*
X15785000Y-8130000D02*
X15815000Y-8160000D01*
X15815000Y-8130000D02*
X15785000Y-8160000D01*
X15785000Y-8210000D02*
X15815000Y-8240000D01*
X15815000Y-8210000D02*
X15785000Y-8240000D01*
X15785000Y-11585000D02*
X15815000Y-11615000D01*
X15815000Y-11585000D02*
X15785000Y-11615000D01*
X15787000Y-9060000D02*
X15817000Y-9090000D01*
X15817000Y-9060000D02*
X15787000Y-9090000D01*
X15787000Y-9160000D02*
X15817000Y-9190000D01*
X15817000Y-9160000D02*
X15787000Y-9190000D01*
X15810000Y-8695000D02*
X15840000Y-8725000D01*
X15840000Y-8695000D02*
X15810000Y-8725000D01*
X15835000Y-7485000D02*
X15865000Y-7515000D01*
X15865000Y-7485000D02*
X15835000Y-7515000D01*
X15874223Y-8156554D02*
X15904223Y-8186554D01*
X15904223Y-8156554D02*
X15874223Y-8186554D01*
X15875147Y-7950147D02*
X15905147Y-7980147D01*
X15905147Y-7950147D02*
X15875147Y-7980147D01*
X15904000Y-11261000D02*
X15934000Y-11291000D01*
X15934000Y-11261000D02*
X15904000Y-11291000D01*
X15910000Y-8085000D02*
X15940000Y-8115000D01*
X15940000Y-8085000D02*
X15910000Y-8115000D01*
X15910000Y-8360000D02*
X15940000Y-8390000D01*
X15940000Y-8360000D02*
X15910000Y-8390000D01*
X15985000Y-8935000D02*
X16015000Y-8965000D01*
X16015000Y-8935000D02*
X15985000Y-8965000D01*
X15985000Y-10785000D02*
X16015000Y-10815000D01*
X16015000Y-10785000D02*
X15985000Y-10815000D01*
X15992500Y-8819406D02*
X16022500Y-8849406D01*
X16022500Y-8819406D02*
X15992500Y-8849406D01*
X16023000Y-12785000D02*
X16053000Y-12815000D01*
X16053000Y-12785000D02*
X16023000Y-12815000D01*
X16024000Y-12050000D02*
X16054000Y-12080000D01*
X16054000Y-12050000D02*
X16024000Y-12080000D01*
X16135000Y-10785000D02*
X16165000Y-10815000D01*
X16165000Y-10785000D02*
X16135000Y-10815000D01*
X16206000Y-11261000D02*
X16236000Y-11291000D01*
X16236000Y-11261000D02*
X16206000Y-11291000D01*
X16215000Y-5510000D02*
X16245000Y-5540000D01*
X16245000Y-5510000D02*
X16215000Y-5540000D01*
X16235000Y-7937000D02*
X16265000Y-7967000D01*
X16265000Y-7937000D02*
X16235000Y-7967000D01*
X16235000Y-8033000D02*
X16265000Y-8063000D01*
X16265000Y-8033000D02*
X16235000Y-8063000D01*
X16235000Y-8125147D02*
X16265000Y-8155147D01*
X16265000Y-8125147D02*
X16235000Y-8155147D01*
X16240000Y-6285000D02*
X16270000Y-6315000D01*
X16270000Y-6285000D02*
X16240000Y-6315000D01*
X16277000Y-12785000D02*
X16307000Y-12815000D01*
X16307000Y-12785000D02*
X16277000Y-12815000D01*
X16278000Y-12050000D02*
X16308000Y-12080000D01*
X16308000Y-12050000D02*
X16278000Y-12080000D01*
X16285000Y-11585000D02*
X16315000Y-11615000D01*
X16315000Y-11585000D02*
X16285000Y-11615000D01*
X16290147Y-8350000D02*
X16320147Y-8380000D01*
X16320147Y-8350000D02*
X16290147Y-8380000D01*
X16389000Y-11385000D02*
X16419000Y-11415000D01*
X16419000Y-11385000D02*
X16389000Y-11415000D01*
X16440000Y-8160000D02*
X16470000Y-8190000D01*
X16470000Y-8160000D02*
X16440000Y-8190000D01*
X16500000Y-7852853D02*
X16530000Y-7882853D01*
X16530000Y-7852853D02*
X16500000Y-7882853D01*
X16510000Y-5510000D02*
X16540000Y-5540000D01*
X16540000Y-5510000D02*
X16510000Y-5540000D01*
X16531000Y-12785000D02*
X16561000Y-12815000D01*
X16561000Y-12785000D02*
X16531000Y-12815000D01*
X16532000Y-12050000D02*
X16562000Y-12080000D01*
X16562000Y-12050000D02*
X16532000Y-12080000D01*
X16535000Y-6285000D02*
X16565000Y-6315000D01*
X16565000Y-6285000D02*
X16535000Y-6315000D01*
X16535000Y-10810000D02*
X16565000Y-10840000D01*
X16565000Y-10810000D02*
X16535000Y-10840000D01*
X16610000Y-9520000D02*
X16640000Y-9550000D01*
X16640000Y-9520000D02*
X16610000Y-9550000D01*
X16685000Y-6585000D02*
X16715000Y-6615000D01*
X16715000Y-6585000D02*
X16685000Y-6615000D01*
X16710000Y-10810000D02*
X16740000Y-10840000D01*
X16740000Y-10810000D02*
X16710000Y-10840000D01*
X16785000Y-11585000D02*
X16815000Y-11615000D01*
X16815000Y-11585000D02*
X16785000Y-11615000D01*
X16785000Y-12785000D02*
X16815000Y-12815000D01*
X16815000Y-12785000D02*
X16785000Y-12815000D01*
X16786000Y-12050000D02*
X16816000Y-12080000D01*
X16816000Y-12050000D02*
X16786000Y-12080000D01*
X16806000Y-11261000D02*
X16836000Y-11291000D01*
X16836000Y-11261000D02*
X16806000Y-11291000D01*
X16835000Y-5910000D02*
X16865000Y-5940000D01*
X16865000Y-5910000D02*
X16835000Y-5940000D01*
X16835000Y-6158000D02*
X16865000Y-6188000D01*
X16865000Y-6158000D02*
X16835000Y-6188000D01*
X16835000Y-6410000D02*
X16865000Y-6440000D01*
X16865000Y-6410000D02*
X16835000Y-6440000D01*
X16835000Y-6658000D02*
X16865000Y-6688000D01*
X16865000Y-6658000D02*
X16835000Y-6688000D01*
X16835000Y-6760000D02*
X16865000Y-6790000D01*
X16865000Y-6760000D02*
X16835000Y-6790000D01*
X16835000Y-6908000D02*
X16865000Y-6938000D01*
X16865000Y-6908000D02*
X16835000Y-6938000D01*
X16835000Y-7010000D02*
X16865000Y-7040000D01*
X16865000Y-7010000D02*
X16835000Y-7040000D01*
X16835000Y-7159000D02*
X16865000Y-7189000D01*
X16865000Y-7159000D02*
X16835000Y-7189000D01*
X16835000Y-7510000D02*
X16865000Y-7540000D01*
X16865000Y-7510000D02*
X16835000Y-7540000D01*
X16835000Y-7660000D02*
X16865000Y-7690000D01*
X16865000Y-7660000D02*
X16835000Y-7690000D01*
X16835000Y-7760000D02*
X16865000Y-7790000D01*
X16865000Y-7760000D02*
X16835000Y-7790000D01*
X16835000Y-7955000D02*
X16865000Y-7985000D01*
X16865000Y-7955000D02*
X16835000Y-7985000D01*
X16835000Y-8184000D02*
X16865000Y-8214000D01*
X16865000Y-8184000D02*
X16835000Y-8214000D01*
X16835000Y-8286000D02*
X16865000Y-8316000D01*
X16865000Y-8286000D02*
X16835000Y-8316000D01*
X16835000Y-8708000D02*
X16865000Y-8738000D01*
X16865000Y-8708000D02*
X16835000Y-8738000D01*
X16835000Y-8810000D02*
X16865000Y-8840000D01*
X16865000Y-8810000D02*
X16835000Y-8840000D01*
X16910000Y-7335000D02*
X16940000Y-7365000D01*
X16940000Y-7335000D02*
X16910000Y-7365000D01*
X16931000Y-11385000D02*
X16961000Y-11415000D01*
X16961000Y-11385000D02*
X16931000Y-11415000D01*
X16960000Y-7660000D02*
X16990000Y-7690000D01*
X16990000Y-7660000D02*
X16960000Y-7690000D01*
X16960000Y-7875000D02*
X16990000Y-7905000D01*
X16990000Y-7875000D02*
X16960000Y-7905000D01*
X17039000Y-12785000D02*
X17069000Y-12815000D01*
X17069000Y-12785000D02*
X17039000Y-12815000D01*
X17040000Y-12050000D02*
X17070000Y-12080000D01*
X17070000Y-12050000D02*
X17040000Y-12080000D01*
X17060000Y-10785000D02*
X17090000Y-10815000D01*
X17090000Y-10785000D02*
X17060000Y-10815000D01*
X17185000Y-11385000D02*
X17215000Y-11415000D01*
X17215000Y-11385000D02*
X17185000Y-11415000D01*
X17210000Y-10785000D02*
X17240000Y-10815000D01*
X17240000Y-10785000D02*
X17210000Y-10815000D01*
X17285000Y-11585000D02*
X17315000Y-11615000D01*
X17315000Y-11585000D02*
X17285000Y-11615000D01*
X17293000Y-12785000D02*
X17323000Y-12815000D01*
X17323000Y-12785000D02*
X17293000Y-12815000D01*
X17294000Y-12050000D02*
X17324000Y-12080000D01*
X17324000Y-12050000D02*
X17294000Y-12080000D01*
X17585000Y-6660000D02*
X17615000Y-6690000D01*
X17615000Y-6660000D02*
X17585000Y-6690000D01*
X17585000Y-6910000D02*
X17615000Y-6940000D01*
X17615000Y-6910000D02*
X17585000Y-6940000D01*
X17585000Y-7159000D02*
X17615000Y-7189000D01*
X17615000Y-7159000D02*
X17585000Y-7189000D01*
X17585000Y-7409000D02*
X17615000Y-7439000D01*
X17615000Y-7409000D02*
X17585000Y-7439000D01*
X17585000Y-8160000D02*
X17615000Y-8190000D01*
X17615000Y-8160000D02*
X17585000Y-8190000D01*
X17585000Y-8460000D02*
X17615000Y-8490000D01*
X17615000Y-8460000D02*
X17585000Y-8490000D01*
X17585000Y-8709000D02*
X17615000Y-8739000D01*
X17615000Y-8709000D02*
X17585000Y-8739000D01*
X17585000Y-8959000D02*
X17615000Y-8989000D01*
X17615000Y-8959000D02*
X17585000Y-8989000D01*
X17585000Y-9209000D02*
X17615000Y-9239000D01*
X17615000Y-9209000D02*
X17585000Y-9239000D01*
X17585000Y-9459000D02*
X17615000Y-9489000D01*
X17615000Y-9459000D02*
X17585000Y-9489000D01*
X17685000Y-10010000D02*
X17715000Y-10040000D01*
X17715000Y-10010000D02*
X17685000Y-10040000D01*
X17860000Y-8148500D02*
X17890000Y-8178500D01*
X17890000Y-8148500D02*
X17860000Y-8178500D01*
X17935000Y-8028500D02*
X17965000Y-8058500D01*
X17965000Y-8028500D02*
X17935000Y-8058500D01*
X18110000Y-6285000D02*
X18140000Y-6315000D01*
X18140000Y-6285000D02*
X18110000Y-6315000D01*
X18190000Y-12212000D02*
X18220000Y-12242000D01*
X18220000Y-12212000D02*
X18190000Y-12242000D01*
X18385000Y-7910000D02*
X18415000Y-7940000D01*
X18415000Y-7910000D02*
X18385000Y-7940000D01*
X18385000Y-8260000D02*
X18415000Y-8290000D01*
X18415000Y-8260000D02*
X18385000Y-8290000D01*
X18406500Y-9185000D02*
X18436500Y-9215000D01*
X18436500Y-9185000D02*
X18406500Y-9215000D01*
X18492240Y-11014000D02*
X18522240Y-11044000D01*
X18522240Y-11014000D02*
X18492240Y-11044000D01*
X18635000Y-8410000D02*
X18665000Y-8440000D01*
X18665000Y-8410000D02*
X18635000Y-8440000D01*
X18660000Y-10960000D02*
X18690000Y-10990000D01*
X18690000Y-10960000D02*
X18660000Y-10990000D01*
X18685000Y-9175500D02*
X18715000Y-9205500D01*
X18715000Y-9175500D02*
X18685000Y-9205500D01*
X18860000Y-5910000D02*
X18890000Y-5940000D01*
X18890000Y-5910000D02*
X18860000Y-5940000D01*
X18887500Y-11832500D02*
X18917500Y-11862500D01*
X18917500Y-11832500D02*
X18887500Y-11862500D01*
X18890000Y-11739000D02*
X18920000Y-11769000D01*
X18920000Y-11739000D02*
X18890000Y-11769000D01*
X18910000Y-12460000D02*
X18940000Y-12490000D01*
X18940000Y-12460000D02*
X18910000Y-12490000D01*
X18985000Y-11014000D02*
X19015000Y-11044000D01*
X19015000Y-11014000D02*
X18985000Y-11044000D01*
X19114000Y-7760000D02*
X19144000Y-7790000D01*
X19144000Y-7760000D02*
X19114000Y-7790000D01*
X19185000Y-10912000D02*
X19215000Y-10942000D01*
X19215000Y-10912000D02*
X19185000Y-10942000D01*
X19185000Y-11008000D02*
X19215000Y-11038000D01*
X19215000Y-11008000D02*
X19185000Y-11038000D01*
X19210000Y-7760000D02*
X19240000Y-7790000D01*
X19240000Y-7760000D02*
X19210000Y-7790000D01*
X19256500Y-9310000D02*
X19286500Y-9340000D01*
X19286500Y-9310000D02*
X19256500Y-9340000D01*
X19310000Y-8360000D02*
X19340000Y-8390000D01*
X19340000Y-8360000D02*
X19310000Y-8390000D01*
X19325000Y-7935000D02*
X19355000Y-7965000D01*
X19355000Y-7935000D02*
X19325000Y-7965000D01*
X19357500Y-8689000D02*
X19387500Y-8719000D01*
X19387500Y-8689000D02*
X19357500Y-8719000D01*
X19357500Y-8785000D02*
X19387500Y-8815000D01*
X19387500Y-8785000D02*
X19357500Y-8815000D01*
X19510000Y-6110000D02*
X19540000Y-6140000D01*
X19540000Y-6110000D02*
X19510000Y-6140000D01*
X19510000Y-6435000D02*
X19540000Y-6465000D01*
X19540000Y-6435000D02*
X19510000Y-6465000D01*
X19558500Y-8935000D02*
X19588500Y-8965000D01*
X19588500Y-8935000D02*
X19558500Y-8965000D01*
X19558500Y-9035000D02*
X19588500Y-9065000D01*
X19588500Y-9035000D02*
X19558500Y-9065000D01*
X13048000Y-4860000D02*
G75*
G02*
X12988000Y-4860000I-30000J0D01*
G01*
X12988000Y-4860000D02*
G75*
G02*
X13048000Y-4860000I30000J0D01*
G01*
X13048000Y-4890000D02*
X13048000Y-4830000D01*
X12988000Y-4830000D02*
G75*
G02*
X13048000Y-4830000I30000J0D01*
G01*
X12988000Y-4830000D02*
X12988000Y-4890000D01*
X12988000Y-4890000D02*
G75*
G03*
X13048000Y-4890000I30000J0D01*
G01*
X13048000Y-5278000D02*
G75*
G02*
X12988000Y-5278000I-30000J0D01*
G01*
X12988000Y-5278000D02*
G75*
G02*
X13048000Y-5278000I30000J0D01*
G01*
X13048000Y-5333000D02*
X13048000Y-5223000D01*
X12988000Y-5223000D02*
G75*
G02*
X13048000Y-5223000I30000J0D01*
G01*
X12988000Y-5223000D02*
X12988000Y-5333000D01*
X12988000Y-5333000D02*
G75*
G03*
X13048000Y-5333000I30000J0D01*
G01*
X13912000Y-4860000D02*
G75*
G02*
X13852000Y-4860000I-30000J0D01*
G01*
X13852000Y-4860000D02*
G75*
G02*
X13912000Y-4860000I30000J0D01*
G01*
X13912000Y-4890000D02*
X13912000Y-4830000D01*
X13852000Y-4830000D02*
G75*
G02*
X13912000Y-4830000I30000J0D01*
G01*
X13852000Y-4830000D02*
X13852000Y-4890000D01*
X13852000Y-4890000D02*
G75*
G03*
X13912000Y-4890000I30000J0D01*
G01*
X13912000Y-5278000D02*
G75*
G02*
X13852000Y-5278000I-30000J0D01*
G01*
X13852000Y-5278000D02*
G75*
G02*
X13912000Y-5278000I30000J0D01*
G01*
X13912000Y-5333000D02*
X13912000Y-5223000D01*
X13852000Y-5223000D02*
G75*
G02*
X13912000Y-5223000I30000J0D01*
G01*
X13852000Y-5223000D02*
X13852000Y-5333000D01*
X13852000Y-5333000D02*
G75*
G03*
X13912000Y-5333000I30000J0D01*
G01*
X7980000Y-6660000D02*
X7980000Y-6740000D01*
X7940000Y-6700000D02*
X8020000Y-6700000D01*
X7980000Y-8010000D02*
X7980000Y-8090000D01*
X7940000Y-8050000D02*
X8020000Y-8050000D01*
X7980000Y-8422000D02*
X7980000Y-8502000D01*
X7940000Y-8462000D02*
X8020000Y-8462000D01*
X7980000Y-9772000D02*
X7980000Y-9852000D01*
X7940000Y-9812000D02*
X8020000Y-9812000D01*
X8234000Y-6660000D02*
X8234000Y-6740000D01*
X8194000Y-6700000D02*
X8274000Y-6700000D01*
X8234000Y-8010000D02*
X8234000Y-8090000D01*
X8194000Y-8050000D02*
X8274000Y-8050000D01*
X8234000Y-8422000D02*
X8234000Y-8502000D01*
X8194000Y-8462000D02*
X8274000Y-8462000D01*
X8234000Y-9772000D02*
X8234000Y-9852000D01*
X8194000Y-9812000D02*
X8274000Y-9812000D01*
X8488000Y-6660000D02*
X8488000Y-6740000D01*
X8448000Y-6700000D02*
X8528000Y-6700000D01*
X8488000Y-8010000D02*
X8488000Y-8090000D01*
X8448000Y-8050000D02*
X8528000Y-8050000D01*
X8488000Y-8422000D02*
X8488000Y-8502000D01*
X8448000Y-8462000D02*
X8528000Y-8462000D01*
X8488000Y-9772000D02*
X8488000Y-9852000D01*
X8448000Y-9812000D02*
X8528000Y-9812000D01*
X8742000Y-6660000D02*
X8742000Y-6740000D01*
X8702000Y-6700000D02*
X8782000Y-6700000D01*
X8742000Y-8010000D02*
X8742000Y-8090000D01*
X8702000Y-8050000D02*
X8782000Y-8050000D01*
X8742000Y-8422000D02*
X8742000Y-8502000D01*
X8702000Y-8462000D02*
X8782000Y-8462000D01*
X8742000Y-9772000D02*
X8742000Y-9852000D01*
X8702000Y-9812000D02*
X8782000Y-9812000D01*
X8996000Y-6660000D02*
X8996000Y-6740000D01*
X8956000Y-6700000D02*
X9036000Y-6700000D01*
X8996000Y-8010000D02*
X8996000Y-8090000D01*
X8956000Y-8050000D02*
X9036000Y-8050000D01*
X8996000Y-8422000D02*
X8996000Y-8502000D01*
X8956000Y-8462000D02*
X9036000Y-8462000D01*
X8996000Y-9772000D02*
X8996000Y-9852000D01*
X8956000Y-9812000D02*
X9036000Y-9812000D01*
X9250000Y-6660000D02*
X9250000Y-6740000D01*
X9210000Y-6700000D02*
X9290000Y-6700000D01*
X9250000Y-8010000D02*
X9250000Y-8090000D01*
X9210000Y-8050000D02*
X9290000Y-8050000D01*
X9250000Y-8422000D02*
X9250000Y-8502000D01*
X9210000Y-8462000D02*
X9290000Y-8462000D01*
X9250000Y-9772000D02*
X9250000Y-9852000D01*
X9210000Y-9812000D02*
X9290000Y-9812000D01*
X9504000Y-6660000D02*
X9504000Y-6740000D01*
X9464000Y-6700000D02*
X9544000Y-6700000D01*
X9504000Y-8010000D02*
X9504000Y-8090000D01*
X9464000Y-8050000D02*
X9544000Y-8050000D01*
X9504000Y-8422000D02*
X9504000Y-8502000D01*
X9464000Y-8462000D02*
X9544000Y-8462000D01*
X9504000Y-9772000D02*
X9504000Y-9852000D01*
X9464000Y-9812000D02*
X9544000Y-9812000D01*
X9758000Y-6660000D02*
X9758000Y-6740000D01*
X9718000Y-6700000D02*
X9798000Y-6700000D01*
X9758000Y-8010000D02*
X9758000Y-8090000D01*
X9718000Y-8050000D02*
X9798000Y-8050000D01*
X9758000Y-8422000D02*
X9758000Y-8502000D01*
X9718000Y-8462000D02*
X9798000Y-8462000D01*
X9758000Y-9772000D02*
X9758000Y-9852000D01*
X9718000Y-9812000D02*
X9798000Y-9812000D01*
X13246000Y-12274000D02*
X13246000Y-12354000D01*
X13206000Y-12314000D02*
X13286000Y-12314000D01*
X13246000Y-13036000D02*
X13246000Y-13116000D01*
X13206000Y-13076000D02*
X13286000Y-13076000D01*
X13500000Y-12274000D02*
X13500000Y-12354000D01*
X13460000Y-12314000D02*
X13540000Y-12314000D01*
X13500000Y-13036000D02*
X13500000Y-13116000D01*
X13460000Y-13076000D02*
X13540000Y-13076000D01*
X13754000Y-12274000D02*
X13754000Y-12354000D01*
X13714000Y-12314000D02*
X13794000Y-12314000D01*
X13754000Y-13036000D02*
X13754000Y-13116000D01*
X13714000Y-13076000D02*
X13794000Y-13076000D01*
X14008000Y-12274000D02*
X14008000Y-12354000D01*
X13968000Y-12314000D02*
X14048000Y-12314000D01*
X14008000Y-13036000D02*
X14008000Y-13116000D01*
X13968000Y-13076000D02*
X14048000Y-13076000D01*
X14262000Y-12274000D02*
X14262000Y-12354000D01*
X14222000Y-12314000D02*
X14302000Y-12314000D01*
X14262000Y-13036000D02*
X14262000Y-13116000D01*
X14222000Y-13076000D02*
X14302000Y-13076000D01*
X14516000Y-12274000D02*
X14516000Y-12354000D01*
X14476000Y-12314000D02*
X14556000Y-12314000D01*
X14516000Y-13036000D02*
X14516000Y-13116000D01*
X14476000Y-13076000D02*
X14556000Y-13076000D01*
X14770000Y-12274000D02*
X14770000Y-12354000D01*
X14730000Y-12314000D02*
X14810000Y-12314000D01*
X14770000Y-13036000D02*
X14770000Y-13116000D01*
X14730000Y-13076000D02*
X14810000Y-13076000D01*
X15024000Y-12274000D02*
X15024000Y-12354000D01*
X14984000Y-12314000D02*
X15064000Y-12314000D01*
X15024000Y-13036000D02*
X15024000Y-13116000D01*
X14984000Y-13076000D02*
X15064000Y-13076000D01*
X15532000Y-12274000D02*
X15532000Y-12354000D01*
X15492000Y-12314000D02*
X15572000Y-12314000D01*
X15532000Y-13036000D02*
X15532000Y-13116000D01*
X15492000Y-13076000D02*
X15572000Y-13076000D01*
X15786000Y-12274000D02*
X15786000Y-12354000D01*
X15746000Y-12314000D02*
X15826000Y-12314000D01*
X15786000Y-13036000D02*
X15786000Y-13116000D01*
X15746000Y-13076000D02*
X15826000Y-13076000D01*
X16040000Y-12274000D02*
X16040000Y-12354000D01*
X16000000Y-12314000D02*
X16080000Y-12314000D01*
X16040000Y-13036000D02*
X16040000Y-13116000D01*
X16000000Y-13076000D02*
X16080000Y-13076000D01*
X16294000Y-12274000D02*
X16294000Y-12354000D01*
X16254000Y-12314000D02*
X16334000Y-12314000D01*
X16294000Y-13036000D02*
X16294000Y-13116000D01*
X16254000Y-13076000D02*
X16334000Y-13076000D01*
X16548000Y-12274000D02*
X16548000Y-12354000D01*
X16508000Y-12314000D02*
X16588000Y-12314000D01*
X16548000Y-13036000D02*
X16548000Y-13116000D01*
X16508000Y-13076000D02*
X16588000Y-13076000D01*
X16802000Y-12274000D02*
X16802000Y-12354000D01*
X16762000Y-12314000D02*
X16842000Y-12314000D01*
X16802000Y-13036000D02*
X16802000Y-13116000D01*
X16762000Y-13076000D02*
X16842000Y-13076000D01*
X17056000Y-12274000D02*
X17056000Y-12354000D01*
X17016000Y-12314000D02*
X17096000Y-12314000D01*
X17056000Y-13036000D02*
X17056000Y-13116000D01*
X17016000Y-13076000D02*
X17096000Y-13076000D01*
X17310000Y-12274000D02*
X17310000Y-12354000D01*
X17270000Y-12314000D02*
X17350000Y-12314000D01*
X17310000Y-13036000D02*
X17310000Y-13116000D01*
X17270000Y-13076000D02*
X17350000Y-13076000D01*
X12043356Y-5669856D02*
X12043356Y-5599144D01*
X11972644Y-5599144D01*
X11972644Y-5669856D01*
X12043356Y-5669856D01*
X12043356Y-5923856D02*
X12043356Y-5853144D01*
X11972644Y-5853144D01*
X11972644Y-5923856D01*
X12043356Y-5923856D01*
X12735356Y-11681356D02*
X12735356Y-11610644D01*
X12664644Y-11610644D01*
X12664644Y-11681356D01*
X12735356Y-11681356D01*
X12735356Y-11935356D02*
X12735356Y-11864644D01*
X12664644Y-11864644D01*
X12664644Y-11935356D01*
X12735356Y-11935356D01*
X13423356Y-10110356D02*
X13423356Y-10039644D01*
X13352644Y-10039644D01*
X13352644Y-10110356D01*
X13423356Y-10110356D01*
X13677356Y-10110356D02*
X13677356Y-10039644D01*
X13606644Y-10039644D01*
X13606644Y-10110356D01*
X13677356Y-10110356D01*
X13931356Y-10110356D02*
X13931356Y-10039644D01*
X13860644Y-10039644D01*
X13860644Y-10110356D01*
X13931356Y-10110356D01*
X14185356Y-10110356D02*
X14185356Y-10039644D01*
X14114644Y-10039644D01*
X14114644Y-10110356D01*
X14185356Y-10110356D01*
X14439356Y-10110356D02*
X14439356Y-10039644D01*
X14368644Y-10039644D01*
X14368644Y-10110356D01*
X14439356Y-10110356D01*
X14693356Y-10110356D02*
X14693356Y-10039644D01*
X14622644Y-10039644D01*
X14622644Y-10110356D01*
X14693356Y-10110356D01*
X14947356Y-10110356D02*
X14947356Y-10039644D01*
X14876644Y-10039644D01*
X14876644Y-10110356D01*
X14947356Y-10110356D01*
X15131356Y-7035356D02*
X15131356Y-6964644D01*
X15060644Y-6964644D01*
X15060644Y-7035356D01*
X15131356Y-7035356D01*
X15131356Y-7289356D02*
X15131356Y-7218644D01*
X15060644Y-7218644D01*
X15060644Y-7289356D01*
X15131356Y-7289356D01*
X15201356Y-10110356D02*
X15201356Y-10039644D01*
X15130644Y-10039644D01*
X15130644Y-10110356D01*
X15201356Y-10110356D01*
X15385356Y-7035356D02*
X15385356Y-6964644D01*
X15314644Y-6964644D01*
X15314644Y-7035356D01*
X15385356Y-7035356D01*
X15385356Y-7289356D02*
X15385356Y-7218644D01*
X15314644Y-7218644D01*
X15314644Y-7289356D01*
X15385356Y-7289356D01*
X15455356Y-10110356D02*
X15455356Y-10039644D01*
X15384644Y-10039644D01*
X15384644Y-10110356D01*
X15455356Y-10110356D01*
X15639356Y-7035356D02*
X15639356Y-6964644D01*
X15568644Y-6964644D01*
X15568644Y-7035356D01*
X15639356Y-7035356D01*
X15639356Y-7289356D02*
X15639356Y-7218644D01*
X15568644Y-7218644D01*
X15568644Y-7289356D01*
X15639356Y-7289356D01*
X15709356Y-10110356D02*
X15709356Y-10039644D01*
X15638644Y-10039644D01*
X15638644Y-10110356D01*
X15709356Y-10110356D01*
X15893356Y-7035356D02*
X15893356Y-6964644D01*
X15822644Y-6964644D01*
X15822644Y-7035356D01*
X15893356Y-7035356D01*
X15893356Y-7289356D02*
X15893356Y-7218644D01*
X15822644Y-7218644D01*
X15822644Y-7289356D01*
X15893356Y-7289356D01*
X15963356Y-10110356D02*
X15963356Y-10039644D01*
X15892644Y-10039644D01*
X15892644Y-10110356D01*
X15963356Y-10110356D01*
X16217356Y-10110356D02*
X16217356Y-10039644D01*
X16146644Y-10039644D01*
X16146644Y-10110356D01*
X16217356Y-10110356D01*
X16471356Y-10110356D02*
X16471356Y-10039644D01*
X16400644Y-10039644D01*
X16400644Y-10110356D01*
X16471356Y-10110356D01*
X16725356Y-10110356D02*
X16725356Y-10039644D01*
X16654644Y-10039644D01*
X16654644Y-10110356D01*
X16725356Y-10110356D01*
X16979356Y-10110356D02*
X16979356Y-10039644D01*
X16908644Y-10039644D01*
X16908644Y-10110356D01*
X16979356Y-10110356D01*
X17135356Y-5820356D02*
X17135356Y-5749644D01*
X17064644Y-5749644D01*
X17064644Y-5820356D01*
X17135356Y-5820356D01*
X17135356Y-6074356D02*
X17135356Y-6003644D01*
X17064644Y-6003644D01*
X17064644Y-6074356D01*
X17135356Y-6074356D01*
X17135356Y-6328356D02*
X17135356Y-6257644D01*
X17064644Y-6257644D01*
X17064644Y-6328356D01*
X17135356Y-6328356D01*
X17135356Y-6582356D02*
X17135356Y-6511644D01*
X17064644Y-6511644D01*
X17064644Y-6582356D01*
X17135356Y-6582356D01*
X17135356Y-6836356D02*
X17135356Y-6765644D01*
X17064644Y-6765644D01*
X17064644Y-6836356D01*
X17135356Y-6836356D01*
X17135356Y-7090356D02*
X17135356Y-7019644D01*
X17064644Y-7019644D01*
X17064644Y-7090356D01*
X17135356Y-7090356D01*
X17135356Y-7344356D02*
X17135356Y-7273644D01*
X17064644Y-7273644D01*
X17064644Y-7344356D01*
X17135356Y-7344356D01*
X17135356Y-7598356D02*
X17135356Y-7527644D01*
X17064644Y-7527644D01*
X17064644Y-7598356D01*
X17135356Y-7598356D01*
X17135356Y-7852356D02*
X17135356Y-7781644D01*
X17064644Y-7781644D01*
X17064644Y-7852356D01*
X17135356Y-7852356D01*
X17135356Y-8106356D02*
X17135356Y-8035644D01*
X17064644Y-8035644D01*
X17064644Y-8106356D01*
X17135356Y-8106356D01*
X17135356Y-8360356D02*
X17135356Y-8289644D01*
X17064644Y-8289644D01*
X17064644Y-8360356D01*
X17135356Y-8360356D01*
X17135356Y-8614356D02*
X17135356Y-8543644D01*
X17064644Y-8543644D01*
X17064644Y-8614356D01*
X17135356Y-8614356D01*
X17135356Y-8868356D02*
X17135356Y-8797644D01*
X17064644Y-8797644D01*
X17064644Y-8868356D01*
X17135356Y-8868356D01*
X17135356Y-9122356D02*
X17135356Y-9051644D01*
X17064644Y-9051644D01*
X17064644Y-9122356D01*
X17135356Y-9122356D01*
X17135356Y-9376356D02*
X17135356Y-9305644D01*
X17064644Y-9305644D01*
X17064644Y-9376356D01*
X17135356Y-9376356D01*
X17135356Y-9630356D02*
X17135356Y-9559644D01*
X17064644Y-9559644D01*
X17064644Y-9630356D01*
X17135356Y-9630356D01*
X17233356Y-10110356D02*
X17233356Y-10039644D01*
X17162644Y-10039644D01*
X17162644Y-10110356D01*
X17233356Y-10110356D01*
X17389356Y-5820356D02*
X17389356Y-5749644D01*
X17318644Y-5749644D01*
X17318644Y-5820356D01*
X17389356Y-5820356D01*
X17389356Y-6074356D02*
X17389356Y-6003644D01*
X17318644Y-6003644D01*
X17318644Y-6074356D01*
X17389356Y-6074356D01*
X17389356Y-6328356D02*
X17389356Y-6257644D01*
X17318644Y-6257644D01*
X17318644Y-6328356D01*
X17389356Y-6328356D01*
X17389356Y-6582356D02*
X17389356Y-6511644D01*
X17318644Y-6511644D01*
X17318644Y-6582356D01*
X17389356Y-6582356D01*
X17389356Y-6836356D02*
X17389356Y-6765644D01*
X17318644Y-6765644D01*
X17318644Y-6836356D01*
X17389356Y-6836356D01*
X17389356Y-7090356D02*
X17389356Y-7019644D01*
X17318644Y-7019644D01*
X17318644Y-7090356D01*
X17389356Y-7090356D01*
X17389356Y-7344356D02*
X17389356Y-7273644D01*
X17318644Y-7273644D01*
X17318644Y-7344356D01*
X17389356Y-7344356D01*
X17389356Y-7598356D02*
X17389356Y-7527644D01*
X17318644Y-7527644D01*
X17318644Y-7598356D01*
X17389356Y-7598356D01*
X17389356Y-7852356D02*
X17389356Y-7781644D01*
X17318644Y-7781644D01*
X17318644Y-7852356D01*
X17389356Y-7852356D01*
X17389356Y-8106356D02*
X17389356Y-8035644D01*
X17318644Y-8035644D01*
X17318644Y-8106356D01*
X17389356Y-8106356D01*
X17389356Y-8360356D02*
X17389356Y-8289644D01*
X17318644Y-8289644D01*
X17318644Y-8360356D01*
X17389356Y-8360356D01*
X17389356Y-8614356D02*
X17389356Y-8543644D01*
X17318644Y-8543644D01*
X17318644Y-8614356D01*
X17389356Y-8614356D01*
X17389356Y-8868356D02*
X17389356Y-8797644D01*
X17318644Y-8797644D01*
X17318644Y-8868356D01*
X17389356Y-8868356D01*
X17389356Y-9122356D02*
X17389356Y-9051644D01*
X17318644Y-9051644D01*
X17318644Y-9122356D01*
X17389356Y-9122356D01*
X17389356Y-9376356D02*
X17389356Y-9305644D01*
X17318644Y-9305644D01*
X17318644Y-9376356D01*
X17389356Y-9376356D01*
X17389356Y-9630356D02*
X17389356Y-9559644D01*
X17318644Y-9559644D01*
X17318644Y-9630356D01*
X17389356Y-9630356D01*
X18681356Y-7035356D02*
X18681356Y-6964644D01*
X18610644Y-6964644D01*
X18610644Y-7035356D01*
X18681356Y-7035356D01*
X18681356Y-7289356D02*
X18681356Y-7218644D01*
X18610644Y-7218644D01*
X18610644Y-7289356D01*
X18681356Y-7289356D01*
X18681356Y-9807856D02*
X18681356Y-9737144D01*
X18610644Y-9737144D01*
X18610644Y-9807856D01*
X18681356Y-9807856D01*
X18681356Y-10061856D02*
X18681356Y-9991144D01*
X18610644Y-9991144D01*
X18610644Y-10061856D01*
X18681356Y-10061856D01*
X18935356Y-7035356D02*
X18935356Y-6964644D01*
X18864644Y-6964644D01*
X18864644Y-7035356D01*
X18935356Y-7035356D01*
X18935356Y-7289356D02*
X18935356Y-7218644D01*
X18864644Y-7218644D01*
X18864644Y-7289356D01*
X18935356Y-7289356D01*
X18935356Y-9807856D02*
X18935356Y-9737144D01*
X18864644Y-9737144D01*
X18864644Y-9807856D01*
X18935356Y-9807856D01*
X18935356Y-10061856D02*
X18935356Y-9991144D01*
X18864644Y-9991144D01*
X18864644Y-10061856D01*
X18935356Y-10061856D01*
X19510356Y-11727356D02*
X19510356Y-11656644D01*
X19439644Y-11656644D01*
X19439644Y-11727356D01*
X19510356Y-11727356D01*
X19510356Y-11981356D02*
X19510356Y-11910644D01*
X19439644Y-11910644D01*
X19439644Y-11981356D01*
X19510356Y-11981356D01*
X19510356Y-12235356D02*
X19510356Y-12164644D01*
X19439644Y-12164644D01*
X19439644Y-12235356D01*
X19510356Y-12235356D01*
X19510356Y-12489356D02*
X19510356Y-12418644D01*
X19439644Y-12418644D01*
X19439644Y-12489356D01*
X19510356Y-12489356D01*
D13*
X7900000Y-11704610D02*
X7954610Y-11650000D01*
X7900000Y-11595390D01*
X7845390Y-11650000D01*
X7900000Y-11704610D01*
X7900000Y-12204610D02*
X7954610Y-12150000D01*
X7900000Y-12095390D01*
X7845390Y-12150000D01*
X7900000Y-12204610D01*
X8400000Y-11704610D02*
X8454610Y-11650000D01*
X8400000Y-11595390D01*
X8345390Y-11650000D01*
X8400000Y-11704610D01*
X8400000Y-12204610D02*
X8454610Y-12150000D01*
X8400000Y-12095390D01*
X8345390Y-12150000D01*
X8400000Y-12204610D01*
X9900000Y-11704610D02*
X9954610Y-11650000D01*
X9900000Y-11595390D01*
X9845390Y-11650000D01*
X9900000Y-11704610D01*
X9900000Y-12204610D02*
X9954610Y-12150000D01*
X9900000Y-12095390D01*
X9845390Y-12150000D01*
X9900000Y-12204610D01*
X10400000Y-11704610D02*
X10454610Y-11650000D01*
X10400000Y-11595390D01*
X10345390Y-11650000D01*
X10400000Y-11704610D01*
X10400000Y-12204610D02*
X10454610Y-12150000D01*
X10400000Y-12095390D01*
X10345390Y-12150000D01*
X10400000Y-12204610D01*
D11*
X5640277Y-14453984D02*
X5640277Y-14253984D01*
X5640277Y-14253984D02*
X5687896Y-14253984D01*
X5687896Y-14253984D02*
X5716467Y-14263508D01*
X5716467Y-14263508D02*
X5735515Y-14282555D01*
X5735515Y-14282555D02*
X5745039Y-14301603D01*
X5745039Y-14301603D02*
X5754562Y-14339698D01*
X5754562Y-14339698D02*
X5754562Y-14368269D01*
X5754562Y-14368269D02*
X5745039Y-14406365D01*
X5745039Y-14406365D02*
X5735515Y-14425412D01*
X5735515Y-14425412D02*
X5716467Y-14444460D01*
X5716467Y-14444460D02*
X5687896Y-14453984D01*
X5687896Y-14453984D02*
X5640277Y-14453984D01*
X5840277Y-14453984D02*
X5840277Y-14320650D01*
X5840277Y-14358746D02*
X5849801Y-14339698D01*
X5849801Y-14339698D02*
X5859324Y-14330174D01*
X5859324Y-14330174D02*
X5878372Y-14320650D01*
X5878372Y-14320650D02*
X5897420Y-14320650D01*
X5964086Y-14453984D02*
X5964086Y-14320650D01*
X5964086Y-14253984D02*
X5954562Y-14263508D01*
X5954562Y-14263508D02*
X5964086Y-14273031D01*
X5964086Y-14273031D02*
X5973610Y-14263508D01*
X5973610Y-14263508D02*
X5964086Y-14253984D01*
X5964086Y-14253984D02*
X5964086Y-14273031D01*
X6087896Y-14453984D02*
X6068848Y-14444460D01*
X6068848Y-14444460D02*
X6059324Y-14425412D01*
X6059324Y-14425412D02*
X6059324Y-14253984D01*
X6192658Y-14453984D02*
X6173610Y-14444460D01*
X6173610Y-14444460D02*
X6164086Y-14425412D01*
X6164086Y-14425412D02*
X6164086Y-14253984D01*
X6421229Y-14453984D02*
X6421229Y-14253984D01*
X6421229Y-14253984D02*
X6487896Y-14396841D01*
X6487896Y-14396841D02*
X6554562Y-14253984D01*
X6554562Y-14253984D02*
X6554562Y-14453984D01*
X6735515Y-14453984D02*
X6735515Y-14349222D01*
X6735515Y-14349222D02*
X6725991Y-14330174D01*
X6725991Y-14330174D02*
X6706943Y-14320650D01*
X6706943Y-14320650D02*
X6668848Y-14320650D01*
X6668848Y-14320650D02*
X6649801Y-14330174D01*
X6735515Y-14444460D02*
X6716467Y-14453984D01*
X6716467Y-14453984D02*
X6668848Y-14453984D01*
X6668848Y-14453984D02*
X6649801Y-14444460D01*
X6649801Y-14444460D02*
X6640277Y-14425412D01*
X6640277Y-14425412D02*
X6640277Y-14406365D01*
X6640277Y-14406365D02*
X6649801Y-14387317D01*
X6649801Y-14387317D02*
X6668848Y-14377793D01*
X6668848Y-14377793D02*
X6716467Y-14377793D01*
X6716467Y-14377793D02*
X6735515Y-14368269D01*
X6830753Y-14320650D02*
X6830753Y-14520650D01*
X6830753Y-14330174D02*
X6849801Y-14320650D01*
X6849801Y-14320650D02*
X6887896Y-14320650D01*
X6887896Y-14320650D02*
X6906943Y-14330174D01*
X6906943Y-14330174D02*
X6916467Y-14339698D01*
X6916467Y-14339698D02*
X6925991Y-14358746D01*
X6925991Y-14358746D02*
X6925991Y-14415888D01*
X6925991Y-14415888D02*
X6916467Y-14434936D01*
X6916467Y-14434936D02*
X6906943Y-14444460D01*
X6906943Y-14444460D02*
X6887896Y-14453984D01*
X6887896Y-14453984D02*
X6849801Y-14453984D01*
X6849801Y-14453984D02*
X6830753Y-14444460D01*
X7011705Y-14434936D02*
X7021229Y-14444460D01*
X7021229Y-14444460D02*
X7011705Y-14453984D01*
X7011705Y-14453984D02*
X7002182Y-14444460D01*
X7002182Y-14444460D02*
X7011705Y-14434936D01*
X7011705Y-14434936D02*
X7011705Y-14453984D01*
X7011705Y-14330174D02*
X7021229Y-14339698D01*
X7021229Y-14339698D02*
X7011705Y-14349222D01*
X7011705Y-14349222D02*
X7002182Y-14339698D01*
X7002182Y-14339698D02*
X7011705Y-14330174D01*
X7011705Y-14330174D02*
X7011705Y-14349222D01*
D12*
X5349500Y-14767500D02*
X5379500Y-14797500D01*
X5379500Y-14767500D02*
X5349500Y-14797500D01*
D11*
X5678372Y-14673984D02*
X5697420Y-14673984D01*
X5697420Y-14673984D02*
X5716467Y-14683508D01*
X5716467Y-14683508D02*
X5725991Y-14693031D01*
X5725991Y-14693031D02*
X5735515Y-14712079D01*
X5735515Y-14712079D02*
X5745039Y-14750174D01*
X5745039Y-14750174D02*
X5745039Y-14797793D01*
X5745039Y-14797793D02*
X5735515Y-14835888D01*
X5735515Y-14835888D02*
X5725991Y-14854936D01*
X5725991Y-14854936D02*
X5716467Y-14864460D01*
X5716467Y-14864460D02*
X5697420Y-14873984D01*
X5697420Y-14873984D02*
X5678372Y-14873984D01*
X5678372Y-14873984D02*
X5659324Y-14864460D01*
X5659324Y-14864460D02*
X5649801Y-14854936D01*
X5649801Y-14854936D02*
X5640277Y-14835888D01*
X5640277Y-14835888D02*
X5630753Y-14797793D01*
X5630753Y-14797793D02*
X5630753Y-14750174D01*
X5630753Y-14750174D02*
X5640277Y-14712079D01*
X5640277Y-14712079D02*
X5649801Y-14693031D01*
X5649801Y-14693031D02*
X5659324Y-14683508D01*
X5659324Y-14683508D02*
X5678372Y-14673984D01*
X5830753Y-14854936D02*
X5840277Y-14864460D01*
X5840277Y-14864460D02*
X5830753Y-14873984D01*
X5830753Y-14873984D02*
X5821229Y-14864460D01*
X5821229Y-14864460D02*
X5830753Y-14854936D01*
X5830753Y-14854936D02*
X5830753Y-14873984D01*
X5906943Y-14673984D02*
X6030753Y-14673984D01*
X6030753Y-14673984D02*
X5964086Y-14750174D01*
X5964086Y-14750174D02*
X5992658Y-14750174D01*
X5992658Y-14750174D02*
X6011705Y-14759698D01*
X6011705Y-14759698D02*
X6021229Y-14769222D01*
X6021229Y-14769222D02*
X6030753Y-14788269D01*
X6030753Y-14788269D02*
X6030753Y-14835888D01*
X6030753Y-14835888D02*
X6021229Y-14854936D01*
X6021229Y-14854936D02*
X6011705Y-14864460D01*
X6011705Y-14864460D02*
X5992658Y-14873984D01*
X5992658Y-14873984D02*
X5935515Y-14873984D01*
X5935515Y-14873984D02*
X5916467Y-14864460D01*
X5916467Y-14864460D02*
X5906943Y-14854936D01*
X6154562Y-14673984D02*
X6173610Y-14673984D01*
X6173610Y-14673984D02*
X6192658Y-14683508D01*
X6192658Y-14683508D02*
X6202182Y-14693031D01*
X6202182Y-14693031D02*
X6211705Y-14712079D01*
X6211705Y-14712079D02*
X6221229Y-14750174D01*
X6221229Y-14750174D02*
X6221229Y-14797793D01*
X6221229Y-14797793D02*
X6211705Y-14835888D01*
X6211705Y-14835888D02*
X6202182Y-14854936D01*
X6202182Y-14854936D02*
X6192658Y-14864460D01*
X6192658Y-14864460D02*
X6173610Y-14873984D01*
X6173610Y-14873984D02*
X6154562Y-14873984D01*
X6154562Y-14873984D02*
X6135515Y-14864460D01*
X6135515Y-14864460D02*
X6125991Y-14854936D01*
X6125991Y-14854936D02*
X6116467Y-14835888D01*
X6116467Y-14835888D02*
X6106943Y-14797793D01*
X6106943Y-14797793D02*
X6106943Y-14750174D01*
X6106943Y-14750174D02*
X6116467Y-14712079D01*
X6116467Y-14712079D02*
X6125991Y-14693031D01*
X6125991Y-14693031D02*
X6135515Y-14683508D01*
X6135515Y-14683508D02*
X6154562Y-14673984D01*
X6345039Y-14673984D02*
X6364086Y-14673984D01*
X6364086Y-14673984D02*
X6383134Y-14683508D01*
X6383134Y-14683508D02*
X6392658Y-14693031D01*
X6392658Y-14693031D02*
X6402182Y-14712079D01*
X6402182Y-14712079D02*
X6411705Y-14750174D01*
X6411705Y-14750174D02*
X6411705Y-14797793D01*
X6411705Y-14797793D02*
X6402182Y-14835888D01*
X6402182Y-14835888D02*
X6392658Y-14854936D01*
X6392658Y-14854936D02*
X6383134Y-14864460D01*
X6383134Y-14864460D02*
X6364086Y-14873984D01*
X6364086Y-14873984D02*
X6345039Y-14873984D01*
X6345039Y-14873984D02*
X6325991Y-14864460D01*
X6325991Y-14864460D02*
X6316467Y-14854936D01*
X6316467Y-14854936D02*
X6306943Y-14835888D01*
X6306943Y-14835888D02*
X6297420Y-14797793D01*
X6297420Y-14797793D02*
X6297420Y-14750174D01*
X6297420Y-14750174D02*
X6306943Y-14712079D01*
X6306943Y-14712079D02*
X6316467Y-14693031D01*
X6316467Y-14693031D02*
X6325991Y-14683508D01*
X6325991Y-14683508D02*
X6345039Y-14673984D01*
X6497420Y-14873984D02*
X6497420Y-14740650D01*
X6497420Y-14759698D02*
X6506943Y-14750174D01*
X6506943Y-14750174D02*
X6525991Y-14740650D01*
X6525991Y-14740650D02*
X6554563Y-14740650D01*
X6554563Y-14740650D02*
X6573610Y-14750174D01*
X6573610Y-14750174D02*
X6583134Y-14769222D01*
X6583134Y-14769222D02*
X6583134Y-14873984D01*
X6583134Y-14769222D02*
X6592658Y-14750174D01*
X6592658Y-14750174D02*
X6611705Y-14740650D01*
X6611705Y-14740650D02*
X6640277Y-14740650D01*
X6640277Y-14740650D02*
X6659324Y-14750174D01*
X6659324Y-14750174D02*
X6668848Y-14769222D01*
X6668848Y-14769222D02*
X6668848Y-14873984D01*
X6764086Y-14873984D02*
X6764086Y-14740650D01*
X6764086Y-14759698D02*
X6773610Y-14750174D01*
X6773610Y-14750174D02*
X6792658Y-14740650D01*
X6792658Y-14740650D02*
X6821229Y-14740650D01*
X6821229Y-14740650D02*
X6840277Y-14750174D01*
X6840277Y-14750174D02*
X6849801Y-14769222D01*
X6849801Y-14769222D02*
X6849801Y-14873984D01*
X6849801Y-14769222D02*
X6859324Y-14750174D01*
X6859324Y-14750174D02*
X6878372Y-14740650D01*
X6878372Y-14740650D02*
X6906943Y-14740650D01*
X6906943Y-14740650D02*
X6925991Y-14750174D01*
X6925991Y-14750174D02*
X6935515Y-14769222D01*
X6935515Y-14769222D02*
X6935515Y-14873984D01*
X7325991Y-14664460D02*
X7154563Y-14921603D01*
X7583134Y-14673984D02*
X7602182Y-14673984D01*
X7602182Y-14673984D02*
X7621229Y-14683508D01*
X7621229Y-14683508D02*
X7630753Y-14693031D01*
X7630753Y-14693031D02*
X7640277Y-14712079D01*
X7640277Y-14712079D02*
X7649801Y-14750174D01*
X7649801Y-14750174D02*
X7649801Y-14797793D01*
X7649801Y-14797793D02*
X7640277Y-14835888D01*
X7640277Y-14835888D02*
X7630753Y-14854936D01*
X7630753Y-14854936D02*
X7621229Y-14864460D01*
X7621229Y-14864460D02*
X7602182Y-14873984D01*
X7602182Y-14873984D02*
X7583134Y-14873984D01*
X7583134Y-14873984D02*
X7564086Y-14864460D01*
X7564086Y-14864460D02*
X7554563Y-14854936D01*
X7554563Y-14854936D02*
X7545039Y-14835888D01*
X7545039Y-14835888D02*
X7535515Y-14797793D01*
X7535515Y-14797793D02*
X7535515Y-14750174D01*
X7535515Y-14750174D02*
X7545039Y-14712079D01*
X7545039Y-14712079D02*
X7554563Y-14693031D01*
X7554563Y-14693031D02*
X7564086Y-14683508D01*
X7564086Y-14683508D02*
X7583134Y-14673984D01*
X7735515Y-14854936D02*
X7745039Y-14864460D01*
X7745039Y-14864460D02*
X7735515Y-14873984D01*
X7735515Y-14873984D02*
X7725991Y-14864460D01*
X7725991Y-14864460D02*
X7735515Y-14854936D01*
X7735515Y-14854936D02*
X7735515Y-14873984D01*
X7868848Y-14673984D02*
X7887896Y-14673984D01*
X7887896Y-14673984D02*
X7906944Y-14683508D01*
X7906944Y-14683508D02*
X7916467Y-14693031D01*
X7916467Y-14693031D02*
X7925991Y-14712079D01*
X7925991Y-14712079D02*
X7935515Y-14750174D01*
X7935515Y-14750174D02*
X7935515Y-14797793D01*
X7935515Y-14797793D02*
X7925991Y-14835888D01*
X7925991Y-14835888D02*
X7916467Y-14854936D01*
X7916467Y-14854936D02*
X7906944Y-14864460D01*
X7906944Y-14864460D02*
X7887896Y-14873984D01*
X7887896Y-14873984D02*
X7868848Y-14873984D01*
X7868848Y-14873984D02*
X7849801Y-14864460D01*
X7849801Y-14864460D02*
X7840277Y-14854936D01*
X7840277Y-14854936D02*
X7830753Y-14835888D01*
X7830753Y-14835888D02*
X7821229Y-14797793D01*
X7821229Y-14797793D02*
X7821229Y-14750174D01*
X7821229Y-14750174D02*
X7830753Y-14712079D01*
X7830753Y-14712079D02*
X7840277Y-14693031D01*
X7840277Y-14693031D02*
X7849801Y-14683508D01*
X7849801Y-14683508D02*
X7868848Y-14673984D01*
X8125991Y-14873984D02*
X8011706Y-14873984D01*
X8068848Y-14873984D02*
X8068848Y-14673984D01*
X8068848Y-14673984D02*
X8049801Y-14702555D01*
X8049801Y-14702555D02*
X8030753Y-14721603D01*
X8030753Y-14721603D02*
X8011706Y-14731127D01*
X8316467Y-14873984D02*
X8202182Y-14873984D01*
X8259325Y-14873984D02*
X8259325Y-14673984D01*
X8259325Y-14673984D02*
X8240277Y-14702555D01*
X8240277Y-14702555D02*
X8221229Y-14721603D01*
X8221229Y-14721603D02*
X8202182Y-14731127D01*
X8430753Y-14759698D02*
X8411706Y-14750174D01*
X8411706Y-14750174D02*
X8402182Y-14740650D01*
X8402182Y-14740650D02*
X8392658Y-14721603D01*
X8392658Y-14721603D02*
X8392658Y-14712079D01*
X8392658Y-14712079D02*
X8402182Y-14693031D01*
X8402182Y-14693031D02*
X8411706Y-14683508D01*
X8411706Y-14683508D02*
X8430753Y-14673984D01*
X8430753Y-14673984D02*
X8468849Y-14673984D01*
X8468849Y-14673984D02*
X8487896Y-14683508D01*
X8487896Y-14683508D02*
X8497420Y-14693031D01*
X8497420Y-14693031D02*
X8506944Y-14712079D01*
X8506944Y-14712079D02*
X8506944Y-14721603D01*
X8506944Y-14721603D02*
X8497420Y-14740650D01*
X8497420Y-14740650D02*
X8487896Y-14750174D01*
X8487896Y-14750174D02*
X8468849Y-14759698D01*
X8468849Y-14759698D02*
X8430753Y-14759698D01*
X8430753Y-14759698D02*
X8411706Y-14769222D01*
X8411706Y-14769222D02*
X8402182Y-14778746D01*
X8402182Y-14778746D02*
X8392658Y-14797793D01*
X8392658Y-14797793D02*
X8392658Y-14835888D01*
X8392658Y-14835888D02*
X8402182Y-14854936D01*
X8402182Y-14854936D02*
X8411706Y-14864460D01*
X8411706Y-14864460D02*
X8430753Y-14873984D01*
X8430753Y-14873984D02*
X8468849Y-14873984D01*
X8468849Y-14873984D02*
X8487896Y-14864460D01*
X8487896Y-14864460D02*
X8497420Y-14854936D01*
X8497420Y-14854936D02*
X8506944Y-14835888D01*
X8506944Y-14835888D02*
X8506944Y-14797793D01*
X8506944Y-14797793D02*
X8497420Y-14778746D01*
X8497420Y-14778746D02*
X8487896Y-14769222D01*
X8487896Y-14769222D02*
X8468849Y-14759698D01*
X8583134Y-14673984D02*
X8583134Y-14712079D01*
X8659325Y-14673984D02*
X8659325Y-14712079D01*
X8954563Y-14950174D02*
X8945039Y-14940650D01*
X8945039Y-14940650D02*
X8925991Y-14912079D01*
X8925991Y-14912079D02*
X8916468Y-14893031D01*
X8916468Y-14893031D02*
X8906944Y-14864460D01*
X8906944Y-14864460D02*
X8897420Y-14816841D01*
X8897420Y-14816841D02*
X8897420Y-14778746D01*
X8897420Y-14778746D02*
X8906944Y-14731127D01*
X8906944Y-14731127D02*
X8916468Y-14702555D01*
X8916468Y-14702555D02*
X8925991Y-14683508D01*
X8925991Y-14683508D02*
X8945039Y-14654936D01*
X8945039Y-14654936D02*
X8954563Y-14645412D01*
X9116468Y-14740650D02*
X9116468Y-14873984D01*
X9068849Y-14664460D02*
X9021230Y-14807317D01*
X9021230Y-14807317D02*
X9145039Y-14807317D01*
X9306944Y-14673984D02*
X9268849Y-14673984D01*
X9268849Y-14673984D02*
X9249801Y-14683508D01*
X9249801Y-14683508D02*
X9240277Y-14693031D01*
X9240277Y-14693031D02*
X9221230Y-14721603D01*
X9221230Y-14721603D02*
X9211706Y-14759698D01*
X9211706Y-14759698D02*
X9211706Y-14835888D01*
X9211706Y-14835888D02*
X9221230Y-14854936D01*
X9221230Y-14854936D02*
X9230753Y-14864460D01*
X9230753Y-14864460D02*
X9249801Y-14873984D01*
X9249801Y-14873984D02*
X9287896Y-14873984D01*
X9287896Y-14873984D02*
X9306944Y-14864460D01*
X9306944Y-14864460D02*
X9316468Y-14854936D01*
X9316468Y-14854936D02*
X9325991Y-14835888D01*
X9325991Y-14835888D02*
X9325991Y-14788269D01*
X9325991Y-14788269D02*
X9316468Y-14769222D01*
X9316468Y-14769222D02*
X9306944Y-14759698D01*
X9306944Y-14759698D02*
X9287896Y-14750174D01*
X9287896Y-14750174D02*
X9249801Y-14750174D01*
X9249801Y-14750174D02*
X9230753Y-14759698D01*
X9230753Y-14759698D02*
X9221230Y-14769222D01*
X9221230Y-14769222D02*
X9211706Y-14788269D01*
X9421230Y-14873984D02*
X9459325Y-14873984D01*
X9459325Y-14873984D02*
X9478372Y-14864460D01*
X9478372Y-14864460D02*
X9487896Y-14854936D01*
X9487896Y-14854936D02*
X9506944Y-14826365D01*
X9506944Y-14826365D02*
X9516468Y-14788269D01*
X9516468Y-14788269D02*
X9516468Y-14712079D01*
X9516468Y-14712079D02*
X9506944Y-14693031D01*
X9506944Y-14693031D02*
X9497420Y-14683508D01*
X9497420Y-14683508D02*
X9478372Y-14673984D01*
X9478372Y-14673984D02*
X9440277Y-14673984D01*
X9440277Y-14673984D02*
X9421230Y-14683508D01*
X9421230Y-14683508D02*
X9411706Y-14693031D01*
X9411706Y-14693031D02*
X9402182Y-14712079D01*
X9402182Y-14712079D02*
X9402182Y-14759698D01*
X9402182Y-14759698D02*
X9411706Y-14778746D01*
X9411706Y-14778746D02*
X9421230Y-14788269D01*
X9421230Y-14788269D02*
X9440277Y-14797793D01*
X9440277Y-14797793D02*
X9478372Y-14797793D01*
X9478372Y-14797793D02*
X9497420Y-14788269D01*
X9497420Y-14788269D02*
X9506944Y-14778746D01*
X9506944Y-14778746D02*
X9516468Y-14759698D01*
X9754563Y-14873984D02*
X9754563Y-14673984D01*
X9840277Y-14873984D02*
X9840277Y-14769222D01*
X9840277Y-14769222D02*
X9830753Y-14750174D01*
X9830753Y-14750174D02*
X9811706Y-14740650D01*
X9811706Y-14740650D02*
X9783134Y-14740650D01*
X9783134Y-14740650D02*
X9764087Y-14750174D01*
X9764087Y-14750174D02*
X9754563Y-14759698D01*
X9964087Y-14873984D02*
X9945039Y-14864460D01*
X9945039Y-14864460D02*
X9935515Y-14854936D01*
X9935515Y-14854936D02*
X9925992Y-14835888D01*
X9925992Y-14835888D02*
X9925992Y-14778746D01*
X9925992Y-14778746D02*
X9935515Y-14759698D01*
X9935515Y-14759698D02*
X9945039Y-14750174D01*
X9945039Y-14750174D02*
X9964087Y-14740650D01*
X9964087Y-14740650D02*
X9992658Y-14740650D01*
X9992658Y-14740650D02*
X10011706Y-14750174D01*
X10011706Y-14750174D02*
X10021230Y-14759698D01*
X10021230Y-14759698D02*
X10030753Y-14778746D01*
X10030753Y-14778746D02*
X10030753Y-14835888D01*
X10030753Y-14835888D02*
X10021230Y-14854936D01*
X10021230Y-14854936D02*
X10011706Y-14864460D01*
X10011706Y-14864460D02*
X9992658Y-14873984D01*
X9992658Y-14873984D02*
X9964087Y-14873984D01*
X10145039Y-14873984D02*
X10125992Y-14864460D01*
X10125992Y-14864460D02*
X10116468Y-14845412D01*
X10116468Y-14845412D02*
X10116468Y-14673984D01*
X10297420Y-14864460D02*
X10278373Y-14873984D01*
X10278373Y-14873984D02*
X10240277Y-14873984D01*
X10240277Y-14873984D02*
X10221230Y-14864460D01*
X10221230Y-14864460D02*
X10211706Y-14845412D01*
X10211706Y-14845412D02*
X10211706Y-14769222D01*
X10211706Y-14769222D02*
X10221230Y-14750174D01*
X10221230Y-14750174D02*
X10240277Y-14740650D01*
X10240277Y-14740650D02*
X10278373Y-14740650D01*
X10278373Y-14740650D02*
X10297420Y-14750174D01*
X10297420Y-14750174D02*
X10306944Y-14769222D01*
X10306944Y-14769222D02*
X10306944Y-14788269D01*
X10306944Y-14788269D02*
X10211706Y-14807317D01*
X10383134Y-14864460D02*
X10402182Y-14873984D01*
X10402182Y-14873984D02*
X10440277Y-14873984D01*
X10440277Y-14873984D02*
X10459325Y-14864460D01*
X10459325Y-14864460D02*
X10468849Y-14845412D01*
X10468849Y-14845412D02*
X10468849Y-14835888D01*
X10468849Y-14835888D02*
X10459325Y-14816841D01*
X10459325Y-14816841D02*
X10440277Y-14807317D01*
X10440277Y-14807317D02*
X10411706Y-14807317D01*
X10411706Y-14807317D02*
X10392658Y-14797793D01*
X10392658Y-14797793D02*
X10383134Y-14778746D01*
X10383134Y-14778746D02*
X10383134Y-14769222D01*
X10383134Y-14769222D02*
X10392658Y-14750174D01*
X10392658Y-14750174D02*
X10411706Y-14740650D01*
X10411706Y-14740650D02*
X10440277Y-14740650D01*
X10440277Y-14740650D02*
X10459325Y-14750174D01*
X10535515Y-14950174D02*
X10545039Y-14940650D01*
X10545039Y-14940650D02*
X10564087Y-14912079D01*
X10564087Y-14912079D02*
X10573611Y-14893031D01*
X10573611Y-14893031D02*
X10583134Y-14864460D01*
X10583134Y-14864460D02*
X10592658Y-14816841D01*
X10592658Y-14816841D02*
X10592658Y-14778746D01*
X10592658Y-14778746D02*
X10583134Y-14731127D01*
X10583134Y-14731127D02*
X10573611Y-14702555D01*
X10573611Y-14702555D02*
X10564087Y-14683508D01*
X10564087Y-14683508D02*
X10545039Y-14654936D01*
X10545039Y-14654936D02*
X10535515Y-14645412D01*
D12*
X5379500Y-15046500D02*
G75*
G02*
X5319500Y-15046500I-30000J0D01*
G01*
X5319500Y-15046500D02*
G75*
G02*
X5379500Y-15046500I30000J0D01*
G01*
D11*
X5678372Y-14937984D02*
X5697420Y-14937984D01*
X5697420Y-14937984D02*
X5716467Y-14947508D01*
X5716467Y-14947508D02*
X5725991Y-14957031D01*
X5725991Y-14957031D02*
X5735515Y-14976079D01*
X5735515Y-14976079D02*
X5745039Y-15014174D01*
X5745039Y-15014174D02*
X5745039Y-15061793D01*
X5745039Y-15061793D02*
X5735515Y-15099888D01*
X5735515Y-15099888D02*
X5725991Y-15118936D01*
X5725991Y-15118936D02*
X5716467Y-15128460D01*
X5716467Y-15128460D02*
X5697420Y-15137984D01*
X5697420Y-15137984D02*
X5678372Y-15137984D01*
X5678372Y-15137984D02*
X5659324Y-15128460D01*
X5659324Y-15128460D02*
X5649801Y-15118936D01*
X5649801Y-15118936D02*
X5640277Y-15099888D01*
X5640277Y-15099888D02*
X5630753Y-15061793D01*
X5630753Y-15061793D02*
X5630753Y-15014174D01*
X5630753Y-15014174D02*
X5640277Y-14976079D01*
X5640277Y-14976079D02*
X5649801Y-14957031D01*
X5649801Y-14957031D02*
X5659324Y-14947508D01*
X5659324Y-14947508D02*
X5678372Y-14937984D01*
X5830753Y-15118936D02*
X5840277Y-15128460D01*
X5840277Y-15128460D02*
X5830753Y-15137984D01*
X5830753Y-15137984D02*
X5821229Y-15128460D01*
X5821229Y-15128460D02*
X5830753Y-15118936D01*
X5830753Y-15118936D02*
X5830753Y-15137984D01*
X6011705Y-14937984D02*
X5973610Y-14937984D01*
X5973610Y-14937984D02*
X5954562Y-14947508D01*
X5954562Y-14947508D02*
X5945039Y-14957031D01*
X5945039Y-14957031D02*
X5925991Y-14985603D01*
X5925991Y-14985603D02*
X5916467Y-15023698D01*
X5916467Y-15023698D02*
X5916467Y-15099888D01*
X5916467Y-15099888D02*
X5925991Y-15118936D01*
X5925991Y-15118936D02*
X5935515Y-15128460D01*
X5935515Y-15128460D02*
X5954562Y-15137984D01*
X5954562Y-15137984D02*
X5992658Y-15137984D01*
X5992658Y-15137984D02*
X6011705Y-15128460D01*
X6011705Y-15128460D02*
X6021229Y-15118936D01*
X6021229Y-15118936D02*
X6030753Y-15099888D01*
X6030753Y-15099888D02*
X6030753Y-15052269D01*
X6030753Y-15052269D02*
X6021229Y-15033222D01*
X6021229Y-15033222D02*
X6011705Y-15023698D01*
X6011705Y-15023698D02*
X5992658Y-15014174D01*
X5992658Y-15014174D02*
X5954562Y-15014174D01*
X5954562Y-15014174D02*
X5935515Y-15023698D01*
X5935515Y-15023698D02*
X5925991Y-15033222D01*
X5925991Y-15033222D02*
X5916467Y-15052269D01*
X6154562Y-14937984D02*
X6173610Y-14937984D01*
X6173610Y-14937984D02*
X6192658Y-14947508D01*
X6192658Y-14947508D02*
X6202182Y-14957031D01*
X6202182Y-14957031D02*
X6211705Y-14976079D01*
X6211705Y-14976079D02*
X6221229Y-15014174D01*
X6221229Y-15014174D02*
X6221229Y-15061793D01*
X6221229Y-15061793D02*
X6211705Y-15099888D01*
X6211705Y-15099888D02*
X6202182Y-15118936D01*
X6202182Y-15118936D02*
X6192658Y-15128460D01*
X6192658Y-15128460D02*
X6173610Y-15137984D01*
X6173610Y-15137984D02*
X6154562Y-15137984D01*
X6154562Y-15137984D02*
X6135515Y-15128460D01*
X6135515Y-15128460D02*
X6125991Y-15118936D01*
X6125991Y-15118936D02*
X6116467Y-15099888D01*
X6116467Y-15099888D02*
X6106943Y-15061793D01*
X6106943Y-15061793D02*
X6106943Y-15014174D01*
X6106943Y-15014174D02*
X6116467Y-14976079D01*
X6116467Y-14976079D02*
X6125991Y-14957031D01*
X6125991Y-14957031D02*
X6135515Y-14947508D01*
X6135515Y-14947508D02*
X6154562Y-14937984D01*
X6345039Y-14937984D02*
X6364086Y-14937984D01*
X6364086Y-14937984D02*
X6383134Y-14947508D01*
X6383134Y-14947508D02*
X6392658Y-14957031D01*
X6392658Y-14957031D02*
X6402182Y-14976079D01*
X6402182Y-14976079D02*
X6411705Y-15014174D01*
X6411705Y-15014174D02*
X6411705Y-15061793D01*
X6411705Y-15061793D02*
X6402182Y-15099888D01*
X6402182Y-15099888D02*
X6392658Y-15118936D01*
X6392658Y-15118936D02*
X6383134Y-15128460D01*
X6383134Y-15128460D02*
X6364086Y-15137984D01*
X6364086Y-15137984D02*
X6345039Y-15137984D01*
X6345039Y-15137984D02*
X6325991Y-15128460D01*
X6325991Y-15128460D02*
X6316467Y-15118936D01*
X6316467Y-15118936D02*
X6306943Y-15099888D01*
X6306943Y-15099888D02*
X6297420Y-15061793D01*
X6297420Y-15061793D02*
X6297420Y-15014174D01*
X6297420Y-15014174D02*
X6306943Y-14976079D01*
X6306943Y-14976079D02*
X6316467Y-14957031D01*
X6316467Y-14957031D02*
X6325991Y-14947508D01*
X6325991Y-14947508D02*
X6345039Y-14937984D01*
X6497420Y-15137984D02*
X6497420Y-15004650D01*
X6497420Y-15023698D02*
X6506943Y-15014174D01*
X6506943Y-15014174D02*
X6525991Y-15004650D01*
X6525991Y-15004650D02*
X6554563Y-15004650D01*
X6554563Y-15004650D02*
X6573610Y-15014174D01*
X6573610Y-15014174D02*
X6583134Y-15033222D01*
X6583134Y-15033222D02*
X6583134Y-15137984D01*
X6583134Y-15033222D02*
X6592658Y-15014174D01*
X6592658Y-15014174D02*
X6611705Y-15004650D01*
X6611705Y-15004650D02*
X6640277Y-15004650D01*
X6640277Y-15004650D02*
X6659324Y-15014174D01*
X6659324Y-15014174D02*
X6668848Y-15033222D01*
X6668848Y-15033222D02*
X6668848Y-15137984D01*
X6764086Y-15137984D02*
X6764086Y-15004650D01*
X6764086Y-15023698D02*
X6773610Y-15014174D01*
X6773610Y-15014174D02*
X6792658Y-15004650D01*
X6792658Y-15004650D02*
X6821229Y-15004650D01*
X6821229Y-15004650D02*
X6840277Y-15014174D01*
X6840277Y-15014174D02*
X6849801Y-15033222D01*
X6849801Y-15033222D02*
X6849801Y-15137984D01*
X6849801Y-15033222D02*
X6859324Y-15014174D01*
X6859324Y-15014174D02*
X6878372Y-15004650D01*
X6878372Y-15004650D02*
X6906943Y-15004650D01*
X6906943Y-15004650D02*
X6925991Y-15014174D01*
X6925991Y-15014174D02*
X6935515Y-15033222D01*
X6935515Y-15033222D02*
X6935515Y-15137984D01*
X7325991Y-14928460D02*
X7154563Y-15185603D01*
X7583134Y-14937984D02*
X7602182Y-14937984D01*
X7602182Y-14937984D02*
X7621229Y-14947508D01*
X7621229Y-14947508D02*
X7630753Y-14957031D01*
X7630753Y-14957031D02*
X7640277Y-14976079D01*
X7640277Y-14976079D02*
X7649801Y-15014174D01*
X7649801Y-15014174D02*
X7649801Y-15061793D01*
X7649801Y-15061793D02*
X7640277Y-15099888D01*
X7640277Y-15099888D02*
X7630753Y-15118936D01*
X7630753Y-15118936D02*
X7621229Y-15128460D01*
X7621229Y-15128460D02*
X7602182Y-15137984D01*
X7602182Y-15137984D02*
X7583134Y-15137984D01*
X7583134Y-15137984D02*
X7564086Y-15128460D01*
X7564086Y-15128460D02*
X7554563Y-15118936D01*
X7554563Y-15118936D02*
X7545039Y-15099888D01*
X7545039Y-15099888D02*
X7535515Y-15061793D01*
X7535515Y-15061793D02*
X7535515Y-15014174D01*
X7535515Y-15014174D02*
X7545039Y-14976079D01*
X7545039Y-14976079D02*
X7554563Y-14957031D01*
X7554563Y-14957031D02*
X7564086Y-14947508D01*
X7564086Y-14947508D02*
X7583134Y-14937984D01*
X7735515Y-15118936D02*
X7745039Y-15128460D01*
X7745039Y-15128460D02*
X7735515Y-15137984D01*
X7735515Y-15137984D02*
X7725991Y-15128460D01*
X7725991Y-15128460D02*
X7735515Y-15118936D01*
X7735515Y-15118936D02*
X7735515Y-15137984D01*
X7868848Y-14937984D02*
X7887896Y-14937984D01*
X7887896Y-14937984D02*
X7906944Y-14947508D01*
X7906944Y-14947508D02*
X7916467Y-14957031D01*
X7916467Y-14957031D02*
X7925991Y-14976079D01*
X7925991Y-14976079D02*
X7935515Y-15014174D01*
X7935515Y-15014174D02*
X7935515Y-15061793D01*
X7935515Y-15061793D02*
X7925991Y-15099888D01*
X7925991Y-15099888D02*
X7916467Y-15118936D01*
X7916467Y-15118936D02*
X7906944Y-15128460D01*
X7906944Y-15128460D02*
X7887896Y-15137984D01*
X7887896Y-15137984D02*
X7868848Y-15137984D01*
X7868848Y-15137984D02*
X7849801Y-15128460D01*
X7849801Y-15128460D02*
X7840277Y-15118936D01*
X7840277Y-15118936D02*
X7830753Y-15099888D01*
X7830753Y-15099888D02*
X7821229Y-15061793D01*
X7821229Y-15061793D02*
X7821229Y-15014174D01*
X7821229Y-15014174D02*
X7830753Y-14976079D01*
X7830753Y-14976079D02*
X7840277Y-14957031D01*
X7840277Y-14957031D02*
X7849801Y-14947508D01*
X7849801Y-14947508D02*
X7868848Y-14937984D01*
X8011706Y-14957031D02*
X8021229Y-14947508D01*
X8021229Y-14947508D02*
X8040277Y-14937984D01*
X8040277Y-14937984D02*
X8087896Y-14937984D01*
X8087896Y-14937984D02*
X8106944Y-14947508D01*
X8106944Y-14947508D02*
X8116467Y-14957031D01*
X8116467Y-14957031D02*
X8125991Y-14976079D01*
X8125991Y-14976079D02*
X8125991Y-14995127D01*
X8125991Y-14995127D02*
X8116467Y-15023698D01*
X8116467Y-15023698D02*
X8002182Y-15137984D01*
X8002182Y-15137984D02*
X8125991Y-15137984D01*
X8192658Y-14937984D02*
X8316467Y-14937984D01*
X8316467Y-14937984D02*
X8249801Y-15014174D01*
X8249801Y-15014174D02*
X8278372Y-15014174D01*
X8278372Y-15014174D02*
X8297420Y-15023698D01*
X8297420Y-15023698D02*
X8306944Y-15033222D01*
X8306944Y-15033222D02*
X8316467Y-15052269D01*
X8316467Y-15052269D02*
X8316467Y-15099888D01*
X8316467Y-15099888D02*
X8306944Y-15118936D01*
X8306944Y-15118936D02*
X8297420Y-15128460D01*
X8297420Y-15128460D02*
X8278372Y-15137984D01*
X8278372Y-15137984D02*
X8221229Y-15137984D01*
X8221229Y-15137984D02*
X8202182Y-15128460D01*
X8202182Y-15128460D02*
X8192658Y-15118936D01*
X8487896Y-14937984D02*
X8449801Y-14937984D01*
X8449801Y-14937984D02*
X8430753Y-14947508D01*
X8430753Y-14947508D02*
X8421229Y-14957031D01*
X8421229Y-14957031D02*
X8402182Y-14985603D01*
X8402182Y-14985603D02*
X8392658Y-15023698D01*
X8392658Y-15023698D02*
X8392658Y-15099888D01*
X8392658Y-15099888D02*
X8402182Y-15118936D01*
X8402182Y-15118936D02*
X8411706Y-15128460D01*
X8411706Y-15128460D02*
X8430753Y-15137984D01*
X8430753Y-15137984D02*
X8468849Y-15137984D01*
X8468849Y-15137984D02*
X8487896Y-15128460D01*
X8487896Y-15128460D02*
X8497420Y-15118936D01*
X8497420Y-15118936D02*
X8506944Y-15099888D01*
X8506944Y-15099888D02*
X8506944Y-15052269D01*
X8506944Y-15052269D02*
X8497420Y-15033222D01*
X8497420Y-15033222D02*
X8487896Y-15023698D01*
X8487896Y-15023698D02*
X8468849Y-15014174D01*
X8468849Y-15014174D02*
X8430753Y-15014174D01*
X8430753Y-15014174D02*
X8411706Y-15023698D01*
X8411706Y-15023698D02*
X8402182Y-15033222D01*
X8402182Y-15033222D02*
X8392658Y-15052269D01*
X8583134Y-14937984D02*
X8583134Y-14976079D01*
X8659325Y-14937984D02*
X8659325Y-14976079D01*
X8954563Y-15214174D02*
X8945039Y-15204650D01*
X8945039Y-15204650D02*
X8925991Y-15176079D01*
X8925991Y-15176079D02*
X8916468Y-15157031D01*
X8916468Y-15157031D02*
X8906944Y-15128460D01*
X8906944Y-15128460D02*
X8897420Y-15080841D01*
X8897420Y-15080841D02*
X8897420Y-15042746D01*
X8897420Y-15042746D02*
X8906944Y-14995127D01*
X8906944Y-14995127D02*
X8916468Y-14966555D01*
X8916468Y-14966555D02*
X8925991Y-14947508D01*
X8925991Y-14947508D02*
X8945039Y-14918936D01*
X8945039Y-14918936D02*
X8954563Y-14909412D01*
X9068849Y-14937984D02*
X9087896Y-14937984D01*
X9087896Y-14937984D02*
X9106944Y-14947508D01*
X9106944Y-14947508D02*
X9116468Y-14957031D01*
X9116468Y-14957031D02*
X9125991Y-14976079D01*
X9125991Y-14976079D02*
X9135515Y-15014174D01*
X9135515Y-15014174D02*
X9135515Y-15061793D01*
X9135515Y-15061793D02*
X9125991Y-15099888D01*
X9125991Y-15099888D02*
X9116468Y-15118936D01*
X9116468Y-15118936D02*
X9106944Y-15128460D01*
X9106944Y-15128460D02*
X9087896Y-15137984D01*
X9087896Y-15137984D02*
X9068849Y-15137984D01*
X9068849Y-15137984D02*
X9049801Y-15128460D01*
X9049801Y-15128460D02*
X9040277Y-15118936D01*
X9040277Y-15118936D02*
X9030753Y-15099888D01*
X9030753Y-15099888D02*
X9021230Y-15061793D01*
X9021230Y-15061793D02*
X9021230Y-15014174D01*
X9021230Y-15014174D02*
X9030753Y-14976079D01*
X9030753Y-14976079D02*
X9040277Y-14957031D01*
X9040277Y-14957031D02*
X9049801Y-14947508D01*
X9049801Y-14947508D02*
X9068849Y-14937984D01*
X9373611Y-15137984D02*
X9373611Y-14937984D01*
X9459325Y-15137984D02*
X9459325Y-15033222D01*
X9459325Y-15033222D02*
X9449801Y-15014174D01*
X9449801Y-15014174D02*
X9430753Y-15004650D01*
X9430753Y-15004650D02*
X9402182Y-15004650D01*
X9402182Y-15004650D02*
X9383134Y-15014174D01*
X9383134Y-15014174D02*
X9373611Y-15023698D01*
X9583134Y-15137984D02*
X9564087Y-15128460D01*
X9564087Y-15128460D02*
X9554563Y-15118936D01*
X9554563Y-15118936D02*
X9545039Y-15099888D01*
X9545039Y-15099888D02*
X9545039Y-15042746D01*
X9545039Y-15042746D02*
X9554563Y-15023698D01*
X9554563Y-15023698D02*
X9564087Y-15014174D01*
X9564087Y-15014174D02*
X9583134Y-15004650D01*
X9583134Y-15004650D02*
X9611706Y-15004650D01*
X9611706Y-15004650D02*
X9630753Y-15014174D01*
X9630753Y-15014174D02*
X9640277Y-15023698D01*
X9640277Y-15023698D02*
X9649801Y-15042746D01*
X9649801Y-15042746D02*
X9649801Y-15099888D01*
X9649801Y-15099888D02*
X9640277Y-15118936D01*
X9640277Y-15118936D02*
X9630753Y-15128460D01*
X9630753Y-15128460D02*
X9611706Y-15137984D01*
X9611706Y-15137984D02*
X9583134Y-15137984D01*
X9764087Y-15137984D02*
X9745039Y-15128460D01*
X9745039Y-15128460D02*
X9735515Y-15109412D01*
X9735515Y-15109412D02*
X9735515Y-14937984D01*
X9916468Y-15128460D02*
X9897420Y-15137984D01*
X9897420Y-15137984D02*
X9859325Y-15137984D01*
X9859325Y-15137984D02*
X9840277Y-15128460D01*
X9840277Y-15128460D02*
X9830753Y-15109412D01*
X9830753Y-15109412D02*
X9830753Y-15033222D01*
X9830753Y-15033222D02*
X9840277Y-15014174D01*
X9840277Y-15014174D02*
X9859325Y-15004650D01*
X9859325Y-15004650D02*
X9897420Y-15004650D01*
X9897420Y-15004650D02*
X9916468Y-15014174D01*
X9916468Y-15014174D02*
X9925992Y-15033222D01*
X9925992Y-15033222D02*
X9925992Y-15052269D01*
X9925992Y-15052269D02*
X9830753Y-15071317D01*
X10002182Y-15128460D02*
X10021230Y-15137984D01*
X10021230Y-15137984D02*
X10059325Y-15137984D01*
X10059325Y-15137984D02*
X10078373Y-15128460D01*
X10078373Y-15128460D02*
X10087896Y-15109412D01*
X10087896Y-15109412D02*
X10087896Y-15099888D01*
X10087896Y-15099888D02*
X10078373Y-15080841D01*
X10078373Y-15080841D02*
X10059325Y-15071317D01*
X10059325Y-15071317D02*
X10030753Y-15071317D01*
X10030753Y-15071317D02*
X10011706Y-15061793D01*
X10011706Y-15061793D02*
X10002182Y-15042746D01*
X10002182Y-15042746D02*
X10002182Y-15033222D01*
X10002182Y-15033222D02*
X10011706Y-15014174D01*
X10011706Y-15014174D02*
X10030753Y-15004650D01*
X10030753Y-15004650D02*
X10059325Y-15004650D01*
X10059325Y-15004650D02*
X10078373Y-15014174D01*
X10325992Y-15061793D02*
X10478373Y-15061793D01*
X10402182Y-15137984D02*
X10402182Y-14985603D01*
X10811706Y-15004650D02*
X10811706Y-15137984D01*
X10764087Y-14928460D02*
X10716468Y-15071317D01*
X10716468Y-15071317D02*
X10840277Y-15071317D01*
X11059325Y-15128460D02*
X11078373Y-15137984D01*
X11078373Y-15137984D02*
X11116468Y-15137984D01*
X11116468Y-15137984D02*
X11135516Y-15128460D01*
X11135516Y-15128460D02*
X11145039Y-15109412D01*
X11145039Y-15109412D02*
X11145039Y-15099888D01*
X11145039Y-15099888D02*
X11135516Y-15080841D01*
X11135516Y-15080841D02*
X11116468Y-15071317D01*
X11116468Y-15071317D02*
X11087896Y-15071317D01*
X11087896Y-15071317D02*
X11068849Y-15061793D01*
X11068849Y-15061793D02*
X11059325Y-15042746D01*
X11059325Y-15042746D02*
X11059325Y-15033222D01*
X11059325Y-15033222D02*
X11068849Y-15014174D01*
X11068849Y-15014174D02*
X11087896Y-15004650D01*
X11087896Y-15004650D02*
X11116468Y-15004650D01*
X11116468Y-15004650D02*
X11135516Y-15014174D01*
X11259325Y-15137984D02*
X11240277Y-15128460D01*
X11240277Y-15128460D02*
X11230754Y-15109412D01*
X11230754Y-15109412D02*
X11230754Y-14937984D01*
X11364087Y-15137984D02*
X11345039Y-15128460D01*
X11345039Y-15128460D02*
X11335515Y-15118936D01*
X11335515Y-15118936D02*
X11325992Y-15099888D01*
X11325992Y-15099888D02*
X11325992Y-15042746D01*
X11325992Y-15042746D02*
X11335515Y-15023698D01*
X11335515Y-15023698D02*
X11345039Y-15014174D01*
X11345039Y-15014174D02*
X11364087Y-15004650D01*
X11364087Y-15004650D02*
X11392658Y-15004650D01*
X11392658Y-15004650D02*
X11411706Y-15014174D01*
X11411706Y-15014174D02*
X11421230Y-15023698D01*
X11421230Y-15023698D02*
X11430754Y-15042746D01*
X11430754Y-15042746D02*
X11430754Y-15099888D01*
X11430754Y-15099888D02*
X11421230Y-15118936D01*
X11421230Y-15118936D02*
X11411706Y-15128460D01*
X11411706Y-15128460D02*
X11392658Y-15137984D01*
X11392658Y-15137984D02*
X11364087Y-15137984D01*
X11487896Y-15004650D02*
X11564087Y-15004650D01*
X11516468Y-14937984D02*
X11516468Y-15109412D01*
X11516468Y-15109412D02*
X11525992Y-15128460D01*
X11525992Y-15128460D02*
X11545039Y-15137984D01*
X11545039Y-15137984D02*
X11564087Y-15137984D01*
X11621230Y-15128460D02*
X11640277Y-15137984D01*
X11640277Y-15137984D02*
X11678373Y-15137984D01*
X11678373Y-15137984D02*
X11697420Y-15128460D01*
X11697420Y-15128460D02*
X11706944Y-15109412D01*
X11706944Y-15109412D02*
X11706944Y-15099888D01*
X11706944Y-15099888D02*
X11697420Y-15080841D01*
X11697420Y-15080841D02*
X11678373Y-15071317D01*
X11678373Y-15071317D02*
X11649801Y-15071317D01*
X11649801Y-15071317D02*
X11630754Y-15061793D01*
X11630754Y-15061793D02*
X11621230Y-15042746D01*
X11621230Y-15042746D02*
X11621230Y-15033222D01*
X11621230Y-15033222D02*
X11630754Y-15014174D01*
X11630754Y-15014174D02*
X11649801Y-15004650D01*
X11649801Y-15004650D02*
X11678373Y-15004650D01*
X11678373Y-15004650D02*
X11697420Y-15014174D01*
X11773611Y-15214174D02*
X11783135Y-15204650D01*
X11783135Y-15204650D02*
X11802182Y-15176079D01*
X11802182Y-15176079D02*
X11811706Y-15157031D01*
X11811706Y-15157031D02*
X11821230Y-15128460D01*
X11821230Y-15128460D02*
X11830754Y-15080841D01*
X11830754Y-15080841D02*
X11830754Y-15042746D01*
X11830754Y-15042746D02*
X11821230Y-14995127D01*
X11821230Y-14995127D02*
X11811706Y-14966555D01*
X11811706Y-14966555D02*
X11802182Y-14947508D01*
X11802182Y-14947508D02*
X11783135Y-14918936D01*
X11783135Y-14918936D02*
X11773611Y-14909412D01*
D12*
X5339500Y-15270500D02*
X5339500Y-15350500D01*
X5299500Y-15310500D02*
X5379500Y-15310500D01*
D11*
X5678372Y-15201984D02*
X5697420Y-15201984D01*
X5697420Y-15201984D02*
X5716467Y-15211508D01*
X5716467Y-15211508D02*
X5725991Y-15221031D01*
X5725991Y-15221031D02*
X5735515Y-15240079D01*
X5735515Y-15240079D02*
X5745039Y-15278174D01*
X5745039Y-15278174D02*
X5745039Y-15325793D01*
X5745039Y-15325793D02*
X5735515Y-15363888D01*
X5735515Y-15363888D02*
X5725991Y-15382936D01*
X5725991Y-15382936D02*
X5716467Y-15392460D01*
X5716467Y-15392460D02*
X5697420Y-15401984D01*
X5697420Y-15401984D02*
X5678372Y-15401984D01*
X5678372Y-15401984D02*
X5659324Y-15392460D01*
X5659324Y-15392460D02*
X5649801Y-15382936D01*
X5649801Y-15382936D02*
X5640277Y-15363888D01*
X5640277Y-15363888D02*
X5630753Y-15325793D01*
X5630753Y-15325793D02*
X5630753Y-15278174D01*
X5630753Y-15278174D02*
X5640277Y-15240079D01*
X5640277Y-15240079D02*
X5649801Y-15221031D01*
X5649801Y-15221031D02*
X5659324Y-15211508D01*
X5659324Y-15211508D02*
X5678372Y-15201984D01*
X5830753Y-15382936D02*
X5840277Y-15392460D01*
X5840277Y-15392460D02*
X5830753Y-15401984D01*
X5830753Y-15401984D02*
X5821229Y-15392460D01*
X5821229Y-15392460D02*
X5830753Y-15382936D01*
X5830753Y-15382936D02*
X5830753Y-15401984D01*
X5954562Y-15287698D02*
X5935515Y-15278174D01*
X5935515Y-15278174D02*
X5925991Y-15268650D01*
X5925991Y-15268650D02*
X5916467Y-15249603D01*
X5916467Y-15249603D02*
X5916467Y-15240079D01*
X5916467Y-15240079D02*
X5925991Y-15221031D01*
X5925991Y-15221031D02*
X5935515Y-15211508D01*
X5935515Y-15211508D02*
X5954562Y-15201984D01*
X5954562Y-15201984D02*
X5992658Y-15201984D01*
X5992658Y-15201984D02*
X6011705Y-15211508D01*
X6011705Y-15211508D02*
X6021229Y-15221031D01*
X6021229Y-15221031D02*
X6030753Y-15240079D01*
X6030753Y-15240079D02*
X6030753Y-15249603D01*
X6030753Y-15249603D02*
X6021229Y-15268650D01*
X6021229Y-15268650D02*
X6011705Y-15278174D01*
X6011705Y-15278174D02*
X5992658Y-15287698D01*
X5992658Y-15287698D02*
X5954562Y-15287698D01*
X5954562Y-15287698D02*
X5935515Y-15297222D01*
X5935515Y-15297222D02*
X5925991Y-15306746D01*
X5925991Y-15306746D02*
X5916467Y-15325793D01*
X5916467Y-15325793D02*
X5916467Y-15363888D01*
X5916467Y-15363888D02*
X5925991Y-15382936D01*
X5925991Y-15382936D02*
X5935515Y-15392460D01*
X5935515Y-15392460D02*
X5954562Y-15401984D01*
X5954562Y-15401984D02*
X5992658Y-15401984D01*
X5992658Y-15401984D02*
X6011705Y-15392460D01*
X6011705Y-15392460D02*
X6021229Y-15382936D01*
X6021229Y-15382936D02*
X6030753Y-15363888D01*
X6030753Y-15363888D02*
X6030753Y-15325793D01*
X6030753Y-15325793D02*
X6021229Y-15306746D01*
X6021229Y-15306746D02*
X6011705Y-15297222D01*
X6011705Y-15297222D02*
X5992658Y-15287698D01*
X6154562Y-15201984D02*
X6173610Y-15201984D01*
X6173610Y-15201984D02*
X6192658Y-15211508D01*
X6192658Y-15211508D02*
X6202182Y-15221031D01*
X6202182Y-15221031D02*
X6211705Y-15240079D01*
X6211705Y-15240079D02*
X6221229Y-15278174D01*
X6221229Y-15278174D02*
X6221229Y-15325793D01*
X6221229Y-15325793D02*
X6211705Y-15363888D01*
X6211705Y-15363888D02*
X6202182Y-15382936D01*
X6202182Y-15382936D02*
X6192658Y-15392460D01*
X6192658Y-15392460D02*
X6173610Y-15401984D01*
X6173610Y-15401984D02*
X6154562Y-15401984D01*
X6154562Y-15401984D02*
X6135515Y-15392460D01*
X6135515Y-15392460D02*
X6125991Y-15382936D01*
X6125991Y-15382936D02*
X6116467Y-15363888D01*
X6116467Y-15363888D02*
X6106943Y-15325793D01*
X6106943Y-15325793D02*
X6106943Y-15278174D01*
X6106943Y-15278174D02*
X6116467Y-15240079D01*
X6116467Y-15240079D02*
X6125991Y-15221031D01*
X6125991Y-15221031D02*
X6135515Y-15211508D01*
X6135515Y-15211508D02*
X6154562Y-15201984D01*
X6345039Y-15201984D02*
X6364086Y-15201984D01*
X6364086Y-15201984D02*
X6383134Y-15211508D01*
X6383134Y-15211508D02*
X6392658Y-15221031D01*
X6392658Y-15221031D02*
X6402182Y-15240079D01*
X6402182Y-15240079D02*
X6411705Y-15278174D01*
X6411705Y-15278174D02*
X6411705Y-15325793D01*
X6411705Y-15325793D02*
X6402182Y-15363888D01*
X6402182Y-15363888D02*
X6392658Y-15382936D01*
X6392658Y-15382936D02*
X6383134Y-15392460D01*
X6383134Y-15392460D02*
X6364086Y-15401984D01*
X6364086Y-15401984D02*
X6345039Y-15401984D01*
X6345039Y-15401984D02*
X6325991Y-15392460D01*
X6325991Y-15392460D02*
X6316467Y-15382936D01*
X6316467Y-15382936D02*
X6306943Y-15363888D01*
X6306943Y-15363888D02*
X6297420Y-15325793D01*
X6297420Y-15325793D02*
X6297420Y-15278174D01*
X6297420Y-15278174D02*
X6306943Y-15240079D01*
X6306943Y-15240079D02*
X6316467Y-15221031D01*
X6316467Y-15221031D02*
X6325991Y-15211508D01*
X6325991Y-15211508D02*
X6345039Y-15201984D01*
X6497420Y-15401984D02*
X6497420Y-15268650D01*
X6497420Y-15287698D02*
X6506943Y-15278174D01*
X6506943Y-15278174D02*
X6525991Y-15268650D01*
X6525991Y-15268650D02*
X6554563Y-15268650D01*
X6554563Y-15268650D02*
X6573610Y-15278174D01*
X6573610Y-15278174D02*
X6583134Y-15297222D01*
X6583134Y-15297222D02*
X6583134Y-15401984D01*
X6583134Y-15297222D02*
X6592658Y-15278174D01*
X6592658Y-15278174D02*
X6611705Y-15268650D01*
X6611705Y-15268650D02*
X6640277Y-15268650D01*
X6640277Y-15268650D02*
X6659324Y-15278174D01*
X6659324Y-15278174D02*
X6668848Y-15297222D01*
X6668848Y-15297222D02*
X6668848Y-15401984D01*
X6764086Y-15401984D02*
X6764086Y-15268650D01*
X6764086Y-15287698D02*
X6773610Y-15278174D01*
X6773610Y-15278174D02*
X6792658Y-15268650D01*
X6792658Y-15268650D02*
X6821229Y-15268650D01*
X6821229Y-15268650D02*
X6840277Y-15278174D01*
X6840277Y-15278174D02*
X6849801Y-15297222D01*
X6849801Y-15297222D02*
X6849801Y-15401984D01*
X6849801Y-15297222D02*
X6859324Y-15278174D01*
X6859324Y-15278174D02*
X6878372Y-15268650D01*
X6878372Y-15268650D02*
X6906943Y-15268650D01*
X6906943Y-15268650D02*
X6925991Y-15278174D01*
X6925991Y-15278174D02*
X6935515Y-15297222D01*
X6935515Y-15297222D02*
X6935515Y-15401984D01*
X7325991Y-15192460D02*
X7154563Y-15449603D01*
X7583134Y-15201984D02*
X7602182Y-15201984D01*
X7602182Y-15201984D02*
X7621229Y-15211508D01*
X7621229Y-15211508D02*
X7630753Y-15221031D01*
X7630753Y-15221031D02*
X7640277Y-15240079D01*
X7640277Y-15240079D02*
X7649801Y-15278174D01*
X7649801Y-15278174D02*
X7649801Y-15325793D01*
X7649801Y-15325793D02*
X7640277Y-15363888D01*
X7640277Y-15363888D02*
X7630753Y-15382936D01*
X7630753Y-15382936D02*
X7621229Y-15392460D01*
X7621229Y-15392460D02*
X7602182Y-15401984D01*
X7602182Y-15401984D02*
X7583134Y-15401984D01*
X7583134Y-15401984D02*
X7564086Y-15392460D01*
X7564086Y-15392460D02*
X7554563Y-15382936D01*
X7554563Y-15382936D02*
X7545039Y-15363888D01*
X7545039Y-15363888D02*
X7535515Y-15325793D01*
X7535515Y-15325793D02*
X7535515Y-15278174D01*
X7535515Y-15278174D02*
X7545039Y-15240079D01*
X7545039Y-15240079D02*
X7554563Y-15221031D01*
X7554563Y-15221031D02*
X7564086Y-15211508D01*
X7564086Y-15211508D02*
X7583134Y-15201984D01*
X7735515Y-15382936D02*
X7745039Y-15392460D01*
X7745039Y-15392460D02*
X7735515Y-15401984D01*
X7735515Y-15401984D02*
X7725991Y-15392460D01*
X7725991Y-15392460D02*
X7735515Y-15382936D01*
X7735515Y-15382936D02*
X7735515Y-15401984D01*
X7868848Y-15201984D02*
X7887896Y-15201984D01*
X7887896Y-15201984D02*
X7906944Y-15211508D01*
X7906944Y-15211508D02*
X7916467Y-15221031D01*
X7916467Y-15221031D02*
X7925991Y-15240079D01*
X7925991Y-15240079D02*
X7935515Y-15278174D01*
X7935515Y-15278174D02*
X7935515Y-15325793D01*
X7935515Y-15325793D02*
X7925991Y-15363888D01*
X7925991Y-15363888D02*
X7916467Y-15382936D01*
X7916467Y-15382936D02*
X7906944Y-15392460D01*
X7906944Y-15392460D02*
X7887896Y-15401984D01*
X7887896Y-15401984D02*
X7868848Y-15401984D01*
X7868848Y-15401984D02*
X7849801Y-15392460D01*
X7849801Y-15392460D02*
X7840277Y-15382936D01*
X7840277Y-15382936D02*
X7830753Y-15363888D01*
X7830753Y-15363888D02*
X7821229Y-15325793D01*
X7821229Y-15325793D02*
X7821229Y-15278174D01*
X7821229Y-15278174D02*
X7830753Y-15240079D01*
X7830753Y-15240079D02*
X7840277Y-15221031D01*
X7840277Y-15221031D02*
X7849801Y-15211508D01*
X7849801Y-15211508D02*
X7868848Y-15201984D01*
X8002182Y-15201984D02*
X8125991Y-15201984D01*
X8125991Y-15201984D02*
X8059325Y-15278174D01*
X8059325Y-15278174D02*
X8087896Y-15278174D01*
X8087896Y-15278174D02*
X8106944Y-15287698D01*
X8106944Y-15287698D02*
X8116467Y-15297222D01*
X8116467Y-15297222D02*
X8125991Y-15316269D01*
X8125991Y-15316269D02*
X8125991Y-15363888D01*
X8125991Y-15363888D02*
X8116467Y-15382936D01*
X8116467Y-15382936D02*
X8106944Y-15392460D01*
X8106944Y-15392460D02*
X8087896Y-15401984D01*
X8087896Y-15401984D02*
X8030753Y-15401984D01*
X8030753Y-15401984D02*
X8011706Y-15392460D01*
X8011706Y-15392460D02*
X8002182Y-15382936D01*
X8316467Y-15401984D02*
X8202182Y-15401984D01*
X8259325Y-15401984D02*
X8259325Y-15201984D01*
X8259325Y-15201984D02*
X8240277Y-15230555D01*
X8240277Y-15230555D02*
X8221229Y-15249603D01*
X8221229Y-15249603D02*
X8202182Y-15259127D01*
X8497420Y-15201984D02*
X8402182Y-15201984D01*
X8402182Y-15201984D02*
X8392658Y-15297222D01*
X8392658Y-15297222D02*
X8402182Y-15287698D01*
X8402182Y-15287698D02*
X8421229Y-15278174D01*
X8421229Y-15278174D02*
X8468849Y-15278174D01*
X8468849Y-15278174D02*
X8487896Y-15287698D01*
X8487896Y-15287698D02*
X8497420Y-15297222D01*
X8497420Y-15297222D02*
X8506944Y-15316269D01*
X8506944Y-15316269D02*
X8506944Y-15363888D01*
X8506944Y-15363888D02*
X8497420Y-15382936D01*
X8497420Y-15382936D02*
X8487896Y-15392460D01*
X8487896Y-15392460D02*
X8468849Y-15401984D01*
X8468849Y-15401984D02*
X8421229Y-15401984D01*
X8421229Y-15401984D02*
X8402182Y-15392460D01*
X8402182Y-15392460D02*
X8392658Y-15382936D01*
X8583134Y-15201984D02*
X8583134Y-15240079D01*
X8659325Y-15201984D02*
X8659325Y-15240079D01*
X8954563Y-15478174D02*
X8945039Y-15468650D01*
X8945039Y-15468650D02*
X8925991Y-15440079D01*
X8925991Y-15440079D02*
X8916468Y-15421031D01*
X8916468Y-15421031D02*
X8906944Y-15392460D01*
X8906944Y-15392460D02*
X8897420Y-15344841D01*
X8897420Y-15344841D02*
X8897420Y-15306746D01*
X8897420Y-15306746D02*
X8906944Y-15259127D01*
X8906944Y-15259127D02*
X8916468Y-15230555D01*
X8916468Y-15230555D02*
X8925991Y-15211508D01*
X8925991Y-15211508D02*
X8945039Y-15182936D01*
X8945039Y-15182936D02*
X8954563Y-15173412D01*
X9116468Y-15201984D02*
X9078372Y-15201984D01*
X9078372Y-15201984D02*
X9059325Y-15211508D01*
X9059325Y-15211508D02*
X9049801Y-15221031D01*
X9049801Y-15221031D02*
X9030753Y-15249603D01*
X9030753Y-15249603D02*
X9021230Y-15287698D01*
X9021230Y-15287698D02*
X9021230Y-15363888D01*
X9021230Y-15363888D02*
X9030753Y-15382936D01*
X9030753Y-15382936D02*
X9040277Y-15392460D01*
X9040277Y-15392460D02*
X9059325Y-15401984D01*
X9059325Y-15401984D02*
X9097420Y-15401984D01*
X9097420Y-15401984D02*
X9116468Y-15392460D01*
X9116468Y-15392460D02*
X9125991Y-15382936D01*
X9125991Y-15382936D02*
X9135515Y-15363888D01*
X9135515Y-15363888D02*
X9135515Y-15316269D01*
X9135515Y-15316269D02*
X9125991Y-15297222D01*
X9125991Y-15297222D02*
X9116468Y-15287698D01*
X9116468Y-15287698D02*
X9097420Y-15278174D01*
X9097420Y-15278174D02*
X9059325Y-15278174D01*
X9059325Y-15278174D02*
X9040277Y-15287698D01*
X9040277Y-15287698D02*
X9030753Y-15297222D01*
X9030753Y-15297222D02*
X9021230Y-15316269D01*
X9306944Y-15268650D02*
X9306944Y-15401984D01*
X9259325Y-15192460D02*
X9211706Y-15335317D01*
X9211706Y-15335317D02*
X9335515Y-15335317D01*
X9564087Y-15401984D02*
X9564087Y-15201984D01*
X9649801Y-15401984D02*
X9649801Y-15297222D01*
X9649801Y-15297222D02*
X9640277Y-15278174D01*
X9640277Y-15278174D02*
X9621230Y-15268650D01*
X9621230Y-15268650D02*
X9592658Y-15268650D01*
X9592658Y-15268650D02*
X9573611Y-15278174D01*
X9573611Y-15278174D02*
X9564087Y-15287698D01*
X9773611Y-15401984D02*
X9754563Y-15392460D01*
X9754563Y-15392460D02*
X9745039Y-15382936D01*
X9745039Y-15382936D02*
X9735515Y-15363888D01*
X9735515Y-15363888D02*
X9735515Y-15306746D01*
X9735515Y-15306746D02*
X9745039Y-15287698D01*
X9745039Y-15287698D02*
X9754563Y-15278174D01*
X9754563Y-15278174D02*
X9773611Y-15268650D01*
X9773611Y-15268650D02*
X9802182Y-15268650D01*
X9802182Y-15268650D02*
X9821230Y-15278174D01*
X9821230Y-15278174D02*
X9830753Y-15287698D01*
X9830753Y-15287698D02*
X9840277Y-15306746D01*
X9840277Y-15306746D02*
X9840277Y-15363888D01*
X9840277Y-15363888D02*
X9830753Y-15382936D01*
X9830753Y-15382936D02*
X9821230Y-15392460D01*
X9821230Y-15392460D02*
X9802182Y-15401984D01*
X9802182Y-15401984D02*
X9773611Y-15401984D01*
X9954563Y-15401984D02*
X9935515Y-15392460D01*
X9935515Y-15392460D02*
X9925992Y-15373412D01*
X9925992Y-15373412D02*
X9925992Y-15201984D01*
X10106944Y-15392460D02*
X10087896Y-15401984D01*
X10087896Y-15401984D02*
X10049801Y-15401984D01*
X10049801Y-15401984D02*
X10030753Y-15392460D01*
X10030753Y-15392460D02*
X10021230Y-15373412D01*
X10021230Y-15373412D02*
X10021230Y-15297222D01*
X10021230Y-15297222D02*
X10030753Y-15278174D01*
X10030753Y-15278174D02*
X10049801Y-15268650D01*
X10049801Y-15268650D02*
X10087896Y-15268650D01*
X10087896Y-15268650D02*
X10106944Y-15278174D01*
X10106944Y-15278174D02*
X10116468Y-15297222D01*
X10116468Y-15297222D02*
X10116468Y-15316269D01*
X10116468Y-15316269D02*
X10021230Y-15335317D01*
X10192658Y-15392460D02*
X10211706Y-15401984D01*
X10211706Y-15401984D02*
X10249801Y-15401984D01*
X10249801Y-15401984D02*
X10268849Y-15392460D01*
X10268849Y-15392460D02*
X10278373Y-15373412D01*
X10278373Y-15373412D02*
X10278373Y-15363888D01*
X10278373Y-15363888D02*
X10268849Y-15344841D01*
X10268849Y-15344841D02*
X10249801Y-15335317D01*
X10249801Y-15335317D02*
X10221230Y-15335317D01*
X10221230Y-15335317D02*
X10202182Y-15325793D01*
X10202182Y-15325793D02*
X10192658Y-15306746D01*
X10192658Y-15306746D02*
X10192658Y-15297222D01*
X10192658Y-15297222D02*
X10202182Y-15278174D01*
X10202182Y-15278174D02*
X10221230Y-15268650D01*
X10221230Y-15268650D02*
X10249801Y-15268650D01*
X10249801Y-15268650D02*
X10268849Y-15278174D01*
X10345039Y-15478174D02*
X10354563Y-15468650D01*
X10354563Y-15468650D02*
X10373611Y-15440079D01*
X10373611Y-15440079D02*
X10383134Y-15421031D01*
X10383134Y-15421031D02*
X10392658Y-15392460D01*
X10392658Y-15392460D02*
X10402182Y-15344841D01*
X10402182Y-15344841D02*
X10402182Y-15306746D01*
X10402182Y-15306746D02*
X10392658Y-15259127D01*
X10392658Y-15259127D02*
X10383134Y-15230555D01*
X10383134Y-15230555D02*
X10373611Y-15211508D01*
X10373611Y-15211508D02*
X10354563Y-15182936D01*
X10354563Y-15182936D02*
X10345039Y-15173412D01*
D12*
X5364856Y-15609856D02*
X5364856Y-15539144D01*
X5294144Y-15539144D01*
X5294144Y-15609856D01*
X5364856Y-15609856D01*
D11*
X5745039Y-15665984D02*
X5630753Y-15665984D01*
X5687896Y-15665984D02*
X5687896Y-15465984D01*
X5687896Y-15465984D02*
X5668848Y-15494555D01*
X5668848Y-15494555D02*
X5649801Y-15513603D01*
X5649801Y-15513603D02*
X5630753Y-15523127D01*
X5830753Y-15646936D02*
X5840277Y-15656460D01*
X5840277Y-15656460D02*
X5830753Y-15665984D01*
X5830753Y-15665984D02*
X5821229Y-15656460D01*
X5821229Y-15656460D02*
X5830753Y-15646936D01*
X5830753Y-15646936D02*
X5830753Y-15665984D01*
X5964086Y-15465984D02*
X5983134Y-15465984D01*
X5983134Y-15465984D02*
X6002182Y-15475508D01*
X6002182Y-15475508D02*
X6011705Y-15485031D01*
X6011705Y-15485031D02*
X6021229Y-15504079D01*
X6021229Y-15504079D02*
X6030753Y-15542174D01*
X6030753Y-15542174D02*
X6030753Y-15589793D01*
X6030753Y-15589793D02*
X6021229Y-15627888D01*
X6021229Y-15627888D02*
X6011705Y-15646936D01*
X6011705Y-15646936D02*
X6002182Y-15656460D01*
X6002182Y-15656460D02*
X5983134Y-15665984D01*
X5983134Y-15665984D02*
X5964086Y-15665984D01*
X5964086Y-15665984D02*
X5945039Y-15656460D01*
X5945039Y-15656460D02*
X5935515Y-15646936D01*
X5935515Y-15646936D02*
X5925991Y-15627888D01*
X5925991Y-15627888D02*
X5916467Y-15589793D01*
X5916467Y-15589793D02*
X5916467Y-15542174D01*
X5916467Y-15542174D02*
X5925991Y-15504079D01*
X5925991Y-15504079D02*
X5935515Y-15485031D01*
X5935515Y-15485031D02*
X5945039Y-15475508D01*
X5945039Y-15475508D02*
X5964086Y-15465984D01*
X6154562Y-15465984D02*
X6173610Y-15465984D01*
X6173610Y-15465984D02*
X6192658Y-15475508D01*
X6192658Y-15475508D02*
X6202182Y-15485031D01*
X6202182Y-15485031D02*
X6211705Y-15504079D01*
X6211705Y-15504079D02*
X6221229Y-15542174D01*
X6221229Y-15542174D02*
X6221229Y-15589793D01*
X6221229Y-15589793D02*
X6211705Y-15627888D01*
X6211705Y-15627888D02*
X6202182Y-15646936D01*
X6202182Y-15646936D02*
X6192658Y-15656460D01*
X6192658Y-15656460D02*
X6173610Y-15665984D01*
X6173610Y-15665984D02*
X6154562Y-15665984D01*
X6154562Y-15665984D02*
X6135515Y-15656460D01*
X6135515Y-15656460D02*
X6125991Y-15646936D01*
X6125991Y-15646936D02*
X6116467Y-15627888D01*
X6116467Y-15627888D02*
X6106943Y-15589793D01*
X6106943Y-15589793D02*
X6106943Y-15542174D01*
X6106943Y-15542174D02*
X6116467Y-15504079D01*
X6116467Y-15504079D02*
X6125991Y-15485031D01*
X6125991Y-15485031D02*
X6135515Y-15475508D01*
X6135515Y-15475508D02*
X6154562Y-15465984D01*
X6345039Y-15465984D02*
X6364086Y-15465984D01*
X6364086Y-15465984D02*
X6383134Y-15475508D01*
X6383134Y-15475508D02*
X6392658Y-15485031D01*
X6392658Y-15485031D02*
X6402182Y-15504079D01*
X6402182Y-15504079D02*
X6411705Y-15542174D01*
X6411705Y-15542174D02*
X6411705Y-15589793D01*
X6411705Y-15589793D02*
X6402182Y-15627888D01*
X6402182Y-15627888D02*
X6392658Y-15646936D01*
X6392658Y-15646936D02*
X6383134Y-15656460D01*
X6383134Y-15656460D02*
X6364086Y-15665984D01*
X6364086Y-15665984D02*
X6345039Y-15665984D01*
X6345039Y-15665984D02*
X6325991Y-15656460D01*
X6325991Y-15656460D02*
X6316467Y-15646936D01*
X6316467Y-15646936D02*
X6306943Y-15627888D01*
X6306943Y-15627888D02*
X6297420Y-15589793D01*
X6297420Y-15589793D02*
X6297420Y-15542174D01*
X6297420Y-15542174D02*
X6306943Y-15504079D01*
X6306943Y-15504079D02*
X6316467Y-15485031D01*
X6316467Y-15485031D02*
X6325991Y-15475508D01*
X6325991Y-15475508D02*
X6345039Y-15465984D01*
X6497420Y-15665984D02*
X6497420Y-15532650D01*
X6497420Y-15551698D02*
X6506943Y-15542174D01*
X6506943Y-15542174D02*
X6525991Y-15532650D01*
X6525991Y-15532650D02*
X6554563Y-15532650D01*
X6554563Y-15532650D02*
X6573610Y-15542174D01*
X6573610Y-15542174D02*
X6583134Y-15561222D01*
X6583134Y-15561222D02*
X6583134Y-15665984D01*
X6583134Y-15561222D02*
X6592658Y-15542174D01*
X6592658Y-15542174D02*
X6611705Y-15532650D01*
X6611705Y-15532650D02*
X6640277Y-15532650D01*
X6640277Y-15532650D02*
X6659324Y-15542174D01*
X6659324Y-15542174D02*
X6668848Y-15561222D01*
X6668848Y-15561222D02*
X6668848Y-15665984D01*
X6764086Y-15665984D02*
X6764086Y-15532650D01*
X6764086Y-15551698D02*
X6773610Y-15542174D01*
X6773610Y-15542174D02*
X6792658Y-15532650D01*
X6792658Y-15532650D02*
X6821229Y-15532650D01*
X6821229Y-15532650D02*
X6840277Y-15542174D01*
X6840277Y-15542174D02*
X6849801Y-15561222D01*
X6849801Y-15561222D02*
X6849801Y-15665984D01*
X6849801Y-15561222D02*
X6859324Y-15542174D01*
X6859324Y-15542174D02*
X6878372Y-15532650D01*
X6878372Y-15532650D02*
X6906943Y-15532650D01*
X6906943Y-15532650D02*
X6925991Y-15542174D01*
X6925991Y-15542174D02*
X6935515Y-15561222D01*
X6935515Y-15561222D02*
X6935515Y-15665984D01*
X7325991Y-15456460D02*
X7154563Y-15713603D01*
X7583134Y-15465984D02*
X7602182Y-15465984D01*
X7602182Y-15465984D02*
X7621229Y-15475508D01*
X7621229Y-15475508D02*
X7630753Y-15485031D01*
X7630753Y-15485031D02*
X7640277Y-15504079D01*
X7640277Y-15504079D02*
X7649801Y-15542174D01*
X7649801Y-15542174D02*
X7649801Y-15589793D01*
X7649801Y-15589793D02*
X7640277Y-15627888D01*
X7640277Y-15627888D02*
X7630753Y-15646936D01*
X7630753Y-15646936D02*
X7621229Y-15656460D01*
X7621229Y-15656460D02*
X7602182Y-15665984D01*
X7602182Y-15665984D02*
X7583134Y-15665984D01*
X7583134Y-15665984D02*
X7564086Y-15656460D01*
X7564086Y-15656460D02*
X7554563Y-15646936D01*
X7554563Y-15646936D02*
X7545039Y-15627888D01*
X7545039Y-15627888D02*
X7535515Y-15589793D01*
X7535515Y-15589793D02*
X7535515Y-15542174D01*
X7535515Y-15542174D02*
X7545039Y-15504079D01*
X7545039Y-15504079D02*
X7554563Y-15485031D01*
X7554563Y-15485031D02*
X7564086Y-15475508D01*
X7564086Y-15475508D02*
X7583134Y-15465984D01*
X7735515Y-15646936D02*
X7745039Y-15656460D01*
X7745039Y-15656460D02*
X7735515Y-15665984D01*
X7735515Y-15665984D02*
X7725991Y-15656460D01*
X7725991Y-15656460D02*
X7735515Y-15646936D01*
X7735515Y-15646936D02*
X7735515Y-15665984D01*
X7868848Y-15465984D02*
X7887896Y-15465984D01*
X7887896Y-15465984D02*
X7906944Y-15475508D01*
X7906944Y-15475508D02*
X7916467Y-15485031D01*
X7916467Y-15485031D02*
X7925991Y-15504079D01*
X7925991Y-15504079D02*
X7935515Y-15542174D01*
X7935515Y-15542174D02*
X7935515Y-15589793D01*
X7935515Y-15589793D02*
X7925991Y-15627888D01*
X7925991Y-15627888D02*
X7916467Y-15646936D01*
X7916467Y-15646936D02*
X7906944Y-15656460D01*
X7906944Y-15656460D02*
X7887896Y-15665984D01*
X7887896Y-15665984D02*
X7868848Y-15665984D01*
X7868848Y-15665984D02*
X7849801Y-15656460D01*
X7849801Y-15656460D02*
X7840277Y-15646936D01*
X7840277Y-15646936D02*
X7830753Y-15627888D01*
X7830753Y-15627888D02*
X7821229Y-15589793D01*
X7821229Y-15589793D02*
X7821229Y-15542174D01*
X7821229Y-15542174D02*
X7830753Y-15504079D01*
X7830753Y-15504079D02*
X7840277Y-15485031D01*
X7840277Y-15485031D02*
X7849801Y-15475508D01*
X7849801Y-15475508D02*
X7868848Y-15465984D01*
X8002182Y-15465984D02*
X8125991Y-15465984D01*
X8125991Y-15465984D02*
X8059325Y-15542174D01*
X8059325Y-15542174D02*
X8087896Y-15542174D01*
X8087896Y-15542174D02*
X8106944Y-15551698D01*
X8106944Y-15551698D02*
X8116467Y-15561222D01*
X8116467Y-15561222D02*
X8125991Y-15580269D01*
X8125991Y-15580269D02*
X8125991Y-15627888D01*
X8125991Y-15627888D02*
X8116467Y-15646936D01*
X8116467Y-15646936D02*
X8106944Y-15656460D01*
X8106944Y-15656460D02*
X8087896Y-15665984D01*
X8087896Y-15665984D02*
X8030753Y-15665984D01*
X8030753Y-15665984D02*
X8011706Y-15656460D01*
X8011706Y-15656460D02*
X8002182Y-15646936D01*
X8221229Y-15665984D02*
X8259325Y-15665984D01*
X8259325Y-15665984D02*
X8278372Y-15656460D01*
X8278372Y-15656460D02*
X8287896Y-15646936D01*
X8287896Y-15646936D02*
X8306944Y-15618365D01*
X8306944Y-15618365D02*
X8316467Y-15580269D01*
X8316467Y-15580269D02*
X8316467Y-15504079D01*
X8316467Y-15504079D02*
X8306944Y-15485031D01*
X8306944Y-15485031D02*
X8297420Y-15475508D01*
X8297420Y-15475508D02*
X8278372Y-15465984D01*
X8278372Y-15465984D02*
X8240277Y-15465984D01*
X8240277Y-15465984D02*
X8221229Y-15475508D01*
X8221229Y-15475508D02*
X8211706Y-15485031D01*
X8211706Y-15485031D02*
X8202182Y-15504079D01*
X8202182Y-15504079D02*
X8202182Y-15551698D01*
X8202182Y-15551698D02*
X8211706Y-15570746D01*
X8211706Y-15570746D02*
X8221229Y-15580269D01*
X8221229Y-15580269D02*
X8240277Y-15589793D01*
X8240277Y-15589793D02*
X8278372Y-15589793D01*
X8278372Y-15589793D02*
X8297420Y-15580269D01*
X8297420Y-15580269D02*
X8306944Y-15570746D01*
X8306944Y-15570746D02*
X8316467Y-15551698D01*
X8487896Y-15532650D02*
X8487896Y-15665984D01*
X8440277Y-15456460D02*
X8392658Y-15599317D01*
X8392658Y-15599317D02*
X8516468Y-15599317D01*
X8583134Y-15465984D02*
X8583134Y-15504079D01*
X8659325Y-15465984D02*
X8659325Y-15504079D01*
X8954563Y-15742174D02*
X8945039Y-15732650D01*
X8945039Y-15732650D02*
X8925991Y-15704079D01*
X8925991Y-15704079D02*
X8916468Y-15685031D01*
X8916468Y-15685031D02*
X8906944Y-15656460D01*
X8906944Y-15656460D02*
X8897420Y-15608841D01*
X8897420Y-15608841D02*
X8897420Y-15570746D01*
X8897420Y-15570746D02*
X8906944Y-15523127D01*
X8906944Y-15523127D02*
X8916468Y-15494555D01*
X8916468Y-15494555D02*
X8925991Y-15475508D01*
X8925991Y-15475508D02*
X8945039Y-15446936D01*
X8945039Y-15446936D02*
X8954563Y-15437412D01*
X9011706Y-15465984D02*
X9145039Y-15465984D01*
X9145039Y-15465984D02*
X9059325Y-15665984D01*
X9211706Y-15485031D02*
X9221230Y-15475508D01*
X9221230Y-15475508D02*
X9240277Y-15465984D01*
X9240277Y-15465984D02*
X9287896Y-15465984D01*
X9287896Y-15465984D02*
X9306944Y-15475508D01*
X9306944Y-15475508D02*
X9316468Y-15485031D01*
X9316468Y-15485031D02*
X9325991Y-15504079D01*
X9325991Y-15504079D02*
X9325991Y-15523127D01*
X9325991Y-15523127D02*
X9316468Y-15551698D01*
X9316468Y-15551698D02*
X9202182Y-15665984D01*
X9202182Y-15665984D02*
X9325991Y-15665984D01*
X9564087Y-15665984D02*
X9564087Y-15465984D01*
X9649801Y-15665984D02*
X9649801Y-15561222D01*
X9649801Y-15561222D02*
X9640277Y-15542174D01*
X9640277Y-15542174D02*
X9621230Y-15532650D01*
X9621230Y-15532650D02*
X9592658Y-15532650D01*
X9592658Y-15532650D02*
X9573611Y-15542174D01*
X9573611Y-15542174D02*
X9564087Y-15551698D01*
X9773611Y-15665984D02*
X9754563Y-15656460D01*
X9754563Y-15656460D02*
X9745039Y-15646936D01*
X9745039Y-15646936D02*
X9735515Y-15627888D01*
X9735515Y-15627888D02*
X9735515Y-15570746D01*
X9735515Y-15570746D02*
X9745039Y-15551698D01*
X9745039Y-15551698D02*
X9754563Y-15542174D01*
X9754563Y-15542174D02*
X9773611Y-15532650D01*
X9773611Y-15532650D02*
X9802182Y-15532650D01*
X9802182Y-15532650D02*
X9821230Y-15542174D01*
X9821230Y-15542174D02*
X9830753Y-15551698D01*
X9830753Y-15551698D02*
X9840277Y-15570746D01*
X9840277Y-15570746D02*
X9840277Y-15627888D01*
X9840277Y-15627888D02*
X9830753Y-15646936D01*
X9830753Y-15646936D02*
X9821230Y-15656460D01*
X9821230Y-15656460D02*
X9802182Y-15665984D01*
X9802182Y-15665984D02*
X9773611Y-15665984D01*
X9954563Y-15665984D02*
X9935515Y-15656460D01*
X9935515Y-15656460D02*
X9925992Y-15637412D01*
X9925992Y-15637412D02*
X9925992Y-15465984D01*
X10106944Y-15656460D02*
X10087896Y-15665984D01*
X10087896Y-15665984D02*
X10049801Y-15665984D01*
X10049801Y-15665984D02*
X10030753Y-15656460D01*
X10030753Y-15656460D02*
X10021230Y-15637412D01*
X10021230Y-15637412D02*
X10021230Y-15561222D01*
X10021230Y-15561222D02*
X10030753Y-15542174D01*
X10030753Y-15542174D02*
X10049801Y-15532650D01*
X10049801Y-15532650D02*
X10087896Y-15532650D01*
X10087896Y-15532650D02*
X10106944Y-15542174D01*
X10106944Y-15542174D02*
X10116468Y-15561222D01*
X10116468Y-15561222D02*
X10116468Y-15580269D01*
X10116468Y-15580269D02*
X10021230Y-15599317D01*
X10192658Y-15656460D02*
X10211706Y-15665984D01*
X10211706Y-15665984D02*
X10249801Y-15665984D01*
X10249801Y-15665984D02*
X10268849Y-15656460D01*
X10268849Y-15656460D02*
X10278373Y-15637412D01*
X10278373Y-15637412D02*
X10278373Y-15627888D01*
X10278373Y-15627888D02*
X10268849Y-15608841D01*
X10268849Y-15608841D02*
X10249801Y-15599317D01*
X10249801Y-15599317D02*
X10221230Y-15599317D01*
X10221230Y-15599317D02*
X10202182Y-15589793D01*
X10202182Y-15589793D02*
X10192658Y-15570746D01*
X10192658Y-15570746D02*
X10192658Y-15561222D01*
X10192658Y-15561222D02*
X10202182Y-15542174D01*
X10202182Y-15542174D02*
X10221230Y-15532650D01*
X10221230Y-15532650D02*
X10249801Y-15532650D01*
X10249801Y-15532650D02*
X10268849Y-15542174D01*
X10345039Y-15742174D02*
X10354563Y-15732650D01*
X10354563Y-15732650D02*
X10373611Y-15704079D01*
X10373611Y-15704079D02*
X10383134Y-15685031D01*
X10383134Y-15685031D02*
X10392658Y-15656460D01*
X10392658Y-15656460D02*
X10402182Y-15608841D01*
X10402182Y-15608841D02*
X10402182Y-15570746D01*
X10402182Y-15570746D02*
X10392658Y-15523127D01*
X10392658Y-15523127D02*
X10383134Y-15494555D01*
X10383134Y-15494555D02*
X10373611Y-15475508D01*
X10373611Y-15475508D02*
X10354563Y-15446936D01*
X10354563Y-15446936D02*
X10345039Y-15437412D01*
D13*
X5324890Y-15893110D02*
X5379500Y-15838500D01*
X5324890Y-15783890D01*
X5270280Y-15838500D01*
X5324890Y-15893110D01*
D11*
X5745039Y-15929984D02*
X5630753Y-15929984D01*
X5687896Y-15929984D02*
X5687896Y-15729984D01*
X5687896Y-15729984D02*
X5668848Y-15758555D01*
X5668848Y-15758555D02*
X5649801Y-15777603D01*
X5649801Y-15777603D02*
X5630753Y-15787127D01*
X5830753Y-15910936D02*
X5840277Y-15920460D01*
X5840277Y-15920460D02*
X5830753Y-15929984D01*
X5830753Y-15929984D02*
X5821229Y-15920460D01*
X5821229Y-15920460D02*
X5830753Y-15910936D01*
X5830753Y-15910936D02*
X5830753Y-15929984D01*
X5964086Y-15729984D02*
X5983134Y-15729984D01*
X5983134Y-15729984D02*
X6002182Y-15739508D01*
X6002182Y-15739508D02*
X6011705Y-15749031D01*
X6011705Y-15749031D02*
X6021229Y-15768079D01*
X6021229Y-15768079D02*
X6030753Y-15806174D01*
X6030753Y-15806174D02*
X6030753Y-15853793D01*
X6030753Y-15853793D02*
X6021229Y-15891888D01*
X6021229Y-15891888D02*
X6011705Y-15910936D01*
X6011705Y-15910936D02*
X6002182Y-15920460D01*
X6002182Y-15920460D02*
X5983134Y-15929984D01*
X5983134Y-15929984D02*
X5964086Y-15929984D01*
X5964086Y-15929984D02*
X5945039Y-15920460D01*
X5945039Y-15920460D02*
X5935515Y-15910936D01*
X5935515Y-15910936D02*
X5925991Y-15891888D01*
X5925991Y-15891888D02*
X5916467Y-15853793D01*
X5916467Y-15853793D02*
X5916467Y-15806174D01*
X5916467Y-15806174D02*
X5925991Y-15768079D01*
X5925991Y-15768079D02*
X5935515Y-15749031D01*
X5935515Y-15749031D02*
X5945039Y-15739508D01*
X5945039Y-15739508D02*
X5964086Y-15729984D01*
X6125991Y-15929984D02*
X6164086Y-15929984D01*
X6164086Y-15929984D02*
X6183134Y-15920460D01*
X6183134Y-15920460D02*
X6192658Y-15910936D01*
X6192658Y-15910936D02*
X6211705Y-15882365D01*
X6211705Y-15882365D02*
X6221229Y-15844269D01*
X6221229Y-15844269D02*
X6221229Y-15768079D01*
X6221229Y-15768079D02*
X6211705Y-15749031D01*
X6211705Y-15749031D02*
X6202182Y-15739508D01*
X6202182Y-15739508D02*
X6183134Y-15729984D01*
X6183134Y-15729984D02*
X6145039Y-15729984D01*
X6145039Y-15729984D02*
X6125991Y-15739508D01*
X6125991Y-15739508D02*
X6116467Y-15749031D01*
X6116467Y-15749031D02*
X6106943Y-15768079D01*
X6106943Y-15768079D02*
X6106943Y-15815698D01*
X6106943Y-15815698D02*
X6116467Y-15834746D01*
X6116467Y-15834746D02*
X6125991Y-15844269D01*
X6125991Y-15844269D02*
X6145039Y-15853793D01*
X6145039Y-15853793D02*
X6183134Y-15853793D01*
X6183134Y-15853793D02*
X6202182Y-15844269D01*
X6202182Y-15844269D02*
X6211705Y-15834746D01*
X6211705Y-15834746D02*
X6221229Y-15815698D01*
X6297420Y-15749031D02*
X6306943Y-15739508D01*
X6306943Y-15739508D02*
X6325991Y-15729984D01*
X6325991Y-15729984D02*
X6373610Y-15729984D01*
X6373610Y-15729984D02*
X6392658Y-15739508D01*
X6392658Y-15739508D02*
X6402182Y-15749031D01*
X6402182Y-15749031D02*
X6411705Y-15768079D01*
X6411705Y-15768079D02*
X6411705Y-15787127D01*
X6411705Y-15787127D02*
X6402182Y-15815698D01*
X6402182Y-15815698D02*
X6287896Y-15929984D01*
X6287896Y-15929984D02*
X6411705Y-15929984D01*
X6497420Y-15929984D02*
X6497420Y-15796650D01*
X6497420Y-15815698D02*
X6506943Y-15806174D01*
X6506943Y-15806174D02*
X6525991Y-15796650D01*
X6525991Y-15796650D02*
X6554563Y-15796650D01*
X6554563Y-15796650D02*
X6573610Y-15806174D01*
X6573610Y-15806174D02*
X6583134Y-15825222D01*
X6583134Y-15825222D02*
X6583134Y-15929984D01*
X6583134Y-15825222D02*
X6592658Y-15806174D01*
X6592658Y-15806174D02*
X6611705Y-15796650D01*
X6611705Y-15796650D02*
X6640277Y-15796650D01*
X6640277Y-15796650D02*
X6659324Y-15806174D01*
X6659324Y-15806174D02*
X6668848Y-15825222D01*
X6668848Y-15825222D02*
X6668848Y-15929984D01*
X6764086Y-15929984D02*
X6764086Y-15796650D01*
X6764086Y-15815698D02*
X6773610Y-15806174D01*
X6773610Y-15806174D02*
X6792658Y-15796650D01*
X6792658Y-15796650D02*
X6821229Y-15796650D01*
X6821229Y-15796650D02*
X6840277Y-15806174D01*
X6840277Y-15806174D02*
X6849801Y-15825222D01*
X6849801Y-15825222D02*
X6849801Y-15929984D01*
X6849801Y-15825222D02*
X6859324Y-15806174D01*
X6859324Y-15806174D02*
X6878372Y-15796650D01*
X6878372Y-15796650D02*
X6906943Y-15796650D01*
X6906943Y-15796650D02*
X6925991Y-15806174D01*
X6925991Y-15806174D02*
X6935515Y-15825222D01*
X6935515Y-15825222D02*
X6935515Y-15929984D01*
X7325991Y-15720460D02*
X7154563Y-15977603D01*
X7583134Y-15729984D02*
X7602182Y-15729984D01*
X7602182Y-15729984D02*
X7621229Y-15739508D01*
X7621229Y-15739508D02*
X7630753Y-15749031D01*
X7630753Y-15749031D02*
X7640277Y-15768079D01*
X7640277Y-15768079D02*
X7649801Y-15806174D01*
X7649801Y-15806174D02*
X7649801Y-15853793D01*
X7649801Y-15853793D02*
X7640277Y-15891888D01*
X7640277Y-15891888D02*
X7630753Y-15910936D01*
X7630753Y-15910936D02*
X7621229Y-15920460D01*
X7621229Y-15920460D02*
X7602182Y-15929984D01*
X7602182Y-15929984D02*
X7583134Y-15929984D01*
X7583134Y-15929984D02*
X7564086Y-15920460D01*
X7564086Y-15920460D02*
X7554563Y-15910936D01*
X7554563Y-15910936D02*
X7545039Y-15891888D01*
X7545039Y-15891888D02*
X7535515Y-15853793D01*
X7535515Y-15853793D02*
X7535515Y-15806174D01*
X7535515Y-15806174D02*
X7545039Y-15768079D01*
X7545039Y-15768079D02*
X7554563Y-15749031D01*
X7554563Y-15749031D02*
X7564086Y-15739508D01*
X7564086Y-15739508D02*
X7583134Y-15729984D01*
X7735515Y-15910936D02*
X7745039Y-15920460D01*
X7745039Y-15920460D02*
X7735515Y-15929984D01*
X7735515Y-15929984D02*
X7725991Y-15920460D01*
X7725991Y-15920460D02*
X7735515Y-15910936D01*
X7735515Y-15910936D02*
X7735515Y-15929984D01*
X7868848Y-15729984D02*
X7887896Y-15729984D01*
X7887896Y-15729984D02*
X7906944Y-15739508D01*
X7906944Y-15739508D02*
X7916467Y-15749031D01*
X7916467Y-15749031D02*
X7925991Y-15768079D01*
X7925991Y-15768079D02*
X7935515Y-15806174D01*
X7935515Y-15806174D02*
X7935515Y-15853793D01*
X7935515Y-15853793D02*
X7925991Y-15891888D01*
X7925991Y-15891888D02*
X7916467Y-15910936D01*
X7916467Y-15910936D02*
X7906944Y-15920460D01*
X7906944Y-15920460D02*
X7887896Y-15929984D01*
X7887896Y-15929984D02*
X7868848Y-15929984D01*
X7868848Y-15929984D02*
X7849801Y-15920460D01*
X7849801Y-15920460D02*
X7840277Y-15910936D01*
X7840277Y-15910936D02*
X7830753Y-15891888D01*
X7830753Y-15891888D02*
X7821229Y-15853793D01*
X7821229Y-15853793D02*
X7821229Y-15806174D01*
X7821229Y-15806174D02*
X7830753Y-15768079D01*
X7830753Y-15768079D02*
X7840277Y-15749031D01*
X7840277Y-15749031D02*
X7849801Y-15739508D01*
X7849801Y-15739508D02*
X7868848Y-15729984D01*
X8106944Y-15796650D02*
X8106944Y-15929984D01*
X8059325Y-15720460D02*
X8011706Y-15863317D01*
X8011706Y-15863317D02*
X8135515Y-15863317D01*
X8192658Y-15729984D02*
X8316467Y-15729984D01*
X8316467Y-15729984D02*
X8249801Y-15806174D01*
X8249801Y-15806174D02*
X8278372Y-15806174D01*
X8278372Y-15806174D02*
X8297420Y-15815698D01*
X8297420Y-15815698D02*
X8306944Y-15825222D01*
X8306944Y-15825222D02*
X8316467Y-15844269D01*
X8316467Y-15844269D02*
X8316467Y-15891888D01*
X8316467Y-15891888D02*
X8306944Y-15910936D01*
X8306944Y-15910936D02*
X8297420Y-15920460D01*
X8297420Y-15920460D02*
X8278372Y-15929984D01*
X8278372Y-15929984D02*
X8221229Y-15929984D01*
X8221229Y-15929984D02*
X8202182Y-15920460D01*
X8202182Y-15920460D02*
X8192658Y-15910936D01*
X8440277Y-15729984D02*
X8459325Y-15729984D01*
X8459325Y-15729984D02*
X8478372Y-15739508D01*
X8478372Y-15739508D02*
X8487896Y-15749031D01*
X8487896Y-15749031D02*
X8497420Y-15768079D01*
X8497420Y-15768079D02*
X8506944Y-15806174D01*
X8506944Y-15806174D02*
X8506944Y-15853793D01*
X8506944Y-15853793D02*
X8497420Y-15891888D01*
X8497420Y-15891888D02*
X8487896Y-15910936D01*
X8487896Y-15910936D02*
X8478372Y-15920460D01*
X8478372Y-15920460D02*
X8459325Y-15929984D01*
X8459325Y-15929984D02*
X8440277Y-15929984D01*
X8440277Y-15929984D02*
X8421229Y-15920460D01*
X8421229Y-15920460D02*
X8411706Y-15910936D01*
X8411706Y-15910936D02*
X8402182Y-15891888D01*
X8402182Y-15891888D02*
X8392658Y-15853793D01*
X8392658Y-15853793D02*
X8392658Y-15806174D01*
X8392658Y-15806174D02*
X8402182Y-15768079D01*
X8402182Y-15768079D02*
X8411706Y-15749031D01*
X8411706Y-15749031D02*
X8421229Y-15739508D01*
X8421229Y-15739508D02*
X8440277Y-15729984D01*
X8583134Y-15729984D02*
X8583134Y-15768079D01*
X8659325Y-15729984D02*
X8659325Y-15768079D01*
X8954563Y-16006174D02*
X8945039Y-15996650D01*
X8945039Y-15996650D02*
X8925991Y-15968079D01*
X8925991Y-15968079D02*
X8916468Y-15949031D01*
X8916468Y-15949031D02*
X8906944Y-15920460D01*
X8906944Y-15920460D02*
X8897420Y-15872841D01*
X8897420Y-15872841D02*
X8897420Y-15834746D01*
X8897420Y-15834746D02*
X8906944Y-15787127D01*
X8906944Y-15787127D02*
X8916468Y-15758555D01*
X8916468Y-15758555D02*
X8925991Y-15739508D01*
X8925991Y-15739508D02*
X8945039Y-15710936D01*
X8945039Y-15710936D02*
X8954563Y-15701412D01*
X9059325Y-15815698D02*
X9040277Y-15806174D01*
X9040277Y-15806174D02*
X9030753Y-15796650D01*
X9030753Y-15796650D02*
X9021230Y-15777603D01*
X9021230Y-15777603D02*
X9021230Y-15768079D01*
X9021230Y-15768079D02*
X9030753Y-15749031D01*
X9030753Y-15749031D02*
X9040277Y-15739508D01*
X9040277Y-15739508D02*
X9059325Y-15729984D01*
X9059325Y-15729984D02*
X9097420Y-15729984D01*
X9097420Y-15729984D02*
X9116468Y-15739508D01*
X9116468Y-15739508D02*
X9125991Y-15749031D01*
X9125991Y-15749031D02*
X9135515Y-15768079D01*
X9135515Y-15768079D02*
X9135515Y-15777603D01*
X9135515Y-15777603D02*
X9125991Y-15796650D01*
X9125991Y-15796650D02*
X9116468Y-15806174D01*
X9116468Y-15806174D02*
X9097420Y-15815698D01*
X9097420Y-15815698D02*
X9059325Y-15815698D01*
X9059325Y-15815698D02*
X9040277Y-15825222D01*
X9040277Y-15825222D02*
X9030753Y-15834746D01*
X9030753Y-15834746D02*
X9021230Y-15853793D01*
X9021230Y-15853793D02*
X9021230Y-15891888D01*
X9021230Y-15891888D02*
X9030753Y-15910936D01*
X9030753Y-15910936D02*
X9040277Y-15920460D01*
X9040277Y-15920460D02*
X9059325Y-15929984D01*
X9059325Y-15929984D02*
X9097420Y-15929984D01*
X9097420Y-15929984D02*
X9116468Y-15920460D01*
X9116468Y-15920460D02*
X9125991Y-15910936D01*
X9125991Y-15910936D02*
X9135515Y-15891888D01*
X9135515Y-15891888D02*
X9135515Y-15853793D01*
X9135515Y-15853793D02*
X9125991Y-15834746D01*
X9125991Y-15834746D02*
X9116468Y-15825222D01*
X9116468Y-15825222D02*
X9097420Y-15815698D01*
X9373611Y-15929984D02*
X9373611Y-15729984D01*
X9459325Y-15929984D02*
X9459325Y-15825222D01*
X9459325Y-15825222D02*
X9449801Y-15806174D01*
X9449801Y-15806174D02*
X9430753Y-15796650D01*
X9430753Y-15796650D02*
X9402182Y-15796650D01*
X9402182Y-15796650D02*
X9383134Y-15806174D01*
X9383134Y-15806174D02*
X9373611Y-15815698D01*
X9583134Y-15929984D02*
X9564087Y-15920460D01*
X9564087Y-15920460D02*
X9554563Y-15910936D01*
X9554563Y-15910936D02*
X9545039Y-15891888D01*
X9545039Y-15891888D02*
X9545039Y-15834746D01*
X9545039Y-15834746D02*
X9554563Y-15815698D01*
X9554563Y-15815698D02*
X9564087Y-15806174D01*
X9564087Y-15806174D02*
X9583134Y-15796650D01*
X9583134Y-15796650D02*
X9611706Y-15796650D01*
X9611706Y-15796650D02*
X9630753Y-15806174D01*
X9630753Y-15806174D02*
X9640277Y-15815698D01*
X9640277Y-15815698D02*
X9649801Y-15834746D01*
X9649801Y-15834746D02*
X9649801Y-15891888D01*
X9649801Y-15891888D02*
X9640277Y-15910936D01*
X9640277Y-15910936D02*
X9630753Y-15920460D01*
X9630753Y-15920460D02*
X9611706Y-15929984D01*
X9611706Y-15929984D02*
X9583134Y-15929984D01*
X9764087Y-15929984D02*
X9745039Y-15920460D01*
X9745039Y-15920460D02*
X9735515Y-15901412D01*
X9735515Y-15901412D02*
X9735515Y-15729984D01*
X9916468Y-15920460D02*
X9897420Y-15929984D01*
X9897420Y-15929984D02*
X9859325Y-15929984D01*
X9859325Y-15929984D02*
X9840277Y-15920460D01*
X9840277Y-15920460D02*
X9830753Y-15901412D01*
X9830753Y-15901412D02*
X9830753Y-15825222D01*
X9830753Y-15825222D02*
X9840277Y-15806174D01*
X9840277Y-15806174D02*
X9859325Y-15796650D01*
X9859325Y-15796650D02*
X9897420Y-15796650D01*
X9897420Y-15796650D02*
X9916468Y-15806174D01*
X9916468Y-15806174D02*
X9925992Y-15825222D01*
X9925992Y-15825222D02*
X9925992Y-15844269D01*
X9925992Y-15844269D02*
X9830753Y-15863317D01*
X10002182Y-15920460D02*
X10021230Y-15929984D01*
X10021230Y-15929984D02*
X10059325Y-15929984D01*
X10059325Y-15929984D02*
X10078373Y-15920460D01*
X10078373Y-15920460D02*
X10087896Y-15901412D01*
X10087896Y-15901412D02*
X10087896Y-15891888D01*
X10087896Y-15891888D02*
X10078373Y-15872841D01*
X10078373Y-15872841D02*
X10059325Y-15863317D01*
X10059325Y-15863317D02*
X10030753Y-15863317D01*
X10030753Y-15863317D02*
X10011706Y-15853793D01*
X10011706Y-15853793D02*
X10002182Y-15834746D01*
X10002182Y-15834746D02*
X10002182Y-15825222D01*
X10002182Y-15825222D02*
X10011706Y-15806174D01*
X10011706Y-15806174D02*
X10030753Y-15796650D01*
X10030753Y-15796650D02*
X10059325Y-15796650D01*
X10059325Y-15796650D02*
X10078373Y-15806174D01*
X10154563Y-16006174D02*
X10164087Y-15996650D01*
X10164087Y-15996650D02*
X10183134Y-15968079D01*
X10183134Y-15968079D02*
X10192658Y-15949031D01*
X10192658Y-15949031D02*
X10202182Y-15920460D01*
X10202182Y-15920460D02*
X10211706Y-15872841D01*
X10211706Y-15872841D02*
X10211706Y-15834746D01*
X10211706Y-15834746D02*
X10202182Y-15787127D01*
X10202182Y-15787127D02*
X10192658Y-15758555D01*
X10192658Y-15758555D02*
X10183134Y-15739508D01*
X10183134Y-15739508D02*
X10164087Y-15710936D01*
X10164087Y-15710936D02*
X10154563Y-15701412D01*
M02*
