%TF.GenerationSoftware,KiCad,Pcbnew,8.0.5*%
%TF.CreationDate,2024-11-21T16:50:38-07:00*%
%TF.ProjectId,CMPE2750,434d5045-3237-4353-902e-6b696361645f,rev?*%
%TF.SameCoordinates,Original*%
%TF.FileFunction,Paste,Top*%
%TF.FilePolarity,Positive*%
%FSLAX46Y46*%
G04 Gerber Fmt 4.6, Leading zero omitted, Abs format (unit mm)*
G04 Created by KiCad (PCBNEW 8.0.5) date 2024-11-21 16:50:38*
%MOMM*%
%LPD*%
G01*
G04 APERTURE LIST*
G04 Aperture macros list*
%AMRoundRect*
0 Rectangle with rounded corners*
0 $1 Rounding radius*
0 $2 $3 $4 $5 $6 $7 $8 $9 X,Y pos of 4 corners*
0 Add a 4 corners polygon primitive as box body*
4,1,4,$2,$3,$4,$5,$6,$7,$8,$9,$2,$3,0*
0 Add four circle primitives for the rounded corners*
1,1,$1+$1,$2,$3*
1,1,$1+$1,$4,$5*
1,1,$1+$1,$6,$7*
1,1,$1+$1,$8,$9*
0 Add four rect primitives between the rounded corners*
20,1,$1+$1,$2,$3,$4,$5,0*
20,1,$1+$1,$4,$5,$6,$7,0*
20,1,$1+$1,$6,$7,$8,$9,0*
20,1,$1+$1,$8,$9,$2,$3,0*%
G04 Aperture macros list end*
%ADD10R,1.981200X0.558800*%
%ADD11RoundRect,0.112500X-0.187500X-0.112500X0.187500X-0.112500X0.187500X0.112500X-0.187500X0.112500X0*%
%ADD12RoundRect,0.135000X0.185000X-0.135000X0.185000X0.135000X-0.185000X0.135000X-0.185000X-0.135000X0*%
%ADD13RoundRect,0.112500X0.187500X0.112500X-0.187500X0.112500X-0.187500X-0.112500X0.187500X-0.112500X0*%
%ADD14RoundRect,0.140000X-0.170000X0.140000X-0.170000X-0.140000X0.170000X-0.140000X0.170000X0.140000X0*%
%ADD15RoundRect,0.243750X-0.456250X0.243750X-0.456250X-0.243750X0.456250X-0.243750X0.456250X0.243750X0*%
%ADD16RoundRect,0.140000X-0.140000X-0.170000X0.140000X-0.170000X0.140000X0.170000X-0.140000X0.170000X0*%
%ADD17RoundRect,0.225000X0.225000X0.375000X-0.225000X0.375000X-0.225000X-0.375000X0.225000X-0.375000X0*%
%ADD18RoundRect,0.140000X0.170000X-0.140000X0.170000X0.140000X-0.170000X0.140000X-0.170000X-0.140000X0*%
%ADD19RoundRect,0.135000X0.135000X0.185000X-0.135000X0.185000X-0.135000X-0.185000X0.135000X-0.185000X0*%
%ADD20RoundRect,0.150000X-0.825000X-0.150000X0.825000X-0.150000X0.825000X0.150000X-0.825000X0.150000X0*%
%ADD21RoundRect,0.135000X-0.185000X0.135000X-0.185000X-0.135000X0.185000X-0.135000X0.185000X0.135000X0*%
%ADD22RoundRect,0.150000X0.587500X0.150000X-0.587500X0.150000X-0.587500X-0.150000X0.587500X-0.150000X0*%
%ADD23RoundRect,0.250000X0.325000X0.650000X-0.325000X0.650000X-0.325000X-0.650000X0.325000X-0.650000X0*%
%ADD24RoundRect,0.140000X0.140000X0.170000X-0.140000X0.170000X-0.140000X-0.170000X0.140000X-0.170000X0*%
%ADD25R,0.600000X1.450000*%
%ADD26R,0.300000X1.450000*%
%ADD27RoundRect,0.150000X-0.587500X-0.150000X0.587500X-0.150000X0.587500X0.150000X-0.587500X0.150000X0*%
%ADD28RoundRect,0.135000X-0.135000X-0.185000X0.135000X-0.185000X0.135000X0.185000X-0.135000X0.185000X0*%
%ADD29RoundRect,0.250000X-0.650000X0.325000X-0.650000X-0.325000X0.650000X-0.325000X0.650000X0.325000X0*%
%ADD30RoundRect,0.218750X0.218750X0.256250X-0.218750X0.256250X-0.218750X-0.256250X0.218750X-0.256250X0*%
%ADD31RoundRect,0.100000X-0.637500X-0.100000X0.637500X-0.100000X0.637500X0.100000X-0.637500X0.100000X0*%
%ADD32R,0.558800X1.244600*%
%ADD33RoundRect,0.250000X-0.362500X-1.425000X0.362500X-1.425000X0.362500X1.425000X-0.362500X1.425000X0*%
%ADD34RoundRect,0.250000X-0.325000X-0.650000X0.325000X-0.650000X0.325000X0.650000X-0.325000X0.650000X0*%
%ADD35RoundRect,0.075000X-0.700000X-0.075000X0.700000X-0.075000X0.700000X0.075000X-0.700000X0.075000X0*%
%ADD36RoundRect,0.075000X-0.075000X-0.700000X0.075000X-0.700000X0.075000X0.700000X-0.075000X0.700000X0*%
%ADD37RoundRect,0.200000X-0.200000X-0.275000X0.200000X-0.275000X0.200000X0.275000X-0.200000X0.275000X0*%
%ADD38RoundRect,0.200000X0.200000X0.275000X-0.200000X0.275000X-0.200000X-0.275000X0.200000X-0.275000X0*%
%ADD39RoundRect,0.225000X-0.375000X0.225000X-0.375000X-0.225000X0.375000X-0.225000X0.375000X0.225000X0*%
%ADD40R,0.736600X2.794000*%
%ADD41RoundRect,0.218750X0.256250X-0.218750X0.256250X0.218750X-0.256250X0.218750X-0.256250X-0.218750X0*%
%ADD42RoundRect,0.250000X0.650000X-0.325000X0.650000X0.325000X-0.650000X0.325000X-0.650000X-0.325000X0*%
%ADD43R,0.599999X1.000000*%
G04 APERTURE END LIST*
D10*
%TO.C,U13*%
X185072400Y-107750000D03*
X185072400Y-109020000D03*
X185072400Y-110290000D03*
X185072400Y-111560000D03*
X190000000Y-111560000D03*
X190000000Y-110290000D03*
X190000000Y-109020000D03*
X190000000Y-107750000D03*
%TD*%
D11*
%TO.C,D20*%
X144550000Y-90250000D03*
X142450000Y-90250000D03*
%TD*%
D12*
%TO.C,R39*%
X144500000Y-95010000D03*
X144500000Y-93990000D03*
%TD*%
D13*
%TO.C,D19*%
X144550000Y-92250000D03*
X142450000Y-92250000D03*
%TD*%
D14*
%TO.C,C16*%
X192000000Y-109270000D03*
X192000000Y-110230000D03*
%TD*%
D15*
%TO.C,D12*%
X157860000Y-117202500D03*
X157860000Y-119077500D03*
%TD*%
%TO.C,D15*%
X165480000Y-117202500D03*
X165480000Y-119077500D03*
%TD*%
D12*
%TO.C,R9*%
X176000000Y-85770000D03*
X176000000Y-84750000D03*
%TD*%
D16*
%TO.C,C2*%
X151000000Y-76250000D03*
X151960000Y-76250000D03*
%TD*%
D17*
%TO.C,D1*%
X165350000Y-52750000D03*
X162050000Y-52750000D03*
%TD*%
D18*
%TO.C,C13*%
X189050000Y-118500000D03*
X189050000Y-117540000D03*
%TD*%
D16*
%TO.C,C4*%
X149040000Y-77250000D03*
X150000000Y-77250000D03*
%TD*%
D19*
%TO.C,R182*%
X156960000Y-112760000D03*
X155940000Y-112760000D03*
%TD*%
D20*
%TO.C,U4*%
X182050000Y-118460000D03*
X182050000Y-119730000D03*
X182050000Y-121000000D03*
X182050000Y-122270000D03*
X187000000Y-122270000D03*
X187000000Y-121000000D03*
X187000000Y-119730000D03*
X187000000Y-118460000D03*
%TD*%
D12*
%TO.C,R4*%
X176000000Y-67770000D03*
X176000000Y-66750000D03*
%TD*%
%TO.C,R13*%
X176000000Y-95760000D03*
X176000000Y-94740000D03*
%TD*%
D21*
%TO.C,R47*%
X71330000Y-60410000D03*
X71330000Y-61430000D03*
%TD*%
%TO.C,R75*%
X107205000Y-101610000D03*
X107205000Y-102630000D03*
%TD*%
D22*
%TO.C,Q65*%
X172575000Y-111210000D03*
X172575000Y-109310000D03*
X170700000Y-110260000D03*
%TD*%
D23*
%TO.C,C9*%
X165250000Y-55250000D03*
X162300000Y-55250000D03*
%TD*%
D12*
%TO.C,R10*%
X176000000Y-88260000D03*
X176000000Y-87240000D03*
%TD*%
D21*
%TO.C,R50*%
X116705000Y-72560000D03*
X116705000Y-73580000D03*
%TD*%
D24*
%TO.C,C3*%
X158980000Y-90750000D03*
X158020000Y-90750000D03*
%TD*%
D21*
%TO.C,R80*%
X116705000Y-90660000D03*
X116705000Y-91680000D03*
%TD*%
D25*
%TO.C,J6*%
X137750000Y-53695000D03*
X136950000Y-53695000D03*
D26*
X135750000Y-53695000D03*
X134750000Y-53695000D03*
X134250000Y-53695000D03*
X133250000Y-53695000D03*
D25*
X132050000Y-53695000D03*
X131250000Y-53695000D03*
X131250000Y-53695000D03*
X132050000Y-53695000D03*
D26*
X132750000Y-53695000D03*
X133750000Y-53695000D03*
X135250000Y-53695000D03*
X136250000Y-53695000D03*
D25*
X136950000Y-53695000D03*
X137750000Y-53695000D03*
%TD*%
D23*
%TO.C,C31*%
X126250000Y-50250000D03*
X123300000Y-50250000D03*
%TD*%
D22*
%TO.C,Q55*%
X151075000Y-111160000D03*
X151075000Y-109260000D03*
X149200000Y-110210000D03*
%TD*%
D21*
%TO.C,R65*%
X71330000Y-62660000D03*
X71330000Y-63680000D03*
%TD*%
D19*
%TO.C,R91*%
X137510000Y-91500000D03*
X136490000Y-91500000D03*
%TD*%
D21*
%TO.C,R100*%
X116705000Y-98360000D03*
X116705000Y-99380000D03*
%TD*%
D15*
%TO.C,D8*%
X145160000Y-117202500D03*
X145160000Y-119077500D03*
%TD*%
D22*
%TO.C,Q4*%
X115080000Y-75020000D03*
X115080000Y-73120000D03*
X113205000Y-74070000D03*
%TD*%
D15*
%TO.C,D11*%
X160400000Y-117202500D03*
X160400000Y-119077500D03*
%TD*%
%TO.C,D17*%
X170560000Y-117202500D03*
X170560000Y-119077500D03*
%TD*%
%TO.C,D7*%
X147700000Y-117202500D03*
X147700000Y-119077500D03*
%TD*%
D27*
%TO.C,Q44*%
X113205000Y-82170000D03*
X113205000Y-84070000D03*
X115080000Y-83120000D03*
%TD*%
D12*
%TO.C,R2*%
X168500000Y-70250000D03*
X168500000Y-69230000D03*
%TD*%
D28*
%TO.C,R63*%
X126490000Y-73250000D03*
X127510000Y-73250000D03*
%TD*%
D15*
%TO.C,D3*%
X132460000Y-117202500D03*
X132460000Y-119077500D03*
%TD*%
D22*
%TO.C,Q53*%
X140012500Y-111210000D03*
X140012500Y-109310000D03*
X138137500Y-110260000D03*
%TD*%
%TO.C,Q25*%
X115080000Y-93120000D03*
X115080000Y-91220000D03*
X113205000Y-92170000D03*
%TD*%
D18*
%TO.C,C32*%
X73000000Y-119750000D03*
X73000000Y-118790000D03*
%TD*%
D23*
%TO.C,C10*%
X165500000Y-63000000D03*
X162550000Y-63000000D03*
%TD*%
D22*
%TO.C,Q5*%
X64080000Y-72120000D03*
X64080000Y-70220000D03*
X62205000Y-71170000D03*
%TD*%
D29*
%TO.C,C11*%
X181275000Y-61410000D03*
X181275000Y-64360000D03*
%TD*%
D24*
%TO.C,C7*%
X145230000Y-84500000D03*
X144270000Y-84500000D03*
%TD*%
D22*
%TO.C,Q23*%
X73580000Y-104070000D03*
X73580000Y-102170000D03*
X71705000Y-103120000D03*
%TD*%
D21*
%TO.C,R93*%
X107205000Y-103860000D03*
X107205000Y-104880000D03*
%TD*%
D22*
%TO.C,Q20*%
X105580000Y-104070000D03*
X105580000Y-102170000D03*
X103705000Y-103120000D03*
%TD*%
D12*
%TO.C,R21*%
X168500000Y-80720000D03*
X168500000Y-79700000D03*
%TD*%
D15*
%TO.C,D14*%
X155320000Y-117202500D03*
X155320000Y-119077500D03*
%TD*%
D21*
%TO.C,R70*%
X97830000Y-62610000D03*
X97830000Y-63630000D03*
%TD*%
%TO.C,R97*%
X116705000Y-87735000D03*
X116705000Y-88755000D03*
%TD*%
D27*
%TO.C,Q50*%
X83080000Y-102170000D03*
X83080000Y-104070000D03*
X84955000Y-103120000D03*
%TD*%
D24*
%TO.C,C27*%
X135500000Y-89500000D03*
X134540000Y-89500000D03*
%TD*%
D28*
%TO.C,R85*%
X126627500Y-94250000D03*
X127647500Y-94250000D03*
%TD*%
D21*
%TO.C,R72*%
X65705000Y-66860000D03*
X65705000Y-67880000D03*
%TD*%
D22*
%TO.C,Q51*%
X134887500Y-111260000D03*
X134887500Y-109360000D03*
X133012500Y-110310000D03*
%TD*%
D27*
%TO.C,Q41*%
X113205000Y-69170000D03*
X113205000Y-71070000D03*
X115080000Y-70120000D03*
%TD*%
D15*
%TO.C,D9*%
X150240000Y-117202500D03*
X150240000Y-119077500D03*
%TD*%
D28*
%TO.C,R56*%
X126490000Y-80875000D03*
X127510000Y-80875000D03*
%TD*%
D20*
%TO.C,U5*%
X186500000Y-79095000D03*
X186500000Y-80365000D03*
X186500000Y-81635000D03*
X186500000Y-82905000D03*
X191450000Y-82905000D03*
X191450000Y-81635000D03*
X191450000Y-80365000D03*
X191450000Y-79095000D03*
%TD*%
D22*
%TO.C,Q9*%
X109080000Y-62870000D03*
X109080000Y-60970000D03*
X107205000Y-61920000D03*
%TD*%
D18*
%TO.C,C8*%
X93000000Y-119480000D03*
X93000000Y-118520000D03*
%TD*%
D19*
%TO.C,R171*%
X151710000Y-112760000D03*
X150690000Y-112760000D03*
%TD*%
D21*
%TO.C,R82*%
X116705000Y-96110000D03*
X116705000Y-97130000D03*
%TD*%
D22*
%TO.C,Q21*%
X64080000Y-89070000D03*
X64080000Y-87170000D03*
X62205000Y-88120000D03*
%TD*%
D21*
%TO.C,R51*%
X65705000Y-69660000D03*
X65705000Y-70680000D03*
%TD*%
D20*
%TO.C,U3*%
X183800000Y-60480000D03*
X183800000Y-61750000D03*
X183800000Y-63020000D03*
X183800000Y-64290000D03*
X188750000Y-64290000D03*
X188750000Y-63020000D03*
X188750000Y-61750000D03*
X188750000Y-60480000D03*
%TD*%
D28*
%TO.C,R24*%
X155490000Y-75000000D03*
X156510000Y-75000000D03*
%TD*%
D22*
%TO.C,Q8*%
X64080000Y-67070000D03*
X64080000Y-65170000D03*
X62205000Y-66120000D03*
%TD*%
D15*
%TO.C,D5*%
X137540000Y-117202500D03*
X137540000Y-119077500D03*
%TD*%
D21*
%TO.C,R92*%
X65705000Y-83860000D03*
X65705000Y-84880000D03*
%TD*%
D12*
%TO.C,R17*%
X168500000Y-65270000D03*
X168500000Y-64250000D03*
%TD*%
D30*
%TO.C,FB2*%
X192037500Y-124710000D03*
X190462500Y-124710000D03*
%TD*%
D28*
%TO.C,R83*%
X126627500Y-95500000D03*
X127647500Y-95500000D03*
%TD*%
D24*
%TO.C,C6*%
X145230000Y-77500000D03*
X144270000Y-77500000D03*
%TD*%
D31*
%TO.C,U8*%
X129137500Y-76225000D03*
X129137500Y-76875000D03*
X129137500Y-77525000D03*
X129137500Y-78175000D03*
X129137500Y-78825000D03*
X129137500Y-79475000D03*
X129137500Y-80125000D03*
X129137500Y-80775000D03*
X134862500Y-80775000D03*
X134862500Y-80125000D03*
X134862500Y-79475000D03*
X134862500Y-78825000D03*
X134862500Y-78175000D03*
X134862500Y-77525000D03*
X134862500Y-76875000D03*
X134862500Y-76225000D03*
%TD*%
D28*
%TO.C,R25*%
X153490000Y-75000000D03*
X154510000Y-75000000D03*
%TD*%
D12*
%TO.C,R12*%
X176000000Y-93260000D03*
X176000000Y-92240000D03*
%TD*%
D19*
%TO.C,R27*%
X180060000Y-121020000D03*
X179040000Y-121020000D03*
%TD*%
D21*
%TO.C,R54*%
X65705000Y-64610000D03*
X65705000Y-65630000D03*
%TD*%
D22*
%TO.C,Q7*%
X102767500Y-62820000D03*
X102767500Y-60920000D03*
X100892500Y-61870000D03*
%TD*%
D21*
%TO.C,R48*%
X116705000Y-77660000D03*
X116705000Y-78680000D03*
%TD*%
%TO.C,R53*%
X104392500Y-60360000D03*
X104392500Y-61380000D03*
%TD*%
D22*
%TO.C,Q3*%
X75080000Y-63020000D03*
X75080000Y-61120000D03*
X73205000Y-62070000D03*
%TD*%
%TO.C,Q22*%
X100080000Y-104070000D03*
X100080000Y-102170000D03*
X98205000Y-103120000D03*
%TD*%
D27*
%TO.C,Q47*%
X87705000Y-102170000D03*
X87705000Y-104070000D03*
X89580000Y-103120000D03*
%TD*%
D32*
%TO.C,X1*%
X145250000Y-79361700D03*
X139750000Y-79361700D03*
X139750000Y-82638300D03*
X145250000Y-82638300D03*
%TD*%
D21*
%TO.C,R96*%
X75205000Y-103860000D03*
X75205000Y-104880000D03*
%TD*%
D12*
%TO.C,R8*%
X176000000Y-82770000D03*
X176000000Y-81750000D03*
%TD*%
%TO.C,R5*%
X176000000Y-70270000D03*
X176000000Y-69250000D03*
%TD*%
D28*
%TO.C,R58*%
X126490000Y-79625000D03*
X127510000Y-79625000D03*
%TD*%
D27*
%TO.C,Q46*%
X62205000Y-95170000D03*
X62205000Y-97070000D03*
X64080000Y-96120000D03*
%TD*%
D22*
%TO.C,Q63*%
X167450000Y-111260000D03*
X167450000Y-109360000D03*
X165575000Y-110310000D03*
%TD*%
D21*
%TO.C,R69*%
X65705000Y-71910000D03*
X65705000Y-72930000D03*
%TD*%
%TO.C,R71*%
X104392500Y-62610000D03*
X104392500Y-63630000D03*
%TD*%
D33*
%TO.C,R14*%
X144575000Y-50250000D03*
X150500000Y-50250000D03*
%TD*%
D31*
%TO.C,U9*%
X129137500Y-83475000D03*
X129137500Y-84125000D03*
X129137500Y-84775000D03*
X129137500Y-85425000D03*
X129137500Y-86075000D03*
X129137500Y-86725000D03*
X129137500Y-87375000D03*
X129137500Y-88025000D03*
X134862500Y-88025000D03*
X134862500Y-87375000D03*
X134862500Y-86725000D03*
X134862500Y-86075000D03*
X134862500Y-85425000D03*
X134862500Y-84775000D03*
X134862500Y-84125000D03*
X134862500Y-83475000D03*
%TD*%
D27*
%TO.C,Q42*%
X62205000Y-74170000D03*
X62205000Y-76070000D03*
X64080000Y-75120000D03*
%TD*%
D34*
%TO.C,C26*%
X119105000Y-62120000D03*
X122055000Y-62120000D03*
%TD*%
D21*
%TO.C,R77*%
X101705000Y-101610000D03*
X101705000Y-102630000D03*
%TD*%
D19*
%TO.C,R179*%
X162210000Y-112760000D03*
X161190000Y-112760000D03*
%TD*%
%TO.C,R163*%
X135460000Y-112760000D03*
X134440000Y-112760000D03*
%TD*%
D21*
%TO.C,R67*%
X76705000Y-62810000D03*
X76705000Y-63830000D03*
%TD*%
D12*
%TO.C,R16*%
X168500000Y-62750000D03*
X168500000Y-61730000D03*
%TD*%
D35*
%TO.C,U1*%
X149325000Y-79750000D03*
X149325000Y-80250000D03*
X149325000Y-80750000D03*
X149325000Y-81250000D03*
X149325000Y-81750000D03*
X149325000Y-82250000D03*
X149325000Y-82750000D03*
X149325000Y-83250000D03*
X149325000Y-83750000D03*
X149325000Y-84250000D03*
X149325000Y-84750000D03*
X149325000Y-85250000D03*
X149325000Y-85750000D03*
X149325000Y-86250000D03*
X149325000Y-86750000D03*
X149325000Y-87250000D03*
D36*
X151250000Y-89175000D03*
X151750000Y-89175000D03*
X152250000Y-89175000D03*
X152750000Y-89175000D03*
X153250000Y-89175000D03*
X153750000Y-89175000D03*
X154250000Y-89175000D03*
X154750000Y-89175000D03*
X155250000Y-89175000D03*
X155750000Y-89175000D03*
X156250000Y-89175000D03*
X156750000Y-89175000D03*
X157250000Y-89175000D03*
X157750000Y-89175000D03*
X158250000Y-89175000D03*
X158750000Y-89175000D03*
D35*
X160675000Y-87250000D03*
X160675000Y-86750000D03*
X160675000Y-86250000D03*
X160675000Y-85750000D03*
X160675000Y-85250000D03*
X160675000Y-84750000D03*
X160675000Y-84250000D03*
X160675000Y-83750000D03*
X160675000Y-83250000D03*
X160675000Y-82750000D03*
X160675000Y-82250000D03*
X160675000Y-81750000D03*
X160675000Y-81250000D03*
X160675000Y-80750000D03*
X160675000Y-80250000D03*
X160675000Y-79750000D03*
D36*
X158750000Y-77825000D03*
X158250000Y-77825000D03*
X157750000Y-77825000D03*
X157250000Y-77825000D03*
X156750000Y-77825000D03*
X156250000Y-77825000D03*
X155750000Y-77825000D03*
X155250000Y-77825000D03*
X154750000Y-77825000D03*
X154250000Y-77825000D03*
X153750000Y-77825000D03*
X153250000Y-77825000D03*
X152750000Y-77825000D03*
X152250000Y-77825000D03*
X151750000Y-77825000D03*
X151250000Y-77825000D03*
%TD*%
D15*
%TO.C,D6*%
X140080000Y-117202500D03*
X140080000Y-119077500D03*
%TD*%
D27*
%TO.C,Q37*%
X89455000Y-60920000D03*
X89455000Y-62820000D03*
X91330000Y-61870000D03*
%TD*%
%TO.C,Q38*%
X79142500Y-60920000D03*
X79142500Y-62820000D03*
X81017500Y-61870000D03*
%TD*%
D28*
%TO.C,R28*%
X189030000Y-122270000D03*
X190050000Y-122270000D03*
%TD*%
D24*
%TO.C,C5*%
X152500000Y-91000000D03*
X151540000Y-91000000D03*
%TD*%
D16*
%TO.C,C24*%
X135020000Y-67500000D03*
X135980000Y-67500000D03*
%TD*%
D22*
%TO.C,Q24*%
X115080000Y-87945000D03*
X115080000Y-86045000D03*
X113205000Y-86995000D03*
%TD*%
D19*
%TO.C,R189*%
X173210000Y-112760000D03*
X172190000Y-112760000D03*
%TD*%
%TO.C,R57*%
X137760000Y-68750000D03*
X136740000Y-68750000D03*
%TD*%
D21*
%TO.C,R78*%
X75205000Y-101610000D03*
X75205000Y-102630000D03*
%TD*%
D37*
%TO.C,R29*%
X136100000Y-57250000D03*
X137750000Y-57250000D03*
%TD*%
D21*
%TO.C,R66*%
X116705000Y-79910000D03*
X116705000Y-80930000D03*
%TD*%
D22*
%TO.C,Q58*%
X145325000Y-111160000D03*
X145325000Y-109260000D03*
X143450000Y-110210000D03*
%TD*%
D21*
%TO.C,R68*%
X116705000Y-74810000D03*
X116705000Y-75830000D03*
%TD*%
D24*
%TO.C,C14*%
X192250000Y-77750000D03*
X191290000Y-77750000D03*
%TD*%
D21*
%TO.C,R99*%
X68705000Y-103860000D03*
X68705000Y-104880000D03*
%TD*%
D19*
%TO.C,R165*%
X140700000Y-112760000D03*
X139680000Y-112760000D03*
%TD*%
D22*
%TO.C,Q6*%
X96205000Y-62820000D03*
X96205000Y-60920000D03*
X94330000Y-61870000D03*
%TD*%
D12*
%TO.C,R6*%
X176000000Y-72760000D03*
X176000000Y-71740000D03*
%TD*%
D24*
%TO.C,C25*%
X135460000Y-75000000D03*
X134500000Y-75000000D03*
%TD*%
D12*
%TO.C,R3*%
X168500000Y-67750000D03*
X168500000Y-66730000D03*
%TD*%
D28*
%TO.C,R90*%
X126490000Y-88125000D03*
X127510000Y-88125000D03*
%TD*%
D12*
%TO.C,R20*%
X168500000Y-77770000D03*
X168500000Y-76750000D03*
%TD*%
D21*
%TO.C,R79*%
X116705000Y-85485000D03*
X116705000Y-86505000D03*
%TD*%
D15*
%TO.C,D16*%
X168020000Y-117202500D03*
X168020000Y-119077500D03*
%TD*%
D12*
%TO.C,R84*%
X136500000Y-85010000D03*
X136500000Y-83990000D03*
%TD*%
D38*
%TO.C,R30*%
X132575000Y-57250000D03*
X130925000Y-57250000D03*
%TD*%
D39*
%TO.C,D2*%
X193775000Y-61235000D03*
X193775000Y-64535000D03*
%TD*%
D27*
%TO.C,Q39*%
X84205000Y-60920000D03*
X84205000Y-62820000D03*
X86080000Y-61870000D03*
%TD*%
D21*
%TO.C,R76*%
X65705000Y-86610000D03*
X65705000Y-87630000D03*
%TD*%
%TO.C,R52*%
X97830000Y-60360000D03*
X97830000Y-61380000D03*
%TD*%
%TO.C,R64*%
X136500000Y-75740000D03*
X136500000Y-76760000D03*
%TD*%
D22*
%TO.C,Q59*%
X161575000Y-111210000D03*
X161575000Y-109310000D03*
X159700000Y-110260000D03*
%TD*%
%TO.C,Q62*%
X156200000Y-111160000D03*
X156200000Y-109260000D03*
X154325000Y-110210000D03*
%TD*%
%TO.C,Q26*%
X67080000Y-104070000D03*
X67080000Y-102170000D03*
X65205000Y-103120000D03*
%TD*%
D21*
%TO.C,R98*%
X116705000Y-92910000D03*
X116705000Y-93930000D03*
%TD*%
D12*
%TO.C,R15*%
X168500000Y-60270000D03*
X168500000Y-59250000D03*
%TD*%
D27*
%TO.C,Q45*%
X62205000Y-91170000D03*
X62205000Y-93070000D03*
X64080000Y-92120000D03*
%TD*%
D40*
%TO.C,J1*%
X155276600Y-57124400D03*
X155276600Y-61188400D03*
X154006600Y-57124400D03*
X154006600Y-61188400D03*
X152736600Y-57124400D03*
X152736600Y-61188400D03*
X151466600Y-57124400D03*
X151466600Y-61188400D03*
X150196600Y-57124400D03*
X150196600Y-61188400D03*
X148926600Y-57124400D03*
X148926600Y-61188400D03*
X147656600Y-57124400D03*
X147656600Y-61188400D03*
%TD*%
D28*
%TO.C,R60*%
X126490000Y-72000000D03*
X127510000Y-72000000D03*
%TD*%
D15*
%TO.C,D10*%
X142620000Y-117202500D03*
X142620000Y-119077500D03*
%TD*%
D19*
%TO.C,R187*%
X168210000Y-112760000D03*
X167190000Y-112760000D03*
%TD*%
D24*
%TO.C,C28*%
X135460000Y-82000000D03*
X134500000Y-82000000D03*
%TD*%
D21*
%TO.C,R49*%
X76705000Y-60560000D03*
X76705000Y-61580000D03*
%TD*%
D14*
%TO.C,C1*%
X162500000Y-79520000D03*
X162500000Y-80480000D03*
%TD*%
D15*
%TO.C,D4*%
X135000000Y-117202500D03*
X135000000Y-119077500D03*
%TD*%
D27*
%TO.C,Q43*%
X62205000Y-78170000D03*
X62205000Y-80070000D03*
X64080000Y-79120000D03*
%TD*%
D28*
%TO.C,R87*%
X126490000Y-86875000D03*
X127510000Y-86875000D03*
%TD*%
D22*
%TO.C,Q19*%
X64080000Y-84070000D03*
X64080000Y-82170000D03*
X62205000Y-83120000D03*
%TD*%
D27*
%TO.C,Q49*%
X78205000Y-102170000D03*
X78205000Y-104070000D03*
X80080000Y-103120000D03*
%TD*%
%TO.C,Q48*%
X92205000Y-102170000D03*
X92205000Y-104070000D03*
X94080000Y-103120000D03*
%TD*%
D19*
%TO.C,R174*%
X145960000Y-112760000D03*
X144940000Y-112760000D03*
%TD*%
D28*
%TO.C,R23*%
X157490000Y-75000000D03*
X158510000Y-75000000D03*
%TD*%
D21*
%TO.C,R95*%
X101705000Y-103860000D03*
X101705000Y-104880000D03*
%TD*%
D22*
%TO.C,Q1*%
X69705000Y-62870000D03*
X69705000Y-60970000D03*
X67830000Y-61920000D03*
%TD*%
D21*
%TO.C,R81*%
X68705000Y-101610000D03*
X68705000Y-102630000D03*
%TD*%
D12*
%TO.C,R18*%
X168500000Y-72760000D03*
X168500000Y-71740000D03*
%TD*%
D21*
%TO.C,R55*%
X110705000Y-60410000D03*
X110705000Y-61430000D03*
%TD*%
D27*
%TO.C,Q40*%
X113205000Y-65170000D03*
X113205000Y-67070000D03*
X115080000Y-66120000D03*
%TD*%
D21*
%TO.C,R94*%
X65705000Y-88860000D03*
X65705000Y-89880000D03*
%TD*%
D22*
%TO.C,Q27*%
X115080000Y-98570000D03*
X115080000Y-96670000D03*
X113205000Y-97620000D03*
%TD*%
D31*
%TO.C,U7*%
X129137500Y-68600000D03*
X129137500Y-69250000D03*
X129137500Y-69900000D03*
X129137500Y-70550000D03*
X129137500Y-71200000D03*
X129137500Y-71850000D03*
X129137500Y-72500000D03*
X129137500Y-73150000D03*
X134862500Y-73150000D03*
X134862500Y-72500000D03*
X134862500Y-71850000D03*
X134862500Y-71200000D03*
X134862500Y-70550000D03*
X134862500Y-69900000D03*
X134862500Y-69250000D03*
X134862500Y-68600000D03*
%TD*%
D22*
%TO.C,Q2*%
X115080000Y-80120000D03*
X115080000Y-78220000D03*
X113205000Y-79170000D03*
%TD*%
D15*
%TO.C,D18*%
X173100000Y-117202500D03*
X173100000Y-119077500D03*
%TD*%
D12*
%TO.C,R1*%
X168500000Y-88250000D03*
X168500000Y-87230000D03*
%TD*%
D21*
%TO.C,R73*%
X110705000Y-62660000D03*
X110705000Y-63680000D03*
%TD*%
D12*
%TO.C,R7*%
X176000000Y-75260000D03*
X176000000Y-74240000D03*
%TD*%
D21*
%TO.C,R26*%
X148500000Y-72490000D03*
X148500000Y-73510000D03*
%TD*%
D41*
%TO.C,FB1*%
X147000000Y-89287500D03*
X147000000Y-87712500D03*
%TD*%
D42*
%TO.C,C12*%
X191275000Y-64360000D03*
X191275000Y-61410000D03*
%TD*%
D43*
%TO.C,U2*%
X164875002Y-58000000D03*
X163925001Y-58000000D03*
X162975003Y-58000000D03*
X162975003Y-60750000D03*
X164875002Y-60750000D03*
%TD*%
D12*
%TO.C,R22*%
X168500000Y-83010000D03*
X168500000Y-81990000D03*
%TD*%
%TO.C,R11*%
X176000000Y-90760000D03*
X176000000Y-89740000D03*
%TD*%
%TO.C,R19*%
X168500000Y-75260000D03*
X168500000Y-74240000D03*
%TD*%
D15*
%TO.C,D13*%
X162940000Y-117202500D03*
X162940000Y-119077500D03*
%TD*%
D21*
%TO.C,R74*%
X65705000Y-81610000D03*
X65705000Y-82630000D03*
%TD*%
D31*
%TO.C,U12*%
X129275000Y-90850000D03*
X129275000Y-91500000D03*
X129275000Y-92150000D03*
X129275000Y-92800000D03*
X129275000Y-93450000D03*
X129275000Y-94100000D03*
X129275000Y-94750000D03*
X129275000Y-95400000D03*
X135000000Y-95400000D03*
X135000000Y-94750000D03*
X135000000Y-94100000D03*
X135000000Y-93450000D03*
X135000000Y-92800000D03*
X135000000Y-92150000D03*
X135000000Y-91500000D03*
X135000000Y-90850000D03*
%TD*%
D19*
%TO.C,R37*%
X185235000Y-92000000D03*
X184215000Y-92000000D03*
%TD*%
D20*
%TO.C,U6*%
X187000000Y-88095000D03*
X187000000Y-89365000D03*
X187000000Y-90635000D03*
X187000000Y-91905000D03*
X191950000Y-91905000D03*
X191950000Y-90635000D03*
X191950000Y-89365000D03*
X191950000Y-88095000D03*
%TD*%
D28*
%TO.C,R38*%
X192715000Y-93250000D03*
X193735000Y-93250000D03*
%TD*%
D21*
%TO.C,R31*%
X185225000Y-88240000D03*
X185225000Y-89260000D03*
%TD*%
D19*
%TO.C,R34*%
X195735000Y-90500000D03*
X194715000Y-90500000D03*
%TD*%
D18*
%TO.C,C15*%
X193725000Y-88000000D03*
X193725000Y-87040000D03*
%TD*%
D28*
%TO.C,R35*%
X184205000Y-90750000D03*
X185225000Y-90750000D03*
%TD*%
D12*
%TO.C,R33*%
X193725000Y-90510000D03*
X193725000Y-89490000D03*
%TD*%
D28*
%TO.C,R32*%
X183215000Y-89250000D03*
X184235000Y-89250000D03*
%TD*%
D19*
%TO.C,R36*%
X194725000Y-92000000D03*
X193705000Y-92000000D03*
%TD*%
M02*
