M48
; DRILL file {KiCad 8.0.5} date 2024-11-21T16:51:05-0700
; FORMAT={-:-/ absolute / inch / decimal}
; #@! TF.CreationDate,2024-11-21T16:51:05-07:00
; #@! TF.GenerationSoftware,Kicad,Pcbnew,8.0.5
; #@! TF.FileFunction,Plated,1,6,PTH
FMAT,2
INCH
; #@! TA.AperFunction,Plated,PTH,ViaDrill
T1C0.0118
; #@! TA.AperFunction,Plated,PTH,ComponentDrill
T2C0.0236
; #@! TA.AperFunction,Plated,PTH,ComponentDrill
T3C0.0315
; #@! TA.AperFunction,Plated,PTH,ComponentDrill
T4C0.0394
; #@! TA.AperFunction,Plated,PTH,ComponentDrill
T5C0.0430
%
G90
G05
T1
X2.3917Y-3.6614
X2.3917Y-3.8189
X2.4016Y-2.9921
X2.4016Y-3.1496
X2.4269Y-2.9575
X2.4269Y-3.115
X2.4269Y-3.6268
X2.4269Y-3.7843
X2.449Y-2.5657
X2.449Y-2.7646
X2.449Y-3.235
X2.449Y-3.4319
X2.467Y-2.9575
X2.467Y-3.115
X2.4803Y-3.3661
X2.5228Y-2.6031
X2.5228Y-2.802
X2.5228Y-3.2724
X2.5228Y-3.4693
X2.5295Y-2.7264
X2.5295Y-3.1988
X2.5295Y-3.3957
X2.5671Y-4.0224
X2.5689Y-2.9331
X2.5689Y-3.0906
X2.5689Y-3.6024
X2.5689Y-3.7598
X2.5868Y-2.5437
X2.5868Y-2.5839
X2.5868Y-2.6724
X2.5868Y-2.7425
X2.5868Y-2.7827
X2.5868Y-2.8311
X2.5868Y-2.8713
X2.5868Y-3.213
X2.5868Y-3.2531
X2.5868Y-3.3417
X2.5868Y-3.4098
X2.5868Y-3.45
X2.5868Y-3.5386
X2.6378Y-3.9862
X2.6409Y-4.0598
X2.6575Y-2.8547
X2.6705Y-2.4004
X2.7049Y-4.0004
X2.7049Y-4.0406
X2.7049Y-4.1291
X2.7067Y-3.8681
X2.7426Y-4.1929
X2.7443Y-2.4378
X2.7461Y-2.3622
X2.8002Y-4.2077
X2.8083Y-2.3783
X2.8083Y-2.4185
X2.8083Y-2.4669
X2.8083Y-2.5071
X2.8223Y-4.3136
X2.823Y-4.0224
X2.8821Y-2.4063
X2.8937Y-3.9862
X2.8969Y-4.0598
X2.9528Y-2.372
X2.9559Y-2.4437
X2.9608Y-4.0004
X2.9608Y-4.0406
X2.9608Y-4.089
X2.9608Y-4.1291
X3.0199Y-2.3843
X3.0199Y-2.4244
X3.0199Y-2.4728
X3.0199Y-2.513
X3.0391Y-2.8799
X3.0568Y-4.0598
X3.0807Y-4.1339
X3.0937Y-2.4358
X3.1102Y-2.5098
X3.1988Y-4.0354
X3.2283Y-2.4114
X3.2487Y-4.0598
X3.2677Y-4.1339
X3.293Y-2.4358
X3.3071Y-2.5098
X3.3858Y-4.0354
X3.4308Y-4.0598
X3.435Y-2.4114
X3.4449Y-4.1339
X3.4997Y-2.4358
X3.5138Y-2.5098
X3.5524Y-2.8799
X3.5728Y-4.0354
X3.608Y-4.0598
X3.622Y-4.1339
X3.6417Y-2.4114
X3.6516Y-2.4902
X3.6713Y-3.9378
X3.7098Y-2.7854
X3.7138Y-2.3984
X3.75Y-4.0354
X3.7876Y-2.4358
X3.7894Y-2.3622
X3.8386Y-2.7165
X3.8516Y-2.3764
X3.8516Y-2.4165
X3.8516Y-2.465
X3.8516Y-2.5051
X3.8663Y-4.0224
X3.937Y-3.9764
X3.9402Y-4.0598
X3.9721Y-2.3984
X4.0041Y-4.0004
X4.0041Y-4.0406
X4.0041Y-4.089
X4.0041Y-4.1291
X4.0453Y-2.3622
X4.046Y-2.4358
X4.0829Y-4.0224
X4.1099Y-2.3764
X4.1099Y-2.4165
X4.1099Y-2.5051
X4.1535Y-3.9764
X4.1567Y-4.0598
X4.2207Y-2.4004
X4.2207Y-4.0004
X4.2207Y-4.0406
X4.2207Y-4.089
X4.2207Y-4.1291
X4.2945Y-2.4378
X4.3012Y-2.3524
X4.3012Y-2.9823
X4.3406Y-3.4154
X4.3585Y-2.3783
X4.3585Y-2.4185
X4.3585Y-2.4669
X4.3585Y-2.5071
X4.3602Y-3.0512
X4.3898Y-2.7559
X4.3996Y-2.6378
X4.3996Y-3.622
X4.3996Y-3.8681
X4.4046Y-3.0855
X4.4094Y-3.3071
X4.4347Y-2.6031
X4.4347Y-2.7606
X4.4347Y-3.2724
X4.4569Y-2.8787
X4.4569Y-3.0795
X4.4569Y-3.3876
X4.4569Y-3.5913
X4.4569Y-3.8059
X4.5276Y-2.8445
X4.5276Y-3.0413
X4.5276Y-3.3563
X4.5276Y-3.5531
X4.5276Y-3.7697
X4.5307Y-2.9161
X4.5307Y-3.1169
X4.5307Y-3.425
X4.5307Y-3.6287
X4.5307Y-3.8433
X4.5768Y-2.5787
X4.5768Y-2.7362
X4.5768Y-3.248
X4.5947Y-2.8567
X4.5947Y-2.8969
X4.5947Y-2.9854
X4.5947Y-3.0575
X4.5947Y-3.0976
X4.5947Y-3.1461
X4.5947Y-3.1862
X4.5947Y-3.3656
X4.5947Y-3.4943
X4.5947Y-3.5693
X4.5947Y-3.6094
X4.5947Y-3.698
X4.5947Y-3.7839
X4.5947Y-3.824
X4.5947Y-3.9126
X4.7736Y-1.9783
X4.8053Y-2.4457
X4.8327Y-2.8543
X4.8425Y-2.5787
X4.8524Y-2.815
X4.9213Y-2.7264
X4.9705Y-2.7264
X4.9799Y-2.8346
X4.9799Y-3.1348
X4.9799Y-3.4203
X4.9853Y-3.7106
X5.0Y-3.2382
X5.0201Y-3.1348
X5.0201Y-3.1841
X5.0201Y-3.4203
X5.0201Y-3.4695
X5.0626Y-2.6575
X5.0626Y-2.9577
X5.0626Y-3.2431
X5.068Y-3.5335
X5.0689Y-2.2146
X5.1028Y-2.6575
X5.1028Y-2.9577
X5.1028Y-3.2431
X5.1082Y-3.5335
X5.1083Y-2.2146
X5.1378Y-4.4882
X5.1472Y-2.7067
X5.1472Y-2.7559
X5.1472Y-2.8051
X5.1472Y-2.8543
X5.1472Y-3.0069
X5.1472Y-3.0561
X5.1472Y-3.1053
X5.1472Y-3.1545
X5.1472Y-3.2923
X5.1472Y-3.3415
X5.1472Y-3.3907
X5.1472Y-3.44
X5.1527Y-3.5827
X5.1527Y-3.6319
X5.1527Y-3.6811
X5.1527Y-3.7303
X5.1545Y-2.2539
X5.1673Y-3.1988
X5.1874Y-2.8543
X5.1874Y-3.1545
X5.1874Y-3.44
X5.1928Y-3.7303
X5.2142Y-5.0394
X5.2146Y-4.75
X5.2259Y-2.9818
X5.2309Y-3.0754
X5.2327Y-3.1288
X5.2362Y-3.4449
X5.2362Y-3.7008
X5.2362Y-4.252
X5.2451Y-3.0118
X5.2559Y-2.7165
X5.2559Y-2.7619
X5.2563Y-3.354
X5.2598Y-3.5039
X5.2598Y-3.75
X5.262Y-3.1406
X5.2717Y-4.4882
X5.2953Y-2.9528
X5.2953Y-3.2283
X5.2969Y-3.5236
X5.3051Y-2.2244
X5.3051Y-2.3264
X5.3142Y-5.0394
X5.3146Y-4.75
X5.315Y-4.252
X5.315Y-4.5669
X5.3331Y-2.9528
X5.3331Y-3.2283
X5.3342Y-4.4394
X5.3346Y-3.5236
X5.3535Y-2.6575
X5.3622Y-3.0886
X5.3642Y-3.7303
X5.3738Y-3.3069
X5.374Y-2.9819
X5.374Y-3.022
X5.374Y-3.3469
X5.374Y-3.3858
X5.374Y-3.6713
X5.3869Y-2.6575
X5.4134Y-4.2421
X5.4138Y-3.6024
X5.4142Y-5.0394
X5.4146Y-4.75
X5.4232Y-2.2539
X5.4236Y-2.7067
X5.4583Y-4.498
X5.4626Y-2.6187
X5.4724Y-2.2146
X5.4862Y-2.8937
X5.5118Y-2.6772
X5.5118Y-4.2421
X5.5118Y-4.5669
X5.5142Y-5.0394
X5.5146Y-4.75
X5.5315Y-2.2146
X5.5315Y-3.6024
X5.5394Y-4.4394
X5.5807Y-3.6319
X5.6142Y-5.0394
X5.6146Y-4.75
X5.6583Y-4.4882
X5.6791Y-3.0512
X5.6791Y-3.3268
X5.6819Y-4.2224
X5.7087Y-3.4252
X5.7087Y-4.5669
X5.7142Y-5.0394
X5.7146Y-4.75
X5.7382Y-4.2224
X5.7465Y-4.4394
X5.7469Y-3.7998
X5.7874Y-3.5153
X5.7972Y-3.3366
X5.8133Y-2.249
X5.8142Y-5.0394
X5.8146Y-4.75
X5.8248Y-3.7185
X5.8268Y-3.2579
X5.8346Y-3.7776
X5.8465Y-2.8941
X5.8539Y-4.4394
X5.8633Y-2.249
X5.8633Y-2.409
X5.8677Y-3.0413
X5.8776Y-4.2421
X5.9055Y-3.0413
X5.9055Y-4.5669
X5.9142Y-5.0394
X5.9146Y-4.75
X5.9252Y-3.6516
X5.9284Y-3.3671
X5.9312Y-3.3155
X5.9449Y-3.002
X5.9449Y-4.252
X5.9455Y-3.1883
X5.9606Y-3.2547
X5.9606Y-3.3268
X5.9633Y-2.249
X5.9661Y-3.5827
X5.9728Y-4.4394
X5.9827Y-3.002
X5.9843Y-3.1594
X6.0039Y-3.5827
X6.0042Y-3.8979
X6.0079Y-3.131
X6.0133Y-2.249
X6.0193Y-2.9232
X6.0315Y-3.1791
X6.0335Y-1.9783
X6.0335Y-3.0118
X6.0551Y-3.1398
X6.0582Y-3.9127
X6.0606Y-4.4394
X6.0633Y-2.249
X6.0689Y-3.563
X6.0701Y-3.8654
X6.0787Y-3.1644
X6.0827Y-2.5591
X6.0827Y-2.9528
X6.0925Y-4.2323
X6.1024Y-3.1398
X6.1142Y-5.0394
X6.1146Y-4.75
X6.1262Y-3.8428
X6.1319Y-3.1201
X6.1516Y-4.2323
X6.1614Y-2.9528
X6.1795Y-4.4394
X6.1909Y-2.4705
X6.2008Y-3.4055
X6.2142Y-5.0394
X6.2146Y-4.75
X6.2205Y-3.2067
X6.2205Y-3.2382
X6.2205Y-4.5669
X6.2213Y-3.5728
X6.2213Y-3.6122
X6.2303Y-3.4291
X6.2402Y-2.9528
X6.2556Y-3.2171
X6.256Y-3.1359
X6.2673Y-4.4394
X6.2697Y-3.189
X6.2697Y-3.2972
X6.2992Y-3.5236
X6.2992Y-4.252
X6.3022Y-3.4781
X6.3142Y-5.0394
X6.3146Y-4.75
X6.3583Y-4.252
X6.3862Y-4.4394
X6.3898Y-2.1752
X6.3976Y-3.1307
X6.3976Y-3.1685
X6.3976Y-3.2048
X6.3996Y-2.4803
X6.4142Y-5.0394
X6.4146Y-4.75
X6.4173Y-4.5669
X6.4193Y-3.2933
X6.4583Y-4.4882
X6.4783Y-3.2185
X6.502Y-3.0976
X6.5059Y-2.1752
X6.5142Y-5.0394
X6.5146Y-4.75
X6.5157Y-2.4803
X6.5157Y-4.2618
X6.5453Y-3.7539
X6.5748Y-2.5984
X6.5846Y-4.2618
X6.6142Y-4.5669
X6.6142Y-5.0394
X6.6146Y-4.75
X6.6224Y-4.4394
X6.6339Y-2.3327
X6.6339Y-2.4303
X6.6339Y-2.5295
X6.6339Y-2.6272
X6.6339Y-2.6673
X6.6339Y-2.7256
X6.6339Y-2.7657
X6.6339Y-2.8244
X6.6339Y-2.9626
X6.6339Y-3.0217
X6.6339Y-3.061
X6.6339Y-3.1378
X6.6339Y-3.228
X6.6339Y-3.2681
X6.6339Y-3.4343
X6.6339Y-3.4744
X6.6634Y-2.8937
X6.6717Y-4.4882
X6.6831Y-3.0217
X6.6831Y-3.1063
X6.7142Y-5.0394
X6.7146Y-4.75
X6.7224Y-4.252
X6.7717Y-4.4882
X6.7815Y-4.252
X6.811Y-4.5669
X6.8142Y-5.0394
X6.8146Y-4.75
X6.9291Y-2.628
X6.9291Y-2.7264
X6.9291Y-2.8244
X6.9291Y-2.9228
X6.9291Y-3.2185
X6.9291Y-3.3366
X6.9291Y-3.4346
X6.9291Y-3.5331
X6.9291Y-3.6315
X6.9291Y-3.7299
X6.9685Y-3.9469
X7.0374Y-3.214
X7.0669Y-3.1667
X7.1358Y-2.4803
X7.1673Y-4.8138
X7.2441Y-3.1201
X7.2441Y-3.2579
X7.2526Y-3.622
X7.2863Y-4.3421
X7.3425Y-3.3169
X7.3524Y-4.3209
X7.3622Y-3.6183
X7.4311Y-2.3327
X7.4419Y-4.6644
X7.4429Y-4.6276
X7.4508Y-4.9114
X7.4803Y-4.3421
X7.5311Y-3.061
X7.5591Y-4.302
X7.5591Y-4.3398
X7.5689Y-3.061
X7.5872Y-3.6713
X7.6083Y-3.2972
X7.6142Y-3.1299
X7.627Y-3.4268
X7.627Y-3.4646
X7.687Y-2.4114
X7.687Y-2.5394
X7.7061Y-3.5236
X7.7061Y-3.563
T3
X3.1417Y-2.6378
X3.1417Y-3.1693
X3.1417Y-3.3315
X3.1417Y-3.863
X3.2417Y-2.6378
X3.2417Y-3.1693
X3.2417Y-3.3315
X3.2417Y-3.863
X3.3417Y-2.6378
X3.3417Y-3.1693
X3.3417Y-3.3315
X3.3417Y-3.863
X3.4417Y-2.6378
X3.4417Y-3.1693
X3.4417Y-3.3315
X3.4417Y-3.863
X3.5417Y-2.6378
X3.5417Y-3.1693
X3.5417Y-3.3315
X3.5417Y-3.863
X3.6417Y-2.6378
X3.6417Y-3.1693
X3.6417Y-3.3315
X3.6417Y-3.863
X3.7417Y-2.6378
X3.7417Y-3.1693
X3.7417Y-3.3315
X3.7417Y-3.863
X3.8417Y-2.6378
X3.8417Y-3.1693
X3.8417Y-3.3315
X3.8417Y-3.863
X5.215Y-4.848
X5.215Y-5.148
X5.315Y-4.848
X5.315Y-5.148
X5.415Y-4.848
X5.415Y-5.148
X5.515Y-4.848
X5.515Y-5.148
X5.615Y-4.848
X5.615Y-5.148
X5.715Y-4.848
X5.715Y-5.148
X5.815Y-4.848
X5.815Y-5.148
X5.915Y-4.848
X5.915Y-5.148
X6.115Y-4.848
X6.115Y-5.148
X6.215Y-4.848
X6.215Y-5.148
X6.315Y-4.848
X6.315Y-5.148
X6.415Y-4.848
X6.415Y-5.148
X6.515Y-4.848
X6.515Y-5.148
X6.615Y-4.848
X6.615Y-5.148
X6.715Y-4.848
X6.715Y-5.148
X6.815Y-4.848
X6.815Y-5.148
T4
X4.7276Y-2.2183
X4.7276Y-2.3183
X5.0Y-4.585
X5.0Y-4.685
X5.2709Y-3.9665
X5.3709Y-3.9665
X5.4709Y-3.9665
X5.5709Y-3.9665
X5.6709Y-3.9665
X5.7709Y-3.9665
X5.8709Y-3.9665
X5.9433Y-2.7559
X5.9433Y-2.8559
X5.9709Y-3.9665
X6.0433Y-2.7559
X6.0433Y-2.8559
X6.0709Y-3.9665
X6.1433Y-2.7559
X6.1433Y-2.8559
X6.1709Y-3.9665
X6.2433Y-2.7559
X6.2433Y-2.8559
X6.2709Y-3.9665
X6.3709Y-3.9665
X6.4709Y-3.9665
X6.5709Y-3.9665
X6.6709Y-3.9665
X6.7323Y-2.2776
X6.7323Y-2.3776
X6.7323Y-2.4776
X6.7323Y-2.5776
X6.7323Y-2.6776
X6.7323Y-2.7776
X6.7323Y-2.8776
X6.7323Y-2.9776
X6.7323Y-3.0776
X6.7323Y-3.1776
X6.7323Y-3.2776
X6.7323Y-3.3776
X6.7323Y-3.4776
X6.7323Y-3.5776
X6.7323Y-3.6776
X6.7323Y-3.7776
X6.7709Y-3.9665
X6.8323Y-2.2776
X6.8323Y-2.3776
X6.8323Y-2.4776
X6.8323Y-2.5776
X6.8323Y-2.6776
X6.8323Y-2.7776
X6.8323Y-2.8776
X6.8323Y-2.9776
X6.8323Y-3.0776
X6.8323Y-3.1776
X6.8323Y-3.2776
X6.8323Y-3.3776
X6.8323Y-3.4776
X6.8323Y-3.5776
X6.8323Y-3.6776
X6.8323Y-3.7776
X7.3409Y-2.7559
X7.3409Y-2.8559
X7.3409Y-3.8474
X7.3409Y-3.9474
X7.4409Y-2.7559
X7.4409Y-2.8559
X7.4409Y-3.8474
X7.4409Y-3.9474
X7.6673Y-4.6031
X7.6673Y-4.7031
X7.6673Y-4.8031
X7.6673Y-4.9031
T5
X3.1102Y-4.5866
X3.1102Y-4.7835
X3.3071Y-4.5866
X3.3071Y-4.7835
X3.8976Y-4.5866
X3.8976Y-4.7835
X4.0945Y-4.5866
X4.0945Y-4.7835
T2
G00X5.1252Y-1.9252
M15
G01X5.1252Y-1.9016
M16
G05
G00X5.1252Y-2.0996
M15
G01X5.1252Y-2.0563
M16
G05
G00X5.4654Y-1.9252
M15
G01X5.4654Y-1.9016
M16
G05
G00X5.4654Y-2.0996
M15
G01X5.4654Y-2.0563
M16
G05
M30
